{"glyphs":{"0":{"ha":914,"x_min":58,"x_max":856,"o":"m 747 119 q 692 53 747 119 q 457 -14 638 -14 q 167 119 276 -14 q 58 476 58 253 q 167 832 58 699 q 457 965 276 965 q 746 832 636 965 q 856 476 856 699 q 747 119 856 253 m 346 190 q 365 139 346 190 q 457 88 385 88 q 568 190 529 88 q 607 476 607 292 q 568 763 607 661 q 457 864 529 864 q 346 763 385 864 q 307 476 307 661 q 346 190 307 292 z "},"1":{"ha":626,"x_min":40,"x_max":593,"o":"m 593 0 l 40 0 l 40 50 l 125 83 q 190 122 174 103 q 206 182 206 142 l 206 669 q 118 763 206 746 l 40 778 l 40 825 l 383 965 l 426 938 l 426 182 q 444 123 426 143 q 508 83 461 103 l 593 50 l 593 0 z "},"2":{"ha":763,"x_min":29,"x_max":704,"o":"m 669 0 l 43 0 l 29 72 q 349 481 246 313 q 408 669 408 579 q 369 777 408 738 q 265 817 331 817 q 76 746 186 817 l 32 806 q 350 965 168 965 q 572 892 486 965 q 657 700 657 818 q 500 397 657 554 q 254 182 407 304 l 517 182 q 611 235 572 182 l 653 290 l 704 290 l 669 0 z "},"3":{"ha":749,"x_min":17,"x_max":692,"o":"m 319 -14 q 17 90 140 -14 l 60 156 q 261 111 160 111 q 393 156 344 111 q 442 275 442 200 q 379 406 442 361 q 199 450 317 450 l 188 529 q 417 701 417 550 q 382 790 417 757 q 290 824 347 824 q 83 739 200 824 l 38 800 q 188 922 103 878 q 361 965 274 965 q 581 896 497 965 q 665 715 665 826 q 497 499 665 571 q 641 404 590 464 q 692 267 692 344 q 588 65 692 143 q 319 -14 483 -14 z "},"4":{"ha":831,"x_min":6,"x_max":779,"o":"m 775 0 l 319 0 l 319 50 l 364 74 q 422 115 407 96 q 436 167 436 135 l 436 215 l 19 215 l 6 276 l 436 951 l 657 951 l 657 326 l 779 326 l 779 215 l 657 215 l 657 167 q 672 117 657 136 q 731 74 688 97 l 775 50 l 775 0 m 436 776 l 158 326 l 436 326 l 436 776 z "},"5":{"ha":725,"x_min":21,"x_max":678,"o":"m 311 -14 q 21 88 136 -14 l 64 150 q 253 106 142 106 q 380 156 332 106 q 428 279 428 206 q 381 400 428 358 q 246 442 333 442 q 111 419 178 442 l 86 456 l 119 951 l 467 951 q 550 981 526 951 l 582 1018 l 633 1018 l 607 769 l 210 769 l 194 553 q 364 593 271 593 q 590 511 501 593 q 678 300 678 429 q 575 73 678 160 q 311 -14 472 -14 z "},"6":{"ha":885,"x_min":58,"x_max":826,"o":"m 444 -14 q 167 105 276 -14 q 58 413 58 224 q 223 809 58 653 q 638 965 388 965 q 708 961 675 965 l 719 883 q 682 886 694 886 q 424 771 542 886 q 307 482 307 656 q 404 581 344 544 q 528 618 464 618 q 741 541 656 618 q 826 342 826 464 q 717 85 826 185 q 444 -14 608 -14 m 464 88 q 550 144 518 88 q 582 292 582 200 q 544 424 582 374 q 444 474 506 474 q 367 447 403 474 q 313 376 332 421 q 354 167 313 247 q 464 88 396 88 z "},"7":{"ha":696,"x_min":38,"x_max":686,"o":"m 371 0 l 133 0 l 133 53 l 531 769 l 226 769 q 131 717 169 769 l 89 661 l 38 661 l 57 951 l 658 951 l 686 921 l 371 0 z "},"8":{"ha":843,"x_min":65,"x_max":778,"o":"m 419 -14 q 163 51 260 -14 q 65 224 65 117 q 119 356 65 294 q 267 454 172 417 q 129 573 172 515 q 86 696 86 631 q 178 890 86 815 q 419 965 271 965 q 650 899 560 965 q 740 729 740 832 q 691 604 740 658 q 551 522 642 550 q 778 250 778 408 q 676 61 778 136 q 419 -14 574 -14 m 467 574 q 536 742 536 644 q 503 832 536 797 q 415 867 469 867 q 327 835 361 867 q 293 753 293 803 q 331 668 293 708 q 467 574 369 628 m 415 85 q 515 119 476 85 q 554 204 554 153 q 505 297 554 251 q 336 407 456 343 q 279 322 294 363 q 264 224 264 281 q 305 122 264 160 q 415 85 346 85 z "},"9":{"ha":874,"x_min":58,"x_max":815,"o":"m 260 -14 q 114 1 151 -14 l 108 71 q 174 74 135 71 q 456 186 347 85 q 564 440 564 288 q 476 357 532 388 q 357 326 419 326 q 141 412 224 326 q 58 633 58 497 q 164 871 58 776 q 429 965 269 965 q 710 842 604 965 q 815 514 815 719 q 658 135 815 285 q 260 -14 501 -14 m 431 476 q 560 536 513 476 q 522 772 560 681 q 422 864 483 864 q 336 814 368 864 q 304 679 304 764 q 340 533 304 590 q 431 476 375 476 z "},"\r":{"ha":0,"x_min":0,"x_max":0,"o":""}," ":{"ha":333,"x_min":0,"x_max":0,"o":""},"!":{"ha":490,"x_min":103,"x_max":388,"o":"m 288 340 l 203 340 l 103 889 l 103 951 l 388 951 l 388 889 l 288 340 m 341 25 q 322 6 341 25 q 246 -14 303 -14 q 151 24 189 -14 q 113 119 113 63 q 151 215 113 176 q 246 253 189 253 q 341 214 303 253 q 379 119 379 175 q 341 25 379 64 z "},"\"":{"ha":683,"x_min":61,"x_max":622,"o":"m 539 647 l 469 647 l 383 1033 l 383 1076 l 622 1076 l 622 1033 l 539 647 m 215 647 l 146 647 l 61 1033 l 61 1076 l 299 1076 l 299 1033 l 215 647 z "},"#":{"ha":928,"x_min":40,"x_max":888,"o":"m 235 0 l 133 0 l 192 229 l 40 229 l 40 324 l 215 324 l 283 604 l 115 604 l 115 699 l 307 699 l 367 935 l 468 935 l 408 699 l 636 699 l 696 935 l 796 935 l 738 699 l 888 699 l 888 604 l 713 604 l 646 324 l 813 324 l 813 229 l 621 229 l 563 0 l 463 0 l 519 229 l 292 229 l 235 0 m 383 604 l 317 324 l 544 324 l 611 604 l 383 604 z "},"$":{"ha":860,"x_min":96,"x_max":788,"o":"m 450 -140 l 353 -140 l 353 -10 q 96 72 192 8 l 96 350 l 147 350 l 192 265 q 353 103 256 140 l 353 393 l 329 406 q 153 535 208 469 q 97 689 97 600 q 178 879 97 804 q 392 964 260 954 l 392 1068 l 489 1068 l 489 963 q 713 904 626 949 l 729 657 l 678 657 l 636 718 q 489 850 564 819 l 489 583 l 515 569 q 730 428 672 486 q 788 278 788 369 q 694 72 788 153 q 450 -14 601 -8 l 450 -140 m 392 631 l 392 863 q 319 827 347 856 q 290 763 290 799 q 313 695 290 725 q 392 631 335 665 m 450 346 l 450 88 q 544 126 507 93 q 582 206 582 158 q 553 276 582 246 q 450 346 525 307 z "},"%":{"ha":1283,"x_min":81,"x_max":1203,"o":"m 499 522 q 464 485 499 522 q 325 447 429 447 q 151 522 221 447 q 81 706 81 597 q 151 890 81 815 q 325 965 221 965 q 499 890 429 965 q 568 706 568 815 q 499 522 568 597 m 435 0 l 311 0 l 850 951 l 974 951 l 435 0 m 258 572 q 270 547 258 572 q 325 521 283 521 q 392 572 367 521 q 418 706 418 624 q 392 839 418 788 q 325 890 367 890 q 258 839 283 890 q 232 706 232 788 q 258 572 232 624 m 1133 59 q 1099 22 1133 59 q 960 -15 1064 -15 q 785 59 856 -15 q 715 243 715 133 q 785 427 715 353 q 960 501 856 501 q 1133 427 1064 501 q 1203 243 1203 353 q 1133 59 1203 133 m 960 58 q 1026 110 1000 58 q 1053 243 1053 163 q 1026 376 1053 325 q 960 428 1000 428 q 892 376 918 428 q 867 243 867 325 q 892 110 867 161 q 960 58 918 58 z "},"&":{"ha":1181,"x_min":81,"x_max":1140,"o":"m 415 -14 q 173 51 265 -14 q 81 224 81 117 q 144 377 81 307 q 318 483 208 447 q 171 729 171 617 q 254 899 171 833 q 472 965 338 965 q 683 903 603 965 q 763 742 763 842 q 565 535 763 603 l 814 304 q 881 425 881 386 q 838 474 881 453 l 792 494 l 792 542 l 1135 542 l 1135 494 l 1079 474 q 989 394 1029 456 q 883 240 915 282 l 1007 126 q 1096 65 1050 85 l 1140 47 l 1140 0 l 853 0 l 743 99 q 415 -14 589 -14 m 438 653 l 497 596 q 575 758 575 676 q 547 838 575 807 q 472 869 518 869 q 403 844 429 869 q 376 778 376 818 q 438 653 376 706 m 475 99 q 672 163 578 99 l 386 421 q 301 251 301 332 q 350 141 301 183 q 475 99 399 99 z "},"'":{"ha":360,"x_min":61,"x_max":299,"o":"m 215 647 l 146 647 l 61 1033 l 61 1076 l 299 1076 l 299 1033 l 215 647 z "},"(":{"ha":546,"x_min":89,"x_max":499,"o":"m 499 -215 l 442 -260 q 183 48 276 -131 q 89 414 89 226 q 183 780 89 601 q 442 1088 276 958 l 499 1043 q 360 758 414 933 q 307 414 307 583 q 360 69 307 244 q 499 -215 414 -106 z "},")":{"ha":547,"x_min":47,"x_max":458,"o":"m 106 -260 l 47 -215 q 187 69 133 -106 q 240 414 240 244 q 187 758 240 583 q 47 1043 133 933 l 106 1088 q 365 780 271 958 q 458 414 458 601 q 365 48 458 226 q 106 -260 271 -131 z "},"*":{"ha":789,"x_min":85,"x_max":704,"o":"m 319 518 l 299 492 l 143 604 l 164 633 l 364 776 l 117 775 l 85 785 l 143 968 l 178 958 l 375 813 l 299 1046 l 299 1081 l 492 1081 l 492 1046 l 413 813 l 611 958 l 644 968 l 704 785 l 672 775 l 425 776 l 625 633 l 644 604 l 490 492 l 469 518 l 394 754 l 319 518 z "},"+":{"ha":797,"x_min":81,"x_max":717,"o":"m 457 149 l 340 149 l 340 408 l 81 408 l 81 525 l 340 525 l 340 785 l 457 785 l 457 525 l 717 525 l 717 408 l 457 408 l 457 149 z "},",":{"ha":417,"x_min":32,"x_max":346,"o":"m 72 -287 l 32 -251 q 151 -25 151 -128 q 72 86 151 47 l 72 132 q 240 231 218 231 q 315 185 285 231 q 346 74 346 139 q 274 -117 346 -22 q 72 -287 203 -211 z "},"-":{"ha":563,"x_min":67,"x_max":496,"o":"m 496 356 l 67 356 l 67 489 l 496 489 l 496 356 z "},".":{"ha":417,"x_min":75,"x_max":342,"o":"m 208 -14 q 114 25 153 -14 q 75 119 75 64 q 114 214 75 175 q 208 253 153 253 q 303 215 265 253 q 342 119 342 176 q 303 24 342 63 q 208 -14 265 -14 z "},"/":{"ha":671,"x_min":26,"x_max":618,"o":"m 169 -194 l 26 -194 l 476 1069 l 618 1069 l 169 -194 z "},":":{"ha":472,"x_min":103,"x_max":369,"o":"m 331 485 q 312 466 331 485 q 236 447 293 447 q 141 485 179 447 q 103 581 103 524 q 142 675 103 636 q 236 714 181 714 q 331 676 293 714 q 369 581 369 638 q 331 485 369 524 m 236 -14 q 142 25 181 -14 q 103 119 103 64 q 142 214 103 175 q 236 253 181 253 q 331 215 293 253 q 369 119 369 176 q 331 24 369 63 q 236 -14 293 -14 z "},";":{"ha":444,"x_min":46,"x_max":360,"o":"m 317 485 q 298 466 317 485 q 222 447 279 447 q 127 485 165 447 q 89 581 89 524 q 128 675 89 636 q 222 714 167 714 q 317 676 279 714 q 356 581 356 638 q 317 485 356 524 m 86 -287 l 46 -251 q 165 -25 165 -128 q 86 86 165 47 l 86 132 q 254 231 232 231 q 329 185 299 231 q 360 74 360 139 q 288 -117 360 -22 q 86 -287 217 -211 z "},"<":{"ha":778,"x_min":67,"x_max":697,"o":"m 697 289 l 697 175 l 67 425 l 67 510 l 697 760 l 697 644 l 253 467 l 697 289 z "},"=":{"ha":751,"x_min":81,"x_max":671,"o":"m 671 535 l 81 535 l 81 650 l 671 650 l 671 535 m 671 292 l 81 292 l 81 407 l 671 407 l 671 292 z "},">":{"ha":778,"x_min":81,"x_max":711,"o":"m 711 425 l 81 175 l 81 289 l 525 467 l 81 644 l 81 760 l 711 510 l 711 425 z "},"?":{"ha":697,"x_min":75,"x_max":636,"o":"m 354 326 l 281 326 q 201 456 201 379 q 290 624 201 550 q 400 779 400 714 q 374 841 400 818 q 308 864 349 864 q 251 845 276 864 q 181 765 226 826 l 144 718 l 93 718 l 75 907 q 324 965 181 965 q 552 910 468 965 q 636 758 636 854 q 508 544 636 640 q 349 369 349 425 q 354 326 349 360 m 410 25 q 391 6 410 25 q 315 -14 372 -14 q 220 25 258 -14 q 182 119 182 64 q 220 214 182 175 q 315 253 258 253 q 410 214 372 253 q 449 119 449 175 q 410 25 449 64 z "},"@":{"ha":1410,"x_min":67,"x_max":1329,"o":"m 607 -231 q 209 -104 351 -231 q 67 249 67 22 q 166 594 67 433 q 433 849 265 754 q 793 944 601 944 q 1179 817 1029 944 q 1329 489 1329 689 q 1199 156 1329 294 q 882 17 1068 17 q 749 119 749 17 q 776 281 749 164 l 767 281 q 517 17 660 17 q 397 82 443 17 q 350 244 350 147 q 460 540 350 429 q 749 651 571 651 q 888 629 821 651 l 997 668 l 1024 644 q 946 143 946 178 q 972 111 946 111 q 1122 231 1053 111 q 1190 493 1190 351 q 1081 760 1190 660 q 788 860 971 860 q 370 685 544 860 q 196 265 196 510 q 316 -36 196 75 q 642 -147 436 -147 q 899 -108 771 -147 l 918 -164 q 607 -231 769 -231 m 611 158 q 710 276 650 158 q 806 553 771 393 q 728 588 756 583 q 603 476 656 568 q 551 272 551 383 q 567 190 551 221 q 611 158 583 158 z "},"A":{"ha":1035,"x_min":3,"x_max":1032,"o":"m 338 0 l 3 0 l 3 50 l 61 76 q 138 182 104 97 l 435 929 l 596 965 l 914 171 q 946 106 933 121 q 988 74 958 90 l 1032 50 l 1032 0 l 581 0 l 581 50 l 625 71 q 671 121 671 94 q 657 171 671 136 l 621 263 l 281 263 l 247 179 q 232 118 232 138 q 288 69 232 90 l 338 50 l 338 0 m 447 701 l 317 358 l 583 358 l 447 701 z "},"B":{"ha":967,"x_min":58,"x_max":914,"o":"m 493 0 l 58 0 l 58 50 l 103 74 q 150 113 139 94 q 161 167 161 131 l 161 785 q 150 840 161 821 q 103 878 139 858 l 58 901 l 58 951 l 544 951 q 780 885 693 951 q 867 704 867 818 q 808 566 867 626 q 663 489 750 506 q 847 406 781 467 q 914 258 914 346 q 803 68 914 136 q 493 0 692 0 m 396 857 l 396 529 l 461 529 q 574 576 531 529 q 617 699 617 624 q 572 814 617 771 q 454 857 528 857 l 396 857 m 396 435 l 396 94 l 474 94 q 613 140 563 94 q 664 263 664 185 q 615 390 664 344 q 474 435 565 435 l 396 435 z "},"C":{"ha":997,"x_min":54,"x_max":943,"o":"m 582 -14 q 197 115 340 -14 q 54 460 54 243 q 195 830 54 694 q 582 965 336 965 q 907 899 756 965 l 928 626 l 876 626 l 797 729 q 692 827 749 790 q 582 864 635 864 q 382 751 461 864 q 303 472 303 639 q 385 201 303 306 q 597 96 467 96 q 890 328 771 96 l 943 328 l 907 78 q 768 12 858 38 q 582 -14 678 -14 z "},"D":{"ha":1088,"x_min":58,"x_max":1033,"o":"m 536 0 l 58 0 l 58 50 l 103 74 q 150 113 139 94 q 161 167 161 131 l 161 785 q 150 840 161 821 q 103 878 139 858 l 58 901 l 58 951 l 536 951 q 893 824 753 951 q 1033 472 1033 697 q 893 125 1033 250 q 536 0 753 0 m 396 857 l 396 94 l 472 94 q 698 197 611 94 q 785 472 785 299 q 698 753 785 649 q 472 857 611 857 l 396 857 z "},"E":{"ha":935,"x_min":58,"x_max":881,"o":"m 847 0 l 58 0 l 58 50 l 103 74 q 150 113 139 94 q 161 167 161 131 l 161 785 q 150 840 161 821 q 103 878 139 858 l 58 901 l 58 951 l 842 951 l 856 703 l 804 703 l 760 764 q 690 838 719 819 q 614 857 661 857 l 396 857 l 396 529 l 550 529 q 606 541 588 529 q 643 588 625 553 l 667 633 l 717 633 l 717 303 l 667 303 l 644 360 q 607 419 628 404 q 550 435 586 435 l 396 435 l 396 178 q 413 112 396 129 q 482 94 431 94 l 618 94 q 706 113 676 94 q 779 194 735 131 l 831 269 l 881 269 l 847 0 z "},"F":{"ha":889,"x_min":58,"x_max":842,"o":"m 514 0 l 58 0 l 58 50 l 103 74 q 149 112 138 93 q 161 167 161 131 l 161 785 q 149 841 161 822 q 103 878 138 860 l 58 901 l 58 951 l 828 951 l 842 683 l 790 683 l 746 746 q 669 838 694 818 q 600 857 643 857 l 396 857 l 396 510 l 533 510 q 589 522 571 510 q 626 568 607 533 l 651 614 l 700 614 l 700 283 l 651 283 l 628 340 q 590 400 610 385 q 533 415 569 415 l 396 415 l 396 167 q 411 117 396 136 q 469 74 426 97 l 514 50 l 514 0 z "},"G":{"ha":1058,"x_min":54,"x_max":1028,"o":"m 574 -14 q 190 113 325 -14 q 54 469 54 239 q 201 828 54 690 q 583 965 347 965 q 924 890 778 965 l 935 626 l 883 626 l 825 706 q 708 829 760 794 q 593 864 657 864 q 383 756 463 864 q 303 469 303 647 q 388 197 303 300 q 614 94 474 94 q 722 125 688 94 l 722 271 q 708 325 722 306 q 654 364 694 344 l 610 388 l 610 438 l 1028 438 l 1028 388 l 1000 372 q 957 293 957 351 l 957 88 q 574 -14 814 -14 z "},"H":{"ha":1175,"x_min":58,"x_max":1117,"o":"m 500 0 l 58 0 l 58 50 l 103 74 q 150 113 139 94 q 161 167 161 131 l 161 785 q 150 840 161 821 q 103 878 139 858 l 58 901 l 58 951 l 500 951 l 500 901 l 456 878 q 408 840 419 858 q 396 785 396 821 l 396 536 l 779 536 l 779 785 q 767 840 779 821 q 719 878 756 858 l 675 901 l 675 951 l 1117 951 l 1117 901 l 1072 878 q 1024 840 1036 858 q 1013 785 1013 821 l 1013 167 q 1024 113 1013 132 q 1072 74 1036 94 l 1117 50 l 1117 0 l 675 0 l 675 50 l 719 74 q 767 113 756 94 q 779 167 779 132 l 779 435 l 396 435 l 396 167 q 408 113 396 132 q 456 74 419 94 l 500 50 l 500 0 z "},"I":{"ha":558,"x_min":58,"x_max":500,"o":"m 500 0 l 58 0 l 58 50 l 103 74 q 150 113 139 94 q 161 167 161 131 l 161 785 q 150 840 161 821 q 103 878 139 858 l 58 901 l 58 951 l 500 951 l 500 901 l 456 878 q 408 840 419 858 q 396 785 396 821 l 396 167 q 408 113 396 132 q 456 74 419 94 l 500 50 l 500 0 z "},"J":{"ha":544,"x_min":54,"x_max":500,"o":"m 97 -376 l 54 -336 q 133 -151 106 -260 q 161 57 161 -43 l 161 785 q 149 841 161 822 q 103 878 138 860 l 58 901 l 58 951 l 500 951 l 500 901 l 456 878 q 408 840 419 858 q 396 785 396 821 l 396 60 q 383 -49 396 6 q 338 -162 369 -103 q 245 -277 307 -221 q 97 -376 183 -333 z "},"K":{"ha":1058,"x_min":58,"x_max":1056,"o":"m 500 0 l 58 0 l 58 50 l 103 74 q 149 112 138 93 q 161 167 161 131 l 161 785 q 149 841 161 822 q 103 878 138 860 l 58 901 l 58 951 l 500 951 l 500 901 l 456 878 q 408 840 419 858 q 396 785 396 821 l 396 526 l 465 526 q 582 601 532 526 l 697 775 q 740 850 740 840 q 692 886 740 868 l 651 901 l 651 951 l 1018 951 l 1018 901 l 961 879 q 890 843 911 860 q 840 788 868 826 l 665 539 q 767 421 719 499 l 931 143 q 963 99 947 114 q 1011 71 979 85 l 1056 50 l 1056 0 l 742 0 l 488 432 l 396 432 l 396 167 q 408 112 396 131 q 456 74 419 93 l 500 50 l 500 0 z "},"L":{"ha":874,"x_min":58,"x_max":843,"o":"m 807 0 l 58 0 l 58 50 l 103 74 q 150 113 139 94 q 161 167 161 131 l 161 785 q 150 840 161 821 q 103 878 139 858 l 58 901 l 58 951 l 500 951 l 500 901 l 456 878 q 408 840 419 858 q 396 785 396 821 l 396 178 q 413 112 396 129 q 482 94 431 94 l 564 94 q 647 116 619 94 q 742 232 675 138 l 793 307 l 843 307 l 807 0 z "},"M":{"ha":1396,"x_min":26,"x_max":1369,"o":"m 696 19 l 596 -22 l 303 733 l 242 167 q 240 139 240 156 q 252 100 240 113 q 303 72 264 88 l 356 49 l 356 0 l 26 0 l 26 49 l 72 74 q 114 107 103 89 q 131 167 125 125 l 211 813 q 213 832 213 824 q 203 853 213 846 q 157 879 193 861 l 113 901 l 113 951 l 472 951 l 708 326 l 940 951 l 1283 951 l 1283 901 l 1239 879 q 1194 853 1204 863 q 1183 832 1183 844 q 1185 813 1183 821 l 1265 167 q 1281 106 1271 124 q 1324 74 1292 89 l 1369 49 l 1369 0 l 921 0 l 921 49 l 974 72 q 1018 99 1007 86 q 1029 135 1029 111 q 1026 167 1029 147 l 965 738 l 696 19 z "},"N":{"ha":1111,"x_min":58,"x_max":1067,"o":"m 964 24 l 865 -21 l 272 697 l 272 167 q 288 111 272 131 q 347 72 303 92 l 400 49 l 400 0 l 58 0 l 58 49 l 104 74 q 150 110 139 92 q 161 167 161 129 l 161 785 q 147 842 161 824 q 101 879 133 861 l 61 901 l 61 951 l 369 951 l 853 361 l 853 783 q 838 839 853 819 q 778 878 822 858 l 725 901 l 725 951 l 1067 951 l 1067 901 l 1021 876 q 975 839 986 857 q 964 783 964 821 l 964 24 z "},"O":{"ha":1083,"x_min":54,"x_max":1029,"o":"m 542 -14 q 183 115 311 -14 q 54 476 54 244 q 195 824 54 683 q 542 964 336 964 q 901 835 772 964 q 1029 476 1029 707 q 890 126 1029 265 q 542 -14 751 -14 m 370 197 q 404 142 370 197 q 542 88 438 88 q 713 197 646 88 q 781 475 781 307 q 713 753 781 643 q 542 863 646 863 q 370 753 438 863 q 303 475 303 643 q 370 197 303 307 z "},"P":{"ha":947,"x_min":58,"x_max":907,"o":"m 514 0 l 58 0 l 58 50 l 103 74 q 149 112 138 93 q 161 167 161 131 l 161 785 q 149 841 161 822 q 103 878 138 860 l 58 901 l 58 951 l 519 951 q 807 872 707 951 q 907 644 907 793 q 806 424 907 503 q 519 346 704 346 l 396 346 l 396 167 q 411 117 396 136 q 469 74 426 97 l 514 50 l 514 0 m 396 857 l 396 440 l 479 440 q 609 495 561 440 q 657 643 657 550 q 609 799 657 742 q 479 857 561 857 l 396 857 z "},"Q":{"ha":1083,"x_min":54,"x_max":1075,"o":"m 1075 -261 l 801 -299 q 596 -151 696 -299 q 474 -10 518 -37 q 163 135 272 8 q 54 474 54 261 q 195 822 54 681 q 542 964 336 964 q 901 835 772 964 q 1029 474 1029 706 q 930 171 1029 300 q 667 1 831 42 q 784 -29 744 -10 q 872 -100 824 -49 q 1008 -193 947 -181 l 1067 -206 l 1075 -261 m 370 197 q 404 142 370 197 q 542 88 438 88 q 713 197 646 88 q 781 472 781 306 q 713 752 781 642 q 542 863 646 863 q 370 752 438 863 q 303 472 303 642 q 370 197 303 306 z "},"R":{"ha":1010,"x_min":58,"x_max":1010,"o":"m 514 0 l 58 0 l 58 50 l 103 74 q 149 112 138 93 q 161 167 161 131 l 161 785 q 149 841 161 822 q 103 878 138 860 l 58 901 l 58 951 l 526 951 q 801 881 703 951 q 900 686 900 811 q 844 531 900 597 q 685 429 788 464 q 779 340 742 408 l 897 125 q 965 69 915 92 l 1010 50 l 1010 0 l 699 0 l 518 324 q 463 396 485 383 l 396 396 l 396 167 q 411 117 396 136 q 469 74 426 97 l 514 50 l 514 0 m 396 857 l 396 490 l 481 490 q 602 547 553 490 q 651 686 651 604 q 600 806 651 756 q 478 857 549 857 l 396 857 z "},"S":{"ha":853,"x_min":89,"x_max":781,"o":"m 425 -14 q 240 10 331 -14 q 89 72 149 33 l 89 350 l 140 350 l 185 265 q 428 88 276 88 q 533 122 490 88 q 575 206 575 156 q 522 300 575 257 q 322 411 469 343 q 146 533 201 467 q 90 689 90 599 q 182 888 90 811 q 418 965 274 965 q 573 948 490 965 q 706 904 656 931 l 722 657 l 671 657 l 629 718 q 407 864 526 864 q 319 837 354 864 q 283 769 283 810 q 330 690 283 728 q 508 585 376 651 q 720 440 660 507 q 781 278 781 372 q 682 67 781 149 q 425 -14 583 -14 z "},"T":{"ha":951,"x_min":35,"x_max":917,"o":"m 710 0 l 242 0 l 242 50 l 286 74 q 343 117 328 97 q 358 167 358 136 l 358 857 l 293 857 q 213 834 240 857 q 136 731 185 811 l 85 644 l 35 644 l 51 951 l 900 951 l 917 644 l 867 644 l 815 731 q 739 834 767 811 q 657 857 711 857 l 593 857 l 593 167 q 608 115 593 135 q 665 74 622 96 l 710 50 l 710 0 z "},"U":{"ha":1085,"x_min":51,"x_max":1040,"o":"m 564 -14 q 211 124 304 -14 q 168 252 181 171 q 156 494 156 333 l 156 783 q 144 838 156 819 q 96 876 132 857 l 51 901 l 51 951 l 493 951 l 493 901 l 449 876 q 401 838 413 857 q 389 783 389 819 l 389 442 q 440 180 389 260 q 607 100 490 100 q 777 182 726 100 q 828 460 828 264 l 828 783 q 816 838 828 819 q 768 876 804 857 l 724 901 l 724 951 l 1040 951 l 1040 901 l 996 876 q 949 839 961 857 q 938 783 938 821 l 938 494 q 872 128 938 229 q 564 -14 782 -14 z "},"V":{"ha":1024,"x_min":3,"x_max":1021,"o":"m 585 33 l 471 -14 l 121 781 q 87 847 99 832 q 47 878 75 863 l 3 903 l 3 951 l 458 951 l 458 903 l 414 881 q 368 831 368 857 q 382 781 368 813 l 585 292 l 764 771 q 781 833 781 813 q 735 882 781 864 l 683 903 l 683 951 l 1021 951 l 1021 903 l 964 875 q 886 769 921 856 l 585 33 z "},"W":{"ha":1451,"x_min":3,"x_max":1449,"o":"m 501 29 l 401 -14 l 121 781 q 90 843 106 824 q 47 878 75 863 l 3 903 l 3 951 l 447 951 l 447 903 l 403 881 q 369 858 379 868 q 360 832 360 849 q 371 781 360 817 l 515 344 l 728 925 l 833 951 l 1057 349 l 1200 771 q 1217 833 1217 818 q 1171 882 1217 864 l 1119 903 l 1119 951 l 1449 951 l 1449 903 l 1390 875 q 1315 769 1344 853 l 1051 29 l 961 -14 l 714 621 l 501 29 z "},"X":{"ha":997,"x_min":17,"x_max":981,"o":"m 342 0 l 17 0 l 17 50 l 74 72 q 118 102 100 83 q 167 164 136 121 l 381 465 l 167 781 q 115 852 128 838 q 81 878 101 867 l 36 901 l 36 951 l 490 951 l 490 901 l 446 881 q 413 842 413 865 q 436 789 413 824 l 554 613 l 667 775 q 708 850 708 836 q 674 886 708 872 l 635 901 l 635 951 l 961 951 l 961 901 l 903 879 q 869 859 885 872 q 843 832 854 846 q 810 788 832 818 l 615 522 l 850 171 q 901 101 888 115 q 936 74 914 86 l 981 50 l 981 0 l 526 0 l 526 50 l 571 71 q 606 110 606 89 q 581 163 606 125 l 440 375 l 310 176 q 268 101 268 114 q 303 65 268 76 l 342 50 l 342 0 z "},"Y":{"ha":954,"x_min":3,"x_max":951,"o":"m 717 0 l 247 0 l 247 50 l 292 74 q 350 117 335 97 q 365 167 365 136 l 365 354 l 121 781 q 77 852 89 836 q 47 878 65 868 l 3 901 l 3 951 l 451 951 l 451 901 l 407 881 q 364 839 364 860 q 385 789 364 826 l 551 497 l 694 771 q 717 835 717 814 q 667 882 717 864 l 615 901 l 615 951 l 951 951 l 951 901 l 892 875 q 831 800 867 864 l 600 379 l 600 167 q 615 115 600 135 q 672 74 629 96 l 717 50 l 717 0 z "},"Z":{"ha":897,"x_min":40,"x_max":857,"o":"m 821 0 l 49 0 l 40 94 l 546 857 l 325 857 q 243 834 271 857 q 167 731 215 811 l 115 644 l 67 644 l 82 951 l 813 951 l 822 857 l 311 94 l 578 94 q 661 116 633 94 q 754 232 689 138 l 807 307 l 857 307 l 821 0 z "},"[":{"ha":539,"x_min":117,"x_max":492,"o":"m 492 -250 l 117 -250 l 117 1068 l 492 1068 l 492 979 l 322 979 l 322 -161 l 492 -161 l 492 -250 z "},"\\":{"ha":671,"x_min":53,"x_max":644,"o":"m 644 -194 l 501 -194 l 53 1069 l 194 1069 l 644 -194 z "},"]":{"ha":539,"x_min":47,"x_max":422,"o":"m 422 -250 l 47 -250 l 47 -161 l 217 -161 l 217 979 l 47 979 l 47 1068 l 422 1068 l 422 -250 z "},"^":{"ha":735,"x_min":81,"x_max":654,"o":"m 193 464 l 81 464 l 336 1047 l 400 1047 l 654 464 l 543 464 l 368 858 l 193 464 z "},"_":{"ha":756,"x_min":21,"x_max":735,"o":"m 735 -189 l 21 -189 l 21 -69 l 735 -69 l 735 -189 z "},"`":{"ha":674,"x_min":85,"x_max":435,"o":"m 435 804 l 360 804 l 85 1003 l 85 1050 l 321 1050 l 435 804 z "},"a":{"ha":786,"x_min":40,"x_max":785,"o":"m 260 -14 q 100 38 160 -14 q 40 178 40 90 q 81 293 40 243 q 196 371 122 343 q 444 421 301 411 l 444 449 q 342 621 444 621 q 256 593 283 621 q 197 479 225 563 l 118 479 l 65 615 q 374 714 210 714 q 595 649 525 714 q 665 442 665 583 l 665 208 q 677 163 665 175 q 731 142 689 151 l 775 132 l 785 81 l 533 -14 l 496 -14 l 454 96 q 367 16 419 46 q 260 -14 314 -14 m 350 133 q 444 182 408 133 l 444 344 q 356 326 399 340 q 265 221 265 297 q 290 158 265 183 q 350 133 314 133 z "},"b":{"ha":876,"x_min":15,"x_max":826,"o":"m 421 -14 q 246 26 333 -14 l 153 -3 l 110 24 l 110 761 q 99 833 110 813 q 60 867 89 854 l 15 886 l 15 933 l 288 1042 l 331 1015 l 331 608 q 540 714 425 714 q 745 620 664 714 q 826 381 826 526 q 717 92 826 197 q 421 -14 608 -14 m 439 72 q 547 141 504 72 q 589 319 589 210 q 549 493 589 432 q 435 554 508 554 q 331 504 374 554 l 331 197 q 439 72 338 72 z "},"c":{"ha":738,"x_min":50,"x_max":696,"o":"m 403 -14 q 143 78 236 -14 q 50 336 50 169 q 156 608 50 503 q 422 714 261 714 q 685 636 564 714 l 660 411 l 600 411 q 536 544 568 492 q 484 610 506 593 q 433 626 463 626 q 332 553 374 626 q 290 368 290 479 q 344 186 290 251 q 492 121 397 121 q 649 171 581 121 l 696 110 q 403 -14 586 -14 z "},"d":{"ha":894,"x_min":50,"x_max":885,"o":"m 336 -14 q 128 83 207 -14 q 50 318 50 179 q 159 608 50 503 q 456 714 268 714 q 546 700 494 714 l 546 772 q 535 836 546 818 q 496 867 525 854 l 451 886 l 451 933 l 724 1042 l 767 1015 l 767 208 q 778 163 767 175 q 831 142 790 150 l 876 132 l 885 81 l 635 -14 l 597 -14 l 553 101 q 336 -14 442 -14 m 440 144 q 546 193 497 144 l 546 496 q 514 593 543 560 q 436 626 485 626 q 329 558 371 626 q 288 379 288 489 q 326 206 288 268 q 440 144 365 144 z "},"e":{"ha":775,"x_min":50,"x_max":728,"o":"m 404 -14 q 144 81 238 -14 q 50 344 50 175 q 151 610 50 506 q 407 714 253 714 q 642 628 556 714 q 728 394 728 543 l 728 361 l 290 361 l 290 354 q 348 178 290 239 q 511 118 406 118 q 668 169 583 118 l 717 110 q 404 -14 593 -14 m 293 447 l 507 453 q 481 581 507 536 q 410 626 456 626 q 329 584 357 626 q 293 447 301 542 z "},"f":{"ha":554,"x_min":3,"x_max":628,"o":"m 488 0 l 35 0 l 35 47 l 83 74 q 124 110 114 92 q 135 167 135 129 l 135 594 l 3 594 l 3 679 l 128 703 q 122 785 122 764 q 197 975 122 908 q 413 1042 272 1042 q 628 1011 519 1042 l 607 818 l 560 818 q 417 954 479 954 q 349 817 349 954 q 351 700 349 781 l 517 700 l 517 594 l 356 594 l 356 167 q 372 115 356 135 q 431 74 388 96 l 488 47 l 488 0 z "},"g":{"ha":814,"x_min":40,"x_max":793,"o":"m 339 -347 q 40 -192 40 -347 q 168 -49 40 -122 q 53 78 53 -21 q 54 101 53 94 l 185 264 q 50 467 50 333 q 144 643 50 572 q 378 714 239 714 q 542 688 469 714 l 744 714 l 793 714 l 786 589 l 656 604 q 704 460 704 546 q 613 288 704 354 q 378 221 522 221 q 265 235 315 221 l 240 192 q 251 164 240 175 q 363 144 278 144 l 535 144 q 730 101 671 144 q 789 -42 789 58 q 663 -262 789 -176 q 339 -347 536 -347 m 381 306 q 450 348 425 306 q 475 467 475 390 q 450 586 475 543 q 381 629 425 629 q 308 584 336 629 q 281 467 281 539 q 308 349 281 393 q 381 306 335 306 m 422 -228 q 592 -199 524 -228 q 661 -129 661 -171 q 627 -76 661 -90 q 503 -62 593 -62 l 289 -62 q 280 -62 286 -62 q 265 -62 274 -62 q 246 -62 257 -62 q 221 -136 221 -107 q 422 -228 221 -228 z "},"h":{"ha":928,"x_min":28,"x_max":911,"o":"m 440 0 l 28 0 l 28 47 l 76 74 q 117 110 107 92 q 128 167 128 128 l 128 761 q 117 832 128 811 q 78 865 107 853 l 33 885 l 33 932 l 306 1042 l 349 1014 l 349 589 q 581 714 463 714 q 750 639 689 714 q 811 431 811 564 l 811 167 q 822 110 811 128 q 863 74 832 92 l 911 47 l 911 0 l 499 0 l 499 47 l 547 74 q 582 106 574 89 q 590 167 590 124 l 590 388 q 467 540 590 540 q 349 486 400 540 l 349 167 q 357 106 349 124 q 392 74 365 89 l 440 47 l 440 0 z "},"i":{"ha":476,"x_min":28,"x_max":449,"o":"m 219 797 q 126 835 163 797 q 90 928 90 874 q 127 1022 90 986 q 219 1058 164 1058 q 312 1023 275 1058 q 349 928 349 988 q 313 833 349 869 q 219 797 278 797 m 449 0 l 28 0 l 28 47 l 76 74 q 117 110 107 92 q 128 167 128 128 l 128 433 q 117 507 128 486 q 78 539 107 528 l 33 557 l 33 604 l 306 714 l 349 688 l 349 167 q 359 110 349 128 q 400 74 369 92 l 449 47 l 449 0 z "},"j":{"ha":458,"x_min":15,"x_max":372,"o":"m 239 793 q 144 831 182 793 q 106 926 106 869 q 144 1022 106 983 q 239 1060 182 1060 q 334 1022 296 1060 q 372 926 372 983 q 333 831 372 869 q 239 793 294 793 m 53 -347 l 15 -315 q 107 -131 86 -222 q 128 175 128 -40 l 128 433 q 117 506 128 485 q 78 539 107 526 l 33 558 l 33 604 l 306 714 l 349 688 l 349 131 q 285 -162 349 -58 q 53 -347 221 -265 z "},"k":{"ha":925,"x_min":28,"x_max":922,"o":"m 449 0 l 28 0 l 28 47 l 76 74 q 117 110 107 92 q 128 167 128 128 l 128 761 q 117 833 128 813 q 78 865 107 853 l 33 885 l 33 932 l 306 1042 l 349 1014 l 349 438 l 406 438 q 503 486 458 438 l 561 553 q 589 607 589 583 q 556 636 589 622 l 510 653 l 510 700 l 864 700 l 864 653 l 808 632 q 733 596 757 613 q 671 538 710 579 l 597 457 l 801 140 q 875 71 833 90 l 922 47 l 922 0 l 624 0 l 418 353 l 349 353 l 349 167 q 359 110 349 128 q 400 74 369 92 l 449 47 l 449 0 z "},"l":{"ha":476,"x_min":28,"x_max":449,"o":"m 449 0 l 28 0 l 28 47 l 76 74 q 117 110 107 92 q 128 167 128 128 l 128 761 q 117 833 128 813 q 78 865 107 853 l 33 885 l 33 932 l 306 1042 l 349 1014 l 349 167 q 359 110 349 128 q 400 74 369 92 l 449 47 l 449 0 z "},"m":{"ha":1343,"x_min":28,"x_max":1326,"o":"m 433 0 l 28 0 l 28 47 l 76 74 q 117 110 107 92 q 128 167 128 129 l 128 433 q 117 507 128 486 q 78 539 107 528 l 33 557 l 33 604 l 288 714 l 331 688 l 331 560 q 388 631 363 603 q 461 686 413 658 q 561 714 510 714 q 768 575 714 714 q 997 714 871 714 q 1167 638 1106 714 q 1228 425 1228 561 l 1228 167 q 1238 109 1228 126 q 1279 74 1247 92 l 1326 47 l 1326 0 l 921 0 l 921 47 l 965 72 q 999 105 992 88 q 1007 167 1007 122 l 1007 382 q 896 540 1007 540 q 789 472 839 540 q 792 425 792 444 l 792 167 q 798 101 792 119 q 825 72 804 83 l 869 47 l 869 0 l 486 0 l 486 47 l 531 72 q 563 105 556 88 q 571 167 571 122 l 571 382 q 461 540 571 540 q 349 481 404 540 l 349 167 q 356 105 349 122 q 389 72 364 88 l 433 47 l 433 0 z "},"n":{"ha":928,"x_min":28,"x_max":911,"o":"m 440 0 l 28 0 l 28 47 l 76 74 q 117 110 107 92 q 128 167 128 128 l 128 433 q 118 506 128 485 q 78 539 108 526 l 33 557 l 33 604 l 288 714 l 331 688 l 331 561 q 453 674 388 633 q 581 714 518 714 q 750 638 689 714 q 811 426 811 561 l 811 167 q 822 110 811 128 q 863 74 832 92 l 911 47 l 911 0 l 499 0 l 499 47 l 547 74 q 582 106 574 89 q 590 167 590 124 l 590 383 q 467 540 590 540 q 349 482 404 540 l 349 167 q 357 106 349 124 q 392 74 365 89 l 440 47 l 440 0 z "},"o":{"ha":851,"x_min":50,"x_max":801,"o":"m 426 -14 q 154 86 258 -14 q 50 351 50 186 q 160 608 50 501 q 426 714 271 714 q 698 614 594 714 q 801 349 801 514 q 692 92 801 197 q 426 -14 582 -14 m 326 147 q 344 110 326 147 q 426 74 363 74 q 526 146 490 74 q 561 349 561 218 q 526 553 561 479 q 426 626 490 626 q 326 554 361 626 q 290 351 290 482 q 326 147 290 219 z "},"p":{"ha":894,"x_min":22,"x_max":844,"o":"m 481 -333 l 22 -333 l 22 -286 l 71 -260 q 116 -222 104 -242 q 128 -167 128 -203 l 128 435 q 117 506 128 485 q 78 539 107 526 l 33 558 l 33 606 l 288 714 l 331 688 l 331 585 q 560 714 444 714 q 764 619 683 714 q 844 381 844 525 q 736 91 844 196 q 439 -14 628 -14 q 349 -1 400 -14 l 349 -167 q 365 -219 349 -199 q 425 -260 382 -239 l 481 -286 l 481 -333 m 458 72 q 565 141 524 72 q 607 319 607 210 q 567 494 607 433 q 454 556 528 556 q 349 507 394 556 l 349 203 q 381 107 351 142 q 458 72 410 72 z "},"q":{"ha":876,"x_min":50,"x_max":872,"o":"m 872 -333 l 414 -333 l 414 -286 l 471 -260 q 530 -220 514 -240 q 546 -167 546 -200 l 546 94 q 336 -14 440 -14 q 131 79 211 -14 q 50 318 50 172 q 159 608 50 503 q 456 714 268 714 q 622 672 533 714 l 724 714 l 767 688 l 767 -167 q 778 -222 767 -203 q 824 -260 790 -242 l 872 -286 l 872 -333 m 440 144 q 546 193 500 144 l 546 497 q 514 593 543 558 q 436 628 485 628 q 329 558 371 628 q 288 379 288 489 q 327 206 288 267 q 440 144 367 144 z "},"r":{"ha":660,"x_min":28,"x_max":650,"o":"m 481 0 l 28 0 l 28 47 l 76 74 q 117 110 107 92 q 128 167 128 129 l 128 433 q 117 507 128 486 q 78 539 107 528 l 33 557 l 33 604 l 288 714 l 331 688 l 331 561 q 415 669 361 625 q 519 714 469 714 q 650 661 594 714 l 628 460 l 575 460 q 514 526 539 508 q 456 544 489 544 q 349 482 415 544 l 349 167 q 365 115 349 135 q 425 74 381 96 l 481 47 l 481 0 z "},"s":{"ha":656,"x_min":44,"x_max":611,"o":"m 310 -14 q 44 57 153 -14 l 67 249 l 117 249 l 158 186 q 235 99 199 125 q 322 74 271 74 q 389 93 364 74 q 414 150 414 113 q 379 208 414 179 q 243 279 344 236 q 57 499 57 358 q 131 656 57 597 q 328 714 206 714 q 581 665 476 714 l 561 488 l 508 488 q 442 575 486 522 q 333 626 397 626 q 269 610 292 626 q 246 568 246 594 q 280 506 246 532 q 425 431 314 481 q 569 335 528 385 q 611 218 611 286 q 526 51 611 115 q 310 -14 442 -14 z "},"t":{"ha":544,"x_min":13,"x_max":528,"o":"m 300 -14 q 159 43 199 -14 q 119 249 119 100 l 119 593 l 13 593 l 13 679 l 142 704 l 292 901 l 340 874 l 340 700 l 517 700 l 517 593 l 340 593 l 340 290 q 360 149 340 189 q 431 108 381 108 q 508 124 467 108 l 528 51 q 426 4 489 22 q 300 -14 364 -14 z "},"u":{"ha":913,"x_min":21,"x_max":903,"o":"m 354 -14 q 175 58 236 -14 q 114 268 114 129 l 114 433 q 104 505 114 485 q 65 538 94 525 l 21 557 l 21 604 l 292 714 l 336 686 l 336 311 q 365 184 336 222 q 458 146 393 146 q 563 196 515 146 l 563 433 q 553 505 563 485 q 514 538 543 525 l 469 557 l 469 604 l 742 714 l 785 686 l 785 208 q 797 163 785 175 q 849 142 808 151 l 893 132 l 903 81 l 651 -14 l 614 -14 l 569 101 q 354 -14 481 -14 z "},"v":{"ha":776,"x_min":-24,"x_max":804,"o":"m 469 40 l 338 -14 l 75 551 q 48 598 60 585 q 6 632 36 611 l -24 653 l -24 700 l 406 700 l 406 653 l 369 638 q 324 592 324 619 q 336 547 324 576 l 463 258 l 586 547 q 599 592 599 576 q 553 638 599 619 l 517 653 l 517 700 l 804 700 l 804 653 l 761 625 q 735 606 743 613 q 716 587 726 600 q 697 554 706 574 l 469 40 z "},"w":{"ha":1153,"x_min":-25,"x_max":1182,"o":"m 418 38 l 293 -14 l 74 551 q 50 594 64 579 q 4 632 36 610 l -25 653 l -25 700 l 400 700 l 400 653 l 364 638 q 317 592 317 619 q 325 547 317 572 l 413 281 l 569 668 l 694 700 l 871 279 l 965 547 q 975 592 975 576 q 929 638 975 621 l 893 653 l 893 700 l 1182 700 l 1182 653 l 1139 625 q 1099 593 1110 607 q 1078 554 1088 579 l 883 38 l 763 -14 l 574 410 l 418 38 z "},"x":{"ha":829,"x_min":3,"x_max":826,"o":"m 318 0 l 3 0 l 3 46 l 67 74 q 157 139 126 100 l 310 318 l 139 547 q 97 598 113 583 q 53 632 81 613 l 18 654 l 18 700 l 422 700 l 422 654 l 385 635 q 368 611 368 626 q 376 593 368 603 l 461 479 l 504 531 q 550 608 550 586 q 535 633 550 625 l 497 654 l 497 700 l 810 700 l 810 654 l 746 626 q 654 561 685 599 l 518 401 l 704 154 q 790 68 749 94 l 826 46 l 826 0 l 422 0 l 422 46 l 458 67 q 476 89 476 76 q 468 108 476 97 l 368 240 l 308 169 q 265 94 265 117 q 281 68 265 76 l 318 46 l 318 0 z "},"y":{"ha":781,"x_min":-24,"x_max":804,"o":"m 201 -347 l 38 -225 l 57 -182 q 333 -10 243 -133 l 75 553 q 48 599 60 586 q 6 633 36 613 l -24 654 l -24 700 l 406 700 l 406 654 l 369 639 q 324 593 324 619 q 336 549 324 575 l 463 250 l 586 549 q 599 593 599 575 q 553 639 599 618 l 517 654 l 517 700 l 804 700 l 804 654 l 761 625 q 697 556 715 597 l 488 74 q 346 -192 413 -96 q 201 -347 279 -289 z "},"z":{"ha":722,"x_min":40,"x_max":682,"o":"m 651 0 l 54 0 l 40 90 l 408 610 l 319 610 q 160 522 218 610 l 110 444 l 56 444 l 81 700 l 654 700 l 668 611 l 303 90 l 419 90 q 588 204 514 90 l 632 274 l 682 274 l 651 0 z "},"{":{"ha":574,"x_min":75,"x_max":526,"o":"m 428 -250 q 231 -193 301 -250 q 160 -35 160 -136 q 192 114 160 13 q 221 263 221 207 q 194 331 221 308 q 75 382 167 353 l 75 449 q 194 501 168 479 q 221 569 221 522 q 192 717 221 610 q 160 865 160 833 q 231 1024 160 967 q 428 1081 301 1081 q 526 1074 468 1081 l 526 993 q 406 971 440 993 q 372 892 372 949 q 393 754 372 858 q 415 610 415 639 q 201 415 415 464 q 415 222 415 367 q 393 78 415 174 q 372 -60 372 -11 q 406 -140 372 -117 q 526 -162 440 -162 l 526 -242 q 428 -250 475 -250 z "},"|":{"ha":424,"x_min":149,"x_max":275,"o":"m 275 -186 l 149 -186 l 149 1097 l 275 1097 l 275 -186 z "},"}":{"ha":561,"x_min":35,"x_max":486,"o":"m 133 -250 q 35 -243 93 -250 l 35 -162 q 155 -140 121 -162 q 189 -61 189 -118 q 168 76 189 -28 q 146 221 146 192 q 360 415 146 367 q 146 608 146 464 q 168 753 146 657 q 189 890 189 842 q 155 970 189 947 q 35 993 121 993 l 35 1072 q 133 1081 86 1081 q 331 1024 260 1081 q 401 865 401 967 q 369 717 401 818 q 340 568 340 624 q 367 500 340 522 q 486 449 394 478 l 486 382 q 367 330 393 351 q 340 261 340 308 q 369 114 340 221 q 401 -35 401 -3 q 331 -193 401 -136 q 133 -250 260 -250 z "},"~":{"ha":799,"x_min":81,"x_max":718,"o":"m 533 374 q 397 417 483 374 q 268 458 314 458 q 146 392 208 458 l 81 467 q 267 571 176 571 q 403 529 321 571 q 531 486 485 486 q 653 554 589 486 l 718 479 q 533 374 622 374 z "}," ":{"ha":333,"x_min":0,"x_max":0,"o":""},"¡":{"ha":490,"x_min":103,"x_max":388,"o":"m 244 449 q 150 487 189 449 q 111 582 111 525 q 150 677 111 639 q 244 715 189 715 q 340 677 301 715 q 378 582 378 639 q 340 487 378 525 q 244 449 301 449 m 388 -250 l 103 -250 l 103 -187 l 203 361 l 288 361 l 388 -187 l 388 -250 z "},"¢":{"ha":803,"x_min":64,"x_max":724,"o":"m 521 -140 l 424 -140 l 424 -14 q 158 81 253 -11 q 64 336 64 172 q 165 600 64 496 q 424 713 267 704 l 424 833 l 521 833 l 521 710 q 713 636 619 694 l 688 425 l 628 425 q 574 543 610 483 q 521 607 547 586 l 521 121 q 676 171 608 121 l 724 110 q 521 -6 643 17 l 521 -140 m 424 140 l 424 619 q 334 531 369 599 q 299 368 299 463 q 424 140 299 194 z "},"£":{"ha":806,"x_min":43,"x_max":763,"o":"m 714 0 l 68 0 l 44 136 q 235 357 235 201 q 226 411 235 383 l 43 411 l 43 506 l 178 506 q 137 571 151 544 q 109 638 122 597 q 96 718 96 678 q 185 898 96 831 q 421 965 274 965 q 688 906 576 965 l 711 669 l 660 669 l 622 717 q 516 830 554 801 q 432 858 478 858 q 355 833 381 858 q 329 763 329 807 q 431 506 329 667 l 647 506 l 647 411 l 458 411 q 461 379 461 392 q 313 182 461 265 l 574 182 q 669 235 631 182 l 711 290 l 763 290 l 714 0 z "},"¤":{"ha":874,"x_min":94,"x_max":779,"o":"m 292 224 l 181 110 l 94 194 l 204 308 q 156 461 156 382 q 204 613 156 540 l 94 725 l 182 810 l 292 697 q 436 738 360 738 q 582 696 511 738 l 693 810 l 779 725 l 668 613 q 717 461 717 539 q 668 310 717 382 l 779 194 l 694 110 l 582 224 q 436 182 514 182 q 292 224 358 182 m 438 293 q 548 342 503 293 q 593 461 593 390 q 548 578 593 529 q 438 626 503 626 q 326 578 372 626 q 279 461 279 529 q 325 342 279 392 q 438 293 371 293 z "},"¥":{"ha":885,"x_min":8,"x_max":876,"o":"m 682 0 l 213 0 l 213 50 l 257 74 q 315 117 300 97 q 331 167 331 136 l 331 176 l 68 176 l 68 271 l 331 271 l 331 392 l 68 392 l 68 486 l 268 486 l 126 781 q 89 851 100 836 q 53 878 78 865 l 8 901 l 8 951 l 451 951 l 451 901 l 407 882 q 371 847 371 867 q 390 789 371 832 l 511 517 l 618 771 q 643 846 643 829 q 608 882 643 868 l 557 901 l 557 951 l 876 951 l 876 901 l 817 875 q 756 800 785 861 l 604 486 l 828 486 l 828 392 l 565 392 l 565 271 l 828 271 l 828 176 l 565 176 l 565 167 q 580 115 565 135 q 638 74 594 96 l 682 50 l 682 0 z "},"¦":{"ha":424,"x_min":149,"x_max":275,"o":"m 275 532 l 149 532 l 149 1097 l 275 1097 l 275 532 m 275 -186 l 149 -186 l 149 379 l 275 379 l 275 -186 z "},"§":{"ha":797,"x_min":74,"x_max":724,"o":"m 381 -311 q 249 -290 315 -311 q 138 -236 182 -269 l 138 -12 l 199 -12 l 229 -76 q 300 -187 269 -160 q 383 -215 331 -215 q 460 -186 431 -215 q 490 -110 490 -157 q 456 -32 490 -64 q 306 63 421 0 q 126 192 178 132 q 74 331 74 251 q 119 456 74 400 q 242 542 165 513 q 135 729 135 621 q 214 899 135 832 q 414 965 293 965 q 632 913 533 965 l 651 701 l 583 701 l 553 758 q 404 872 490 872 q 331 849 358 872 q 303 789 303 826 q 335 722 303 750 q 479 631 367 693 q 674 494 625 550 q 724 349 724 438 q 678 220 724 278 q 556 133 632 163 q 647 43 622 86 q 671 -61 671 0 q 587 -238 671 -165 q 381 -311 503 -311 m 472 189 q 526 229 506 200 q 546 294 546 258 q 501 378 546 338 q 333 485 457 418 q 268 449 293 478 q 243 385 243 421 q 288 305 243 343 q 472 189 332 267 z "},"¨":{"ha":674,"x_min":69,"x_max":604,"o":"m 182 825 q 101 858 132 825 q 69 940 69 892 q 102 1019 69 989 q 182 1050 135 1050 q 263 1019 231 1050 q 294 940 294 989 q 264 856 294 888 q 182 825 233 825 m 490 825 q 411 858 442 825 q 381 940 381 892 q 412 1019 381 989 q 490 1050 443 1050 q 572 1019 539 1050 q 604 940 604 989 q 573 856 604 888 q 490 825 542 825 z "},"©":{"ha":1094,"x_min":49,"x_max":1046,"o":"m 547 -14 q 192 129 335 -14 q 49 485 49 272 q 192 840 49 697 q 547 982 335 982 q 903 840 761 982 q 1046 485 1046 699 q 903 129 1046 272 q 547 -14 761 -14 m 253 178 q 313 116 253 178 q 547 54 372 54 q 841 178 722 54 q 960 485 960 301 q 841 791 960 667 q 547 915 722 915 q 253 791 372 915 q 135 485 135 667 q 253 178 135 301 m 565 193 q 342 267 422 193 q 261 471 261 340 q 347 679 261 597 q 565 761 433 761 q 753 721 665 761 l 765 564 l 731 564 q 679 632 719 581 q 567 693 625 693 q 454 633 497 693 q 411 478 411 574 q 456 322 411 381 q 575 263 500 263 q 665 292 626 263 q 739 389 704 322 l 775 389 l 753 247 q 565 193 682 193 z "},"ª":{"ha":576,"x_min":54,"x_max":536,"o":"m 196 486 q 92 520 131 486 q 54 611 54 554 q 81 687 54 651 q 154 740 107 722 q 314 772 214 764 l 314 790 q 296 878 314 853 q 233 904 278 904 q 204 894 214 904 q 156 800 186 878 l 99 800 l 63 897 q 276 965 163 965 q 415 923 372 965 q 458 786 458 881 l 458 632 q 466 603 458 611 q 500 589 474 594 l 528 582 l 535 550 l 372 486 l 347 486 l 321 557 q 196 486 271 486 m 253 582 q 314 613 290 582 l 314 722 q 257 710 278 717 q 200 639 200 690 q 215 599 200 615 q 253 582 231 582 m 536 324 l 54 324 l 54 418 l 536 418 l 536 324 z "},"«":{"ha":785,"x_min":61,"x_max":703,"o":"m 703 75 l 653 49 l 379 326 l 379 361 l 653 639 l 703 611 l 597 343 l 703 75 m 385 75 l 336 49 l 61 326 l 61 361 l 336 639 l 385 611 l 279 343 l 385 75 z "},"¬":{"ha":797,"x_min":81,"x_max":717,"o":"m 717 183 l 597 183 l 597 447 l 81 447 l 81 563 l 717 563 l 717 183 z "},"­":{"ha":563,"x_min":67,"x_max":496,"o":"m 496 356 l 67 356 l 67 489 l 496 489 l 496 356 z "},"®":{"ha":754,"x_min":57,"x_max":699,"o":"m 378 461 q 147 552 238 461 q 57 782 57 643 q 141 1014 57 924 q 378 1104 225 1104 q 608 1013 517 1104 q 699 782 699 922 q 614 551 699 642 q 378 461 529 461 m 378 510 q 567 586 499 510 q 635 782 635 663 q 562 976 635 899 q 378 1054 489 1054 q 188 978 256 1054 q 119 782 119 901 q 192 587 119 664 q 378 510 265 510 m 372 614 l 222 614 l 222 633 l 238 643 q 256 679 256 656 l 256 882 q 238 914 256 897 l 222 926 l 222 944 l 383 944 q 479 919 443 944 q 515 853 515 894 q 438 758 515 788 q 486 701 454 754 q 535 642 519 647 l 553 633 l 553 614 l 450 614 l 381 729 q 357 750 368 750 l 338 750 l 338 679 q 357 643 338 656 l 372 633 l 372 614 m 338 907 l 338 785 l 368 785 q 412 803 396 785 q 428 853 428 822 q 412 892 428 878 q 368 907 396 907 l 338 907 z "},"¯":{"ha":674,"x_min":129,"x_max":544,"o":"m 544 844 l 129 844 l 129 960 l 544 960 l 544 844 z "},"°":{"ha":569,"x_min":54,"x_max":515,"o":"m 449 635 q 416 607 449 635 q 285 579 383 579 q 120 635 186 579 q 54 776 54 692 q 120 917 54 861 q 285 972 186 972 q 449 917 383 972 q 515 776 515 861 q 449 635 515 692 m 285 647 q 357 683 329 647 q 385 776 385 718 q 357 870 385 835 q 285 906 329 906 q 211 870 239 906 q 183 776 183 835 q 211 682 183 717 q 285 647 239 647 z "},"±":{"ha":774,"x_min":81,"x_max":693,"o":"m 440 281 l 333 281 l 333 485 l 81 485 l 81 593 l 333 593 l 333 797 l 440 797 l 440 593 l 693 593 l 693 485 l 440 485 l 440 281 m 693 135 l 81 135 l 81 236 l 693 236 l 693 135 z "},"²":{"ha":511,"x_min":36,"x_max":447,"o":"m 429 417 l 44 417 l 36 458 q 222 686 154 589 q 257 785 257 735 q 235 848 257 824 q 172 872 213 872 q 65 832 129 872 l 38 871 q 229 965 119 965 q 360 922 311 965 q 410 806 410 878 q 387 715 410 750 q 314 633 364 679 q 172 522 257 581 l 324 522 q 383 544 367 522 l 418 588 l 447 588 l 429 417 z "},"³":{"ha":482,"x_min":36,"x_max":419,"o":"m 207 411 q 36 471 107 411 l 61 508 q 175 482 117 482 q 250 508 222 482 q 278 575 278 533 q 139 674 278 674 l 133 718 q 263 817 263 732 q 244 867 263 849 q 192 885 225 885 q 74 836 140 885 l 49 871 q 232 965 129 965 q 356 926 308 965 q 404 825 404 888 q 308 701 404 742 q 390 649 361 683 q 419 571 419 615 q 360 456 419 501 q 207 411 300 411 z "},"´":{"ha":674,"x_min":240,"x_max":590,"o":"m 315 804 l 240 804 l 354 1050 l 590 1050 l 590 1003 l 315 804 z "},"µ":{"ha":899,"x_min":101,"x_max":889,"o":"m 308 -260 l 101 -260 l 101 700 l 322 700 l 322 311 q 351 184 322 222 q 444 146 379 146 q 550 196 500 146 l 550 700 l 771 700 l 771 208 q 783 162 771 175 q 835 140 796 149 l 879 132 l 889 81 l 639 -14 l 601 -14 l 557 101 q 340 -14 467 -14 q 232 6 278 -14 l 308 -215 l 308 -260 z "},"¶":{"ha":878,"x_min":40,"x_max":807,"o":"m 426 -312 l 392 -276 q 468 -122 446 -199 q 498 83 490 -46 q 506 507 506 211 l 506 854 l 396 854 l 396 256 q 146 360 251 256 q 40 608 40 464 q 140 855 40 758 q 396 951 240 951 l 807 951 l 807 904 l 758 881 q 710 842 722 863 q 697 782 697 822 l 697 401 q 688 117 697 224 q 647 -75 678 10 q 565 -211 615 -160 q 426 -312 514 -262 z "},"·":{"ha":472,"x_min":103,"x_max":369,"o":"m 236 347 q 141 385 179 347 q 103 481 103 424 q 141 576 103 538 q 236 614 179 614 q 331 575 292 614 q 369 481 369 536 q 331 386 369 425 q 236 347 292 347 z "},"¸":{"ha":674,"x_min":179,"x_max":461,"o":"m 235 -361 l 210 -329 q 289 -206 289 -260 q 259 -147 289 -169 q 179 -124 229 -125 l 326 32 l 386 32 l 331 -69 q 425 -97 389 -69 q 461 -169 461 -124 q 395 -278 461 -226 q 235 -361 329 -331 z "},"¹":{"ha":456,"x_min":64,"x_max":392,"o":"m 392 417 l 64 417 l 64 447 l 113 469 q 160 526 160 490 l 160 781 q 110 835 160 826 l 64 842 l 64 875 l 274 965 l 294 949 l 294 526 q 343 469 294 492 l 392 447 l 392 417 z "},"º":{"ha":588,"x_min":54,"x_max":533,"o":"m 293 485 q 121 552 188 485 q 54 725 54 619 q 121 899 54 832 q 293 965 188 965 q 467 899 400 965 q 533 725 533 832 q 467 551 533 618 q 293 485 400 485 m 293 547 q 378 725 378 547 q 293 903 378 903 q 210 725 210 903 q 293 547 210 547 m 533 324 l 54 324 l 54 418 l 533 418 l 533 324 z "},"»":{"ha":786,"x_min":82,"x_max":725,"o":"m 725 326 l 450 49 l 400 75 l 507 343 l 400 611 l 450 639 l 725 361 l 725 326 m 407 326 l 132 49 l 82 75 l 189 343 l 82 611 l 132 639 l 407 361 l 407 326 z "},"¼":{"ha":1129,"x_min":64,"x_max":1063,"o":"m 392 417 l 64 417 l 64 447 l 113 469 q 160 526 160 490 l 160 781 q 110 835 160 826 l 64 842 l 64 875 l 274 965 l 294 949 l 294 526 q 343 469 294 492 l 392 447 l 392 417 m 371 0 l 247 0 l 786 951 l 910 951 l 371 0 m 989 -6 l 854 -6 l 854 122 l 603 122 l 594 154 l 860 535 l 989 535 l 989 183 l 1063 183 l 1063 122 l 989 122 l 989 -6 m 854 428 l 688 183 l 854 183 l 854 428 z "},"½":{"ha":1201,"x_min":64,"x_max":1133,"o":"m 392 417 l 64 417 l 64 447 l 113 469 q 160 526 160 490 l 160 781 q 110 835 160 826 l 64 842 l 64 875 l 274 965 l 294 949 l 294 526 q 343 469 294 492 l 392 447 l 392 417 m 371 0 l 247 0 l 786 951 l 910 951 l 371 0 m 1115 0 l 731 0 l 722 42 q 908 269 840 172 q 943 368 943 318 q 921 431 943 407 q 858 456 899 456 q 751 415 815 456 l 724 454 q 915 549 806 549 q 1047 505 997 549 q 1096 389 1096 461 q 1073 298 1096 333 q 1000 217 1050 263 q 858 106 943 164 l 1010 106 q 1069 128 1053 106 l 1104 171 l 1133 171 l 1115 0 z "},"¾":{"ha":1147,"x_min":36,"x_max":1069,"o":"m 207 411 q 36 471 107 411 l 61 508 q 175 482 117 482 q 250 508 222 482 q 278 575 278 533 q 139 674 278 674 l 133 718 q 263 817 263 732 q 244 867 263 849 q 192 885 225 885 q 74 836 140 885 l 49 871 q 232 965 129 965 q 356 926 308 965 q 404 825 404 888 q 308 701 404 742 q 390 649 361 683 q 419 571 419 615 q 360 456 419 501 q 207 411 300 411 m 371 0 l 247 0 l 786 951 l 910 951 l 371 0 m 996 -6 l 861 -6 l 861 122 l 610 122 l 601 154 l 867 535 l 996 535 l 996 183 l 1069 183 l 1069 122 l 996 122 l 996 -6 m 861 428 l 694 183 l 861 183 l 861 428 z "},"¿":{"ha":683,"x_min":61,"x_max":622,"o":"m 477 486 q 458 467 477 486 q 382 447 439 447 q 287 486 325 447 q 249 581 249 525 q 287 675 249 636 q 382 714 325 714 q 477 675 439 714 q 515 581 515 636 q 477 486 515 525 m 374 -265 q 145 -210 229 -265 q 61 -58 61 -154 q 189 156 61 60 q 349 331 349 275 q 343 374 349 340 l 417 374 q 496 244 496 321 q 407 76 496 150 q 297 -79 297 -14 q 323 -141 297 -118 q 389 -164 349 -164 q 446 -145 421 -164 q 517 -65 471 -126 l 553 -18 l 604 -18 l 622 -207 q 374 -265 517 -265 z "},"À":{"ha":1035,"x_min":3,"x_max":1032,"o":"m 614 1025 l 539 1025 l 264 1224 l 264 1271 l 500 1271 l 614 1025 m 338 0 l 3 0 l 3 50 l 61 76 q 138 182 104 97 l 435 929 l 596 965 l 914 171 q 946 106 933 121 q 988 74 958 90 l 1032 50 l 1032 0 l 581 0 l 581 50 l 625 71 q 671 121 671 94 q 657 171 671 136 l 621 263 l 281 263 l 247 179 q 232 118 232 138 q 288 69 232 90 l 338 50 l 338 0 m 447 701 l 317 358 l 583 358 l 447 701 z "},"Á":{"ha":1035,"x_min":3,"x_max":1032,"o":"m 496 1025 l 421 1025 l 535 1271 l 771 1271 l 771 1224 l 496 1025 m 338 0 l 3 0 l 3 50 l 61 76 q 138 182 104 97 l 435 929 l 596 965 l 914 171 q 946 106 933 121 q 988 74 958 90 l 1032 50 l 1032 0 l 581 0 l 581 50 l 625 71 q 671 121 671 94 q 657 171 671 136 l 621 263 l 281 263 l 247 179 q 232 118 232 138 q 288 69 232 90 l 338 50 l 338 0 m 447 701 l 317 358 l 583 358 l 447 701 z "},"Â":{"ha":1035,"x_min":3,"x_max":1032,"o":"m 368 1025 l 311 1025 l 493 1271 l 540 1271 l 722 1025 l 665 1025 l 517 1099 l 368 1025 m 338 0 l 3 0 l 3 50 l 61 76 q 138 182 104 97 l 435 929 l 596 965 l 914 171 q 946 106 933 121 q 988 74 958 90 l 1032 50 l 1032 0 l 581 0 l 581 50 l 625 71 q 671 121 671 94 q 657 171 671 136 l 621 263 l 281 263 l 247 179 q 232 118 232 138 q 288 69 232 90 l 338 50 l 338 0 m 447 701 l 317 358 l 583 358 l 447 701 z "},"Ã":{"ha":1035,"x_min":3,"x_max":1032,"o":"m 340 1035 l 286 1035 q 328 1187 286 1124 q 429 1250 369 1250 q 529 1218 471 1250 q 629 1186 590 1186 q 669 1201 656 1186 q 693 1254 683 1215 l 747 1254 q 707 1104 747 1165 q 607 1043 667 1043 q 497 1076 554 1043 q 413 1110 439 1110 q 340 1035 353 1110 m 338 0 l 3 0 l 3 50 l 61 76 q 138 182 104 97 l 435 929 l 596 965 l 914 171 q 946 106 933 121 q 988 74 958 90 l 1032 50 l 1032 0 l 581 0 l 581 50 l 625 71 q 671 121 671 94 q 657 171 671 136 l 621 263 l 281 263 l 247 179 q 232 118 232 138 q 288 69 232 90 l 338 50 l 338 0 m 447 701 l 317 358 l 583 358 l 447 701 z "},"Ä":{"ha":1035,"x_min":3,"x_max":1032,"o":"m 361 1046 q 281 1079 313 1046 q 250 1161 250 1113 q 283 1240 250 1208 q 361 1271 315 1271 q 442 1240 410 1271 q 475 1161 475 1210 q 444 1077 475 1108 q 361 1046 413 1046 m 671 1046 q 590 1079 621 1046 q 560 1161 560 1113 q 592 1240 560 1210 q 671 1271 624 1271 q 751 1240 719 1271 q 783 1161 783 1210 q 753 1077 783 1108 q 671 1046 722 1046 m 338 0 l 3 0 l 3 50 l 61 76 q 138 182 104 97 l 435 929 l 596 965 l 914 171 q 946 106 933 121 q 988 74 958 90 l 1032 50 l 1032 0 l 581 0 l 581 50 l 625 71 q 671 121 671 94 q 657 171 671 136 l 621 263 l 281 263 l 247 179 q 232 118 232 138 q 288 69 232 90 l 338 50 l 338 0 m 447 701 l 317 358 l 583 358 l 447 701 z "},"Å":{"ha":1035,"x_min":3,"x_max":1032,"o":"m 517 1003 q 392 1041 440 1003 q 343 1140 343 1079 q 390 1240 343 1203 q 515 1278 438 1278 q 640 1240 592 1278 q 688 1140 688 1201 q 641 1040 688 1078 q 517 1003 594 1003 m 517 1060 q 566 1082 547 1060 q 585 1140 585 1104 q 565 1197 585 1174 q 515 1221 544 1221 q 466 1199 485 1221 q 447 1140 447 1176 q 467 1083 447 1107 q 517 1060 488 1060 m 338 0 l 3 0 l 3 50 l 61 76 q 138 182 104 97 l 435 929 l 596 965 l 914 171 q 946 106 933 121 q 988 74 958 90 l 1032 50 l 1032 0 l 581 0 l 581 50 l 625 71 q 671 121 671 94 q 657 171 671 136 l 621 263 l 281 263 l 247 179 q 232 118 232 138 q 288 69 232 90 l 338 50 l 338 0 m 447 701 l 317 358 l 583 358 l 447 701 z "},"Æ":{"ha":1408,"x_min":3,"x_max":1354,"o":"m 338 0 l 3 0 l 3 50 l 61 76 q 106 110 86 89 q 157 182 125 131 l 635 951 l 1315 951 l 1328 703 l 1278 703 l 1233 764 q 1163 838 1193 818 q 1088 857 1133 857 l 869 857 l 869 529 l 1022 529 q 1078 541 1060 529 q 1115 588 1096 553 l 1140 633 l 1190 633 l 1190 303 l 1140 303 l 1117 360 q 1078 419 1099 404 q 1022 435 1058 435 l 869 435 l 869 178 q 887 111 869 128 q 956 94 904 94 l 1092 94 q 1178 113 1150 94 q 1251 194 1206 131 l 1304 269 l 1354 269 l 1321 0 l 531 0 l 531 50 l 575 74 q 623 113 611 94 q 635 167 635 132 l 635 306 l 344 306 l 267 179 q 242 117 242 139 q 288 69 242 88 l 338 50 l 338 0 m 635 781 l 404 401 l 635 401 l 635 781 z "},"Ç":{"ha":997,"x_min":54,"x_max":943,"o":"m 425 -361 l 401 -329 q 479 -206 479 -261 q 449 -147 479 -169 q 371 -124 419 -125 l 481 -7 q 168 144 282 19 q 54 460 54 268 q 195 830 54 694 q 582 965 336 965 q 907 899 756 965 l 928 626 l 876 626 l 797 729 q 692 827 749 790 q 582 864 635 864 q 382 751 461 864 q 303 472 303 639 q 385 201 303 306 q 597 96 467 96 q 890 328 771 96 l 943 328 l 907 78 q 768 12 858 38 q 582 -14 678 -14 l 553 -14 l 521 -69 q 615 -97 579 -69 q 651 -169 651 -124 q 586 -278 651 -226 q 425 -361 521 -331 z "},"È":{"ha":935,"x_min":58,"x_max":881,"o":"m 563 1025 l 488 1025 l 213 1224 l 213 1271 l 449 1271 l 563 1025 m 847 0 l 58 0 l 58 50 l 103 74 q 150 113 139 94 q 161 167 161 131 l 161 785 q 150 840 161 821 q 103 878 139 858 l 58 901 l 58 951 l 842 951 l 856 703 l 804 703 l 760 764 q 690 838 719 819 q 614 857 661 857 l 396 857 l 396 529 l 550 529 q 606 541 588 529 q 643 588 625 553 l 667 633 l 717 633 l 717 303 l 667 303 l 644 360 q 607 419 628 404 q 550 435 586 435 l 396 435 l 396 178 q 413 112 396 129 q 482 94 431 94 l 618 94 q 706 113 676 94 q 779 194 735 131 l 831 269 l 881 269 l 847 0 z "},"É":{"ha":935,"x_min":58,"x_max":881,"o":"m 444 1025 l 369 1025 l 483 1271 l 719 1271 l 719 1224 l 444 1025 m 847 0 l 58 0 l 58 50 l 103 74 q 150 113 139 94 q 161 167 161 131 l 161 785 q 150 840 161 821 q 103 878 139 858 l 58 901 l 58 951 l 842 951 l 856 703 l 804 703 l 760 764 q 690 838 719 819 q 614 857 661 857 l 396 857 l 396 529 l 550 529 q 606 541 588 529 q 643 588 625 553 l 667 633 l 717 633 l 717 303 l 667 303 l 644 360 q 607 419 628 404 q 550 435 586 435 l 396 435 l 396 178 q 413 112 396 129 q 482 94 431 94 l 618 94 q 706 113 676 94 q 779 194 735 131 l 831 269 l 881 269 l 847 0 z "},"Ê":{"ha":935,"x_min":58,"x_max":881,"o":"m 317 1025 l 260 1025 l 442 1271 l 489 1271 l 671 1025 l 614 1025 l 465 1099 l 317 1025 m 847 0 l 58 0 l 58 50 l 103 74 q 150 113 139 94 q 161 167 161 131 l 161 785 q 150 840 161 821 q 103 878 139 858 l 58 901 l 58 951 l 842 951 l 856 703 l 804 703 l 760 764 q 690 838 719 819 q 614 857 661 857 l 396 857 l 396 529 l 550 529 q 606 541 588 529 q 643 588 625 553 l 667 633 l 717 633 l 717 303 l 667 303 l 644 360 q 607 419 628 404 q 550 435 586 435 l 396 435 l 396 178 q 413 112 396 129 q 482 94 431 94 l 618 94 q 706 113 676 94 q 779 194 735 131 l 831 269 l 881 269 l 847 0 z "},"Ë":{"ha":935,"x_min":58,"x_max":881,"o":"m 310 1046 q 230 1079 261 1046 q 199 1161 199 1113 q 231 1240 199 1208 q 310 1271 264 1271 q 391 1240 358 1271 q 424 1161 424 1210 q 392 1077 424 1108 q 310 1046 361 1046 m 619 1046 q 539 1079 569 1046 q 508 1161 508 1113 q 540 1240 508 1210 q 619 1271 572 1271 q 700 1240 668 1271 q 732 1161 732 1210 q 701 1077 732 1108 q 619 1046 671 1046 m 847 0 l 58 0 l 58 50 l 103 74 q 150 113 139 94 q 161 167 161 131 l 161 785 q 150 840 161 821 q 103 878 139 858 l 58 901 l 58 951 l 842 951 l 856 703 l 804 703 l 760 764 q 690 838 719 819 q 614 857 661 857 l 396 857 l 396 529 l 550 529 q 606 541 588 529 q 643 588 625 553 l 667 633 l 717 633 l 717 303 l 667 303 l 644 360 q 607 419 628 404 q 550 435 586 435 l 396 435 l 396 178 q 413 112 396 129 q 482 94 431 94 l 618 94 q 706 113 676 94 q 779 194 735 131 l 831 269 l 881 269 l 847 0 z "},"Ì":{"ha":558,"x_min":26,"x_max":500,"o":"m 376 1025 l 301 1025 l 26 1224 l 26 1271 l 263 1271 l 376 1025 m 500 0 l 58 0 l 58 50 l 103 74 q 150 113 139 94 q 161 167 161 131 l 161 785 q 150 840 161 821 q 103 878 139 858 l 58 901 l 58 951 l 500 951 l 500 901 l 456 878 q 408 840 419 858 q 396 785 396 821 l 396 167 q 408 113 396 132 q 456 74 419 94 l 500 50 l 500 0 z "},"Í":{"ha":558,"x_min":58,"x_max":533,"o":"m 258 1025 l 183 1025 l 297 1271 l 533 1271 l 533 1224 l 258 1025 m 500 0 l 58 0 l 58 50 l 103 74 q 150 113 139 94 q 161 167 161 131 l 161 785 q 150 840 161 821 q 103 878 139 858 l 58 901 l 58 951 l 500 951 l 500 901 l 456 878 q 408 840 419 858 q 396 785 396 821 l 396 167 q 408 113 396 132 q 456 74 419 94 l 500 50 l 500 0 z "},"Î":{"ha":558,"x_min":58,"x_max":500,"o":"m 131 1025 l 74 1025 l 256 1271 l 303 1271 l 485 1025 l 428 1025 l 279 1099 l 131 1025 m 500 0 l 58 0 l 58 50 l 103 74 q 150 113 139 94 q 161 167 161 131 l 161 785 q 150 840 161 821 q 103 878 139 858 l 58 901 l 58 951 l 500 951 l 500 901 l 456 878 q 408 840 419 858 q 396 785 396 821 l 396 167 q 408 113 396 132 q 456 74 419 94 l 500 50 l 500 0 z "},"Ï":{"ha":558,"x_min":13,"x_max":546,"o":"m 124 1046 q 44 1079 75 1046 q 13 1161 13 1113 q 45 1240 13 1208 q 124 1271 78 1271 q 205 1240 172 1271 q 238 1161 238 1210 q 206 1077 238 1108 q 124 1046 175 1046 m 433 1046 q 353 1079 383 1046 q 322 1161 322 1113 q 354 1240 322 1210 q 433 1271 386 1271 q 514 1240 482 1271 q 546 1161 546 1210 q 515 1077 546 1108 q 433 1046 485 1046 m 500 0 l 58 0 l 58 50 l 103 74 q 150 113 139 94 q 161 167 161 131 l 161 785 q 150 840 161 821 q 103 878 139 858 l 58 901 l 58 951 l 500 951 l 500 901 l 456 878 q 408 840 419 858 q 396 785 396 821 l 396 167 q 408 113 396 132 q 456 74 419 94 l 500 50 l 500 0 z "},"Ð":{"ha":1088,"x_min":58,"x_max":1033,"o":"m 536 0 l 58 0 l 58 50 l 103 74 q 150 113 139 94 q 161 167 161 131 l 161 432 l 65 432 l 65 528 l 161 528 l 161 785 q 150 840 161 821 q 103 878 139 858 l 58 901 l 58 951 l 536 951 q 893 824 753 951 q 1033 472 1033 697 q 893 125 1033 250 q 536 0 753 0 m 396 432 l 396 94 l 472 94 q 698 197 611 94 q 785 472 785 299 q 698 753 785 649 q 472 857 611 857 l 396 857 l 396 528 l 610 528 l 610 432 l 396 432 z "},"Ñ":{"ha":1111,"x_min":58,"x_max":1067,"o":"m 392 1035 l 338 1035 q 379 1187 338 1124 q 481 1250 421 1250 q 581 1218 522 1250 q 681 1186 642 1186 q 721 1201 707 1186 q 744 1254 735 1215 l 799 1254 q 758 1104 799 1165 q 658 1043 718 1043 q 549 1076 606 1043 q 464 1110 490 1110 q 392 1035 404 1110 m 964 24 l 865 -21 l 272 697 l 272 167 q 288 111 272 131 q 347 72 303 92 l 400 49 l 400 0 l 58 0 l 58 49 l 104 74 q 150 110 139 92 q 161 167 161 129 l 161 785 q 147 842 161 824 q 101 879 133 861 l 61 901 l 61 951 l 369 951 l 853 361 l 853 783 q 838 839 853 819 q 778 878 822 858 l 725 901 l 725 951 l 1067 951 l 1067 901 l 1021 876 q 975 839 986 857 q 964 783 964 821 l 964 24 z "},"Ò":{"ha":1083,"x_min":54,"x_max":1029,"o":"m 639 1025 l 564 1025 l 289 1224 l 289 1271 l 525 1271 l 639 1025 m 542 -14 q 183 115 311 -14 q 54 476 54 244 q 195 824 54 683 q 542 964 336 964 q 901 835 772 964 q 1029 476 1029 707 q 890 126 1029 265 q 542 -14 751 -14 m 370 197 q 404 142 370 197 q 542 88 438 88 q 713 197 646 88 q 781 475 781 307 q 713 753 781 643 q 542 863 646 863 q 370 753 438 863 q 303 475 303 643 q 370 197 303 307 z "},"Ó":{"ha":1083,"x_min":54,"x_max":1029,"o":"m 521 1025 l 446 1025 l 560 1271 l 796 1271 l 796 1224 l 521 1025 m 542 -14 q 183 115 311 -14 q 54 476 54 244 q 195 824 54 683 q 542 964 336 964 q 901 835 772 964 q 1029 476 1029 707 q 890 126 1029 265 q 542 -14 751 -14 m 370 197 q 404 142 370 197 q 542 88 438 88 q 713 197 646 88 q 781 475 781 307 q 713 753 781 643 q 542 863 646 863 q 370 753 438 863 q 303 475 303 643 q 370 197 303 307 z "},"Ô":{"ha":1083,"x_min":54,"x_max":1029,"o":"m 393 1025 l 336 1025 l 518 1271 l 565 1271 l 747 1025 l 690 1025 l 542 1099 l 393 1025 m 542 -14 q 183 115 311 -14 q 54 476 54 244 q 195 824 54 683 q 542 964 336 964 q 901 835 772 964 q 1029 476 1029 707 q 890 126 1029 265 q 542 -14 751 -14 m 370 197 q 404 142 370 197 q 542 88 438 88 q 713 197 646 88 q 781 475 781 307 q 713 753 781 643 q 542 863 646 863 q 370 753 438 863 q 303 475 303 643 q 370 197 303 307 z "},"Õ":{"ha":1083,"x_min":54,"x_max":1029,"o":"m 365 1035 l 311 1035 q 353 1187 311 1124 q 454 1250 394 1250 q 554 1218 496 1250 q 654 1186 615 1186 q 694 1201 681 1186 q 718 1254 708 1215 l 772 1254 q 732 1104 772 1165 q 632 1043 692 1043 q 522 1076 579 1043 q 438 1110 464 1110 q 365 1035 378 1110 m 542 -14 q 183 115 311 -14 q 54 476 54 244 q 195 824 54 683 q 542 964 336 964 q 901 835 772 964 q 1029 476 1029 707 q 890 126 1029 265 q 542 -14 751 -14 m 370 197 q 404 142 370 197 q 542 88 438 88 q 713 197 646 88 q 781 475 781 307 q 713 753 781 643 q 542 863 646 863 q 370 753 438 863 q 303 475 303 643 q 370 197 303 307 z "},"Ö":{"ha":1083,"x_min":54,"x_max":1029,"o":"m 386 1046 q 306 1079 338 1046 q 275 1161 275 1113 q 308 1240 275 1208 q 386 1271 340 1271 q 467 1240 435 1271 q 500 1161 500 1210 q 469 1077 500 1108 q 386 1046 438 1046 m 696 1046 q 615 1079 646 1046 q 585 1161 585 1113 q 617 1240 585 1210 q 696 1271 649 1271 q 776 1240 744 1271 q 808 1161 808 1210 q 778 1077 808 1108 q 696 1046 747 1046 m 542 -14 q 183 115 311 -14 q 54 476 54 244 q 195 824 54 683 q 542 964 336 964 q 901 835 772 964 q 1029 476 1029 707 q 890 126 1029 265 q 542 -14 751 -14 m 370 197 q 404 142 370 197 q 542 88 438 88 q 713 197 646 88 q 781 475 781 307 q 713 753 781 643 q 542 863 646 863 q 370 753 438 863 q 303 475 303 643 q 370 197 303 307 z "},"×":{"ha":703,"x_min":81,"x_max":622,"o":"m 351 388 l 161 197 l 81 278 l 271 468 l 81 657 l 161 738 l 351 547 l 542 738 l 622 657 l 432 468 l 622 278 l 542 197 l 351 388 z "},"Ø":{"ha":1083,"x_min":54,"x_max":1029,"o":"m 188 -19 l 69 -19 l 182 115 q 54 476 54 243 q 195 824 54 683 q 542 964 336 964 q 833 889 715 964 l 897 964 l 1015 964 l 904 832 q 1029 476 1029 703 q 890 126 1029 265 q 542 -14 751 -14 q 253 58 369 -14 l 188 -19 m 329 289 l 717 749 q 542 863 647 863 q 370 753 438 863 q 303 475 303 643 q 329 289 303 375 m 369 197 q 542 88 438 88 q 713 197 646 88 q 781 475 781 307 q 756 656 781 576 l 369 197 z "},"Ù":{"ha":1085,"x_min":51,"x_max":1040,"o":"m 701 1025 l 626 1025 l 351 1224 l 351 1271 l 588 1271 l 701 1025 m 564 -14 q 211 124 304 -14 q 168 252 181 171 q 156 494 156 333 l 156 783 q 144 838 156 819 q 96 876 132 857 l 51 901 l 51 951 l 493 951 l 493 901 l 449 876 q 401 838 413 857 q 389 783 389 819 l 389 442 q 440 180 389 260 q 607 100 490 100 q 777 182 726 100 q 828 460 828 264 l 828 783 q 816 838 828 819 q 768 876 804 857 l 724 901 l 724 951 l 1040 951 l 1040 901 l 996 876 q 949 839 961 857 q 938 783 938 821 l 938 494 q 872 128 938 229 q 564 -14 782 -14 z "},"Ú":{"ha":1085,"x_min":51,"x_max":1040,"o":"m 583 1025 l 508 1025 l 622 1271 l 858 1271 l 858 1224 l 583 1025 m 564 -14 q 211 124 304 -14 q 168 252 181 171 q 156 494 156 333 l 156 783 q 144 838 156 819 q 96 876 132 857 l 51 901 l 51 951 l 493 951 l 493 901 l 449 876 q 401 838 413 857 q 389 783 389 819 l 389 442 q 440 180 389 260 q 607 100 490 100 q 777 182 726 100 q 828 460 828 264 l 828 783 q 816 838 828 819 q 768 876 804 857 l 724 901 l 724 951 l 1040 951 l 1040 901 l 996 876 q 949 839 961 857 q 938 783 938 821 l 938 494 q 872 128 938 229 q 564 -14 782 -14 z "},"Û":{"ha":1085,"x_min":51,"x_max":1040,"o":"m 456 1025 l 399 1025 l 581 1271 l 628 1271 l 810 1025 l 753 1025 l 604 1099 l 456 1025 m 564 -14 q 211 124 304 -14 q 168 252 181 171 q 156 494 156 333 l 156 783 q 144 838 156 819 q 96 876 132 857 l 51 901 l 51 951 l 493 951 l 493 901 l 449 876 q 401 838 413 857 q 389 783 389 819 l 389 442 q 440 180 389 260 q 607 100 490 100 q 777 182 726 100 q 828 460 828 264 l 828 783 q 816 838 828 819 q 768 876 804 857 l 724 901 l 724 951 l 1040 951 l 1040 901 l 996 876 q 949 839 961 857 q 938 783 938 821 l 938 494 q 872 128 938 229 q 564 -14 782 -14 z "},"Ü":{"ha":1085,"x_min":51,"x_max":1040,"o":"m 449 1046 q 369 1079 400 1046 q 338 1161 338 1113 q 370 1240 338 1208 q 449 1271 403 1271 q 530 1240 497 1271 q 563 1161 563 1210 q 531 1077 563 1108 q 449 1046 500 1046 m 758 1046 q 678 1079 708 1046 q 647 1161 647 1113 q 679 1240 647 1210 q 758 1271 711 1271 q 839 1240 807 1271 q 871 1161 871 1210 q 840 1077 871 1108 q 758 1046 810 1046 m 564 -14 q 211 124 304 -14 q 168 252 181 171 q 156 494 156 333 l 156 783 q 144 838 156 819 q 96 876 132 857 l 51 901 l 51 951 l 493 951 l 493 901 l 449 876 q 401 838 413 857 q 389 783 389 819 l 389 442 q 440 180 389 260 q 607 100 490 100 q 777 182 726 100 q 828 460 828 264 l 828 783 q 816 838 828 819 q 768 876 804 857 l 724 901 l 724 951 l 1040 951 l 1040 901 l 996 876 q 949 839 961 857 q 938 783 938 821 l 938 494 q 872 128 938 229 q 564 -14 782 -14 z "},"Ý":{"ha":954,"x_min":3,"x_max":951,"o":"m 515 1025 l 440 1025 l 554 1271 l 790 1271 l 790 1224 l 515 1025 m 717 0 l 247 0 l 247 50 l 292 74 q 350 117 335 97 q 365 167 365 136 l 365 354 l 121 781 q 77 852 89 836 q 47 878 65 868 l 3 901 l 3 951 l 451 951 l 451 901 l 407 881 q 364 839 364 860 q 385 789 364 826 l 551 497 l 694 771 q 717 835 717 814 q 667 882 717 864 l 615 901 l 615 951 l 951 951 l 951 901 l 892 875 q 831 800 867 864 l 600 379 l 600 167 q 615 115 600 135 q 672 74 629 96 l 717 50 l 717 0 z "},"Þ":{"ha":947,"x_min":58,"x_max":907,"o":"m 500 0 l 58 0 l 58 50 l 103 74 q 150 113 139 94 q 161 167 161 131 l 161 785 q 150 840 161 821 q 103 878 139 858 l 58 901 l 58 951 l 500 951 l 500 901 l 456 878 q 408 840 419 858 q 396 785 396 821 l 396 769 l 519 769 q 803 695 700 769 q 907 488 907 621 q 802 267 907 343 q 519 190 697 190 l 396 190 l 396 167 q 408 113 396 132 q 456 74 419 94 l 500 50 l 500 0 m 396 675 l 396 285 l 479 285 q 609 339 561 285 q 657 486 657 393 q 610 625 657 575 q 479 675 563 675 l 396 675 z "},"ß":{"ha":978,"x_min":3,"x_max":954,"o":"m 675 -14 q 428 57 531 -14 l 449 246 l 496 246 l 532 175 q 596 96 561 118 q 686 74 631 74 q 747 97 724 74 q 771 157 771 119 q 737 226 771 194 q 611 310 703 258 q 494 400 529 356 q 460 519 460 444 q 536 693 460 588 q 613 853 613 794 q 581 921 613 893 q 501 949 550 949 q 356 779 356 949 l 356 0 l 35 0 l 35 47 l 83 74 q 124 109 114 90 q 135 167 135 128 l 135 593 l 3 593 l 3 678 l 128 703 q 122 783 122 764 q 215 977 122 913 q 485 1042 308 1042 q 742 995 653 1042 q 831 864 831 949 q 721 722 831 792 q 639 661 668 689 q 610 603 610 633 q 640 546 610 571 q 781 460 669 521 q 909 351 864 414 q 954 218 954 289 q 876 51 954 115 q 675 -14 797 -14 z "},"à":{"ha":786,"x_min":40,"x_max":785,"o":"m 467 804 l 392 804 l 117 1003 l 117 1050 l 353 1050 l 467 804 m 260 -14 q 100 38 160 -14 q 40 178 40 90 q 81 293 40 243 q 196 371 122 343 q 444 421 301 411 l 444 449 q 342 621 444 621 q 256 593 283 621 q 197 479 225 563 l 118 479 l 65 615 q 374 714 210 714 q 595 649 525 714 q 665 442 665 583 l 665 208 q 677 163 665 175 q 731 142 689 151 l 775 132 l 785 81 l 533 -14 l 496 -14 l 454 96 q 367 16 419 46 q 260 -14 314 -14 m 350 133 q 444 182 408 133 l 444 344 q 356 326 399 340 q 265 221 265 297 q 290 158 265 183 q 350 133 314 133 z "},"á":{"ha":786,"x_min":40,"x_max":785,"o":"m 349 804 l 274 804 l 388 1050 l 624 1050 l 624 1003 l 349 804 m 260 -14 q 100 38 160 -14 q 40 178 40 90 q 81 293 40 243 q 196 371 122 343 q 444 421 301 411 l 444 449 q 342 621 444 621 q 256 593 283 621 q 197 479 225 563 l 118 479 l 65 615 q 374 714 210 714 q 595 649 525 714 q 665 442 665 583 l 665 208 q 677 163 665 175 q 731 142 689 151 l 775 132 l 785 81 l 533 -14 l 496 -14 l 454 96 q 367 16 419 46 q 260 -14 314 -14 m 350 133 q 444 182 408 133 l 444 344 q 356 326 399 340 q 265 221 265 297 q 290 158 265 183 q 350 133 314 133 z "},"â":{"ha":786,"x_min":40,"x_max":785,"o":"m 221 804 l 164 804 l 346 1050 l 393 1050 l 575 804 l 518 804 l 369 878 l 221 804 m 260 -14 q 100 38 160 -14 q 40 178 40 90 q 81 293 40 243 q 196 371 122 343 q 444 421 301 411 l 444 449 q 342 621 444 621 q 256 593 283 621 q 197 479 225 563 l 118 479 l 65 615 q 374 714 210 714 q 595 649 525 714 q 665 442 665 583 l 665 208 q 677 163 665 175 q 731 142 689 151 l 775 132 l 785 81 l 533 -14 l 496 -14 l 454 96 q 367 16 419 46 q 260 -14 314 -14 m 350 133 q 444 182 408 133 l 444 344 q 356 326 399 340 q 265 221 265 297 q 290 158 265 183 q 350 133 314 133 z "},"ã":{"ha":786,"x_min":40,"x_max":785,"o":"m 193 814 l 139 814 q 181 966 139 903 q 282 1029 222 1029 q 382 997 324 1029 q 482 965 443 965 q 522 980 508 965 q 546 1033 536 994 l 600 1033 q 560 883 600 944 q 460 822 519 822 q 350 856 407 822 q 265 889 292 889 q 193 814 206 889 m 260 -14 q 100 38 160 -14 q 40 178 40 90 q 81 293 40 243 q 196 371 122 343 q 444 421 301 411 l 444 449 q 342 621 444 621 q 256 593 283 621 q 197 479 225 563 l 118 479 l 65 615 q 374 714 210 714 q 595 649 525 714 q 665 442 665 583 l 665 208 q 677 163 665 175 q 731 142 689 151 l 775 132 l 785 81 l 533 -14 l 496 -14 l 454 96 q 367 16 419 46 q 260 -14 314 -14 m 350 133 q 444 182 408 133 l 444 344 q 356 326 399 340 q 265 221 265 297 q 290 158 265 183 q 350 133 314 133 z "},"ä":{"ha":786,"x_min":40,"x_max":785,"o":"m 214 825 q 134 858 165 825 q 103 940 103 892 q 135 1019 103 988 q 214 1050 168 1050 q 295 1019 263 1050 q 328 940 328 989 q 297 856 328 888 q 214 825 265 825 m 524 825 q 443 858 474 825 q 413 940 413 892 q 444 1019 413 989 q 524 1050 476 1050 q 604 1019 572 1050 q 636 940 636 989 q 606 856 636 888 q 524 825 575 825 m 260 -14 q 100 38 160 -14 q 40 178 40 90 q 81 293 40 243 q 196 371 122 343 q 444 421 301 411 l 444 449 q 342 621 444 621 q 256 593 283 621 q 197 479 225 563 l 118 479 l 65 615 q 374 714 210 714 q 595 649 525 714 q 665 442 665 583 l 665 208 q 677 163 665 175 q 731 142 689 151 l 775 132 l 785 81 l 533 -14 l 496 -14 l 454 96 q 367 16 419 46 q 260 -14 314 -14 m 350 133 q 444 182 408 133 l 444 344 q 356 326 399 340 q 265 221 265 297 q 290 158 265 183 q 350 133 314 133 z "},"å":{"ha":786,"x_min":40,"x_max":785,"o":"m 369 782 q 244 820 293 782 q 196 919 196 858 q 243 1019 196 982 q 368 1057 290 1057 q 492 1019 444 1057 q 540 919 540 981 q 494 819 540 857 q 369 782 447 782 m 369 839 q 419 861 400 839 q 438 919 438 883 q 417 976 438 953 q 368 1000 397 1000 q 319 978 338 1000 q 300 919 300 956 q 320 863 300 886 q 369 839 340 839 m 260 -14 q 100 38 160 -14 q 40 178 40 90 q 81 293 40 243 q 196 371 122 343 q 444 421 301 411 l 444 449 q 342 621 444 621 q 256 593 283 621 q 197 479 225 563 l 118 479 l 65 615 q 374 714 210 714 q 595 649 525 714 q 665 442 665 583 l 665 208 q 677 163 665 175 q 731 142 689 151 l 775 132 l 785 81 l 533 -14 l 496 -14 l 454 96 q 367 16 419 46 q 260 -14 314 -14 m 350 133 q 444 182 408 133 l 444 344 q 356 326 399 340 q 265 221 265 297 q 290 158 265 183 q 350 133 314 133 z "},"æ":{"ha":1165,"x_min":40,"x_max":1118,"o":"m 260 -14 q 100 38 160 -14 q 40 178 40 90 q 81 293 40 243 q 196 371 122 343 q 444 421 296 408 l 444 449 q 342 621 444 621 q 253 581 286 621 q 197 479 222 544 l 118 479 l 65 615 q 374 714 210 714 q 592 649 522 714 q 797 714 683 714 q 1032 628 946 714 q 1118 394 1118 543 l 1118 361 l 681 361 l 681 354 q 738 178 681 239 q 901 118 796 118 q 1058 169 975 118 l 1107 110 q 794 -14 983 -14 q 496 139 585 -14 q 396 28 460 69 q 260 -14 332 -14 m 685 447 l 897 453 q 872 581 897 536 q 800 626 846 626 q 721 584 749 626 q 685 447 693 542 m 350 133 q 464 213 428 133 q 444 333 444 278 l 444 344 q 356 326 386 339 q 265 221 265 290 q 290 158 265 183 q 350 133 314 133 z "},"ç":{"ha":738,"x_min":50,"x_max":696,"o":"m 282 -361 l 258 -329 q 336 -206 336 -261 q 306 -147 336 -169 q 228 -124 276 -125 l 335 -10 q 124 98 199 8 q 50 336 50 188 q 156 608 50 503 q 422 714 261 714 q 685 636 564 714 l 660 411 l 600 411 q 536 544 568 492 q 484 610 506 593 q 433 626 463 626 q 332 553 374 626 q 290 368 290 479 q 344 186 290 251 q 492 121 397 121 q 649 171 581 121 l 696 110 q 408 -14 586 -14 l 378 -69 q 472 -97 436 -69 q 508 -169 508 -124 q 443 -278 508 -226 q 282 -361 378 -331 z "},"è":{"ha":775,"x_min":50,"x_max":728,"o":"m 503 804 l 428 804 l 153 1003 l 153 1050 l 389 1050 l 503 804 m 404 -14 q 144 81 238 -14 q 50 344 50 175 q 151 610 50 506 q 407 714 253 714 q 642 628 556 714 q 728 394 728 543 l 728 361 l 290 361 l 290 354 q 348 178 290 239 q 511 118 406 118 q 668 169 583 118 l 717 110 q 404 -14 593 -14 m 293 447 l 507 453 q 481 581 507 536 q 410 626 456 626 q 329 584 357 626 q 293 447 301 542 z "},"é":{"ha":775,"x_min":50,"x_max":728,"o":"m 385 804 l 310 804 l 424 1050 l 660 1050 l 660 1003 l 385 804 m 404 -14 q 144 81 238 -14 q 50 344 50 175 q 151 610 50 506 q 407 714 253 714 q 642 628 556 714 q 728 394 728 543 l 728 361 l 290 361 l 290 354 q 348 178 290 239 q 511 118 406 118 q 668 169 583 118 l 717 110 q 404 -14 593 -14 m 293 447 l 507 453 q 481 581 507 536 q 410 626 456 626 q 329 584 357 626 q 293 447 301 542 z "},"ê":{"ha":775,"x_min":50,"x_max":728,"o":"m 257 804 l 200 804 l 382 1050 l 429 1050 l 611 804 l 554 804 l 406 878 l 257 804 m 404 -14 q 144 81 238 -14 q 50 344 50 175 q 151 610 50 506 q 407 714 253 714 q 642 628 556 714 q 728 394 728 543 l 728 361 l 290 361 l 290 354 q 348 178 290 239 q 511 118 406 118 q 668 169 583 118 l 717 110 q 404 -14 593 -14 m 293 447 l 507 453 q 481 581 507 536 q 410 626 456 626 q 329 584 357 626 q 293 447 301 542 z "},"ë":{"ha":775,"x_min":50,"x_max":728,"o":"m 250 825 q 170 858 201 825 q 139 940 139 892 q 172 1019 139 988 q 250 1050 204 1050 q 331 1019 299 1050 q 364 940 364 989 q 333 856 364 888 q 250 825 301 825 m 560 825 q 479 858 510 825 q 449 940 449 892 q 481 1019 449 989 q 560 1050 513 1050 q 640 1019 608 1050 q 672 940 672 989 q 642 856 672 888 q 560 825 611 825 m 404 -14 q 144 81 238 -14 q 50 344 50 175 q 151 610 50 506 q 407 714 253 714 q 642 628 556 714 q 728 394 728 543 l 728 361 l 290 361 l 290 354 q 348 178 290 239 q 511 118 406 118 q 668 169 583 118 l 717 110 q 404 -14 593 -14 m 293 447 l 507 453 q 481 581 507 536 q 410 626 456 626 q 329 584 357 626 q 293 447 301 542 z "},"ì":{"ha":476,"x_min":-33,"x_max":449,"o":"m 317 782 l 242 782 l -33 981 l -33 1028 l 203 1028 l 317 782 m 449 0 l 28 0 l 28 47 l 76 74 q 117 110 107 92 q 128 167 128 128 l 128 433 q 117 507 128 486 q 78 539 107 528 l 33 557 l 33 604 l 306 714 l 349 688 l 349 167 q 359 110 349 128 q 400 74 369 92 l 449 47 l 449 0 z "},"í":{"ha":476,"x_min":28,"x_max":474,"o":"m 199 782 l 124 782 l 238 1028 l 474 1028 l 474 981 l 199 782 m 449 0 l 28 0 l 28 47 l 76 74 q 117 110 107 92 q 128 167 128 128 l 128 433 q 117 507 128 486 q 78 539 107 528 l 33 557 l 33 604 l 306 714 l 349 688 l 349 167 q 359 110 349 128 q 400 74 369 92 l 449 47 l 449 0 z "},"î":{"ha":476,"x_min":14,"x_max":449,"o":"m 71 782 l 14 782 l 196 1028 l 243 1028 l 425 782 l 368 782 l 219 856 l 71 782 m 449 0 l 28 0 l 28 47 l 76 74 q 117 110 107 92 q 128 167 128 128 l 128 433 q 117 507 128 486 q 78 539 107 528 l 33 557 l 33 604 l 306 714 l 349 688 l 349 167 q 359 110 349 128 q 400 74 369 92 l 449 47 l 449 0 z "},"ï":{"ha":476,"x_min":-47,"x_max":486,"o":"m 64 803 q -16 836 15 803 q -47 918 -47 869 q -15 997 -47 965 q 64 1028 18 1028 q 145 997 113 1028 q 178 918 178 967 q 147 834 178 865 q 64 803 115 803 m 374 803 q 293 836 324 803 q 263 918 263 869 q 294 997 263 967 q 374 1028 326 1028 q 454 997 422 1028 q 486 918 486 967 q 456 834 486 865 q 374 803 425 803 m 449 0 l 28 0 l 28 47 l 76 74 q 117 110 107 92 q 128 167 128 128 l 128 433 q 117 507 128 486 q 78 539 107 528 l 33 557 l 33 604 l 306 714 l 349 688 l 349 167 q 359 110 349 128 q 400 74 369 92 l 449 47 l 449 0 z "},"ð":{"ha":856,"x_min":50,"x_max":806,"o":"m 426 -14 q 153 85 257 -14 q 50 347 50 183 q 160 601 50 497 q 426 706 271 706 q 529 688 478 706 q 439 836 490 781 l 247 750 l 247 835 l 374 892 q 168 950 283 950 l 179 1031 q 297 1042 243 1042 q 536 964 422 1042 l 708 1040 l 708 956 l 603 908 q 751 685 696 817 q 806 419 806 553 q 697 99 806 213 q 426 -14 589 -14 m 426 74 q 526 144 490 74 q 561 344 561 214 q 526 547 561 475 q 426 618 490 618 q 326 548 361 618 q 290 347 290 478 q 326 145 290 217 q 426 74 361 74 z "},"ñ":{"ha":928,"x_min":28,"x_max":911,"o":"m 290 814 l 236 814 q 278 966 236 903 q 379 1029 319 1029 q 479 997 421 1029 q 579 965 540 965 q 619 980 606 965 q 643 1033 633 994 l 697 1033 q 657 883 697 944 q 557 822 617 822 q 447 856 504 822 q 363 889 389 889 q 290 814 303 889 m 440 0 l 28 0 l 28 47 l 76 74 q 117 110 107 92 q 128 167 128 128 l 128 433 q 118 506 128 485 q 78 539 108 526 l 33 557 l 33 604 l 288 714 l 331 688 l 331 561 q 453 674 388 633 q 581 714 518 714 q 750 638 689 714 q 811 426 811 561 l 811 167 q 822 110 811 128 q 863 74 832 92 l 911 47 l 911 0 l 499 0 l 499 47 l 547 74 q 582 106 574 89 q 590 167 590 124 l 590 383 q 467 540 590 540 q 349 482 404 540 l 349 167 q 357 106 349 124 q 392 74 365 89 l 440 47 l 440 0 z "},"ò":{"ha":851,"x_min":50,"x_max":801,"o":"m 524 804 l 449 804 l 174 1003 l 174 1050 l 410 1050 l 524 804 m 426 -14 q 154 86 258 -14 q 50 351 50 186 q 160 608 50 501 q 426 714 271 714 q 698 614 594 714 q 801 349 801 514 q 692 92 801 197 q 426 -14 582 -14 m 326 147 q 344 110 326 147 q 426 74 363 74 q 526 146 490 74 q 561 349 561 218 q 526 553 561 479 q 426 626 490 626 q 326 554 361 626 q 290 351 290 482 q 326 147 290 219 z "},"ó":{"ha":851,"x_min":50,"x_max":801,"o":"m 406 804 l 331 804 l 444 1050 l 681 1050 l 681 1003 l 406 804 m 426 -14 q 154 86 258 -14 q 50 351 50 186 q 160 608 50 501 q 426 714 271 714 q 698 614 594 714 q 801 349 801 514 q 692 92 801 197 q 426 -14 582 -14 m 326 147 q 344 110 326 147 q 426 74 363 74 q 526 146 490 74 q 561 349 561 218 q 526 553 561 479 q 426 626 490 626 q 326 554 361 626 q 290 351 290 482 q 326 147 290 219 z "},"ô":{"ha":851,"x_min":50,"x_max":801,"o":"m 278 804 l 221 804 l 403 1050 l 450 1050 l 632 804 l 575 804 l 426 878 l 278 804 m 426 -14 q 154 86 258 -14 q 50 351 50 186 q 160 608 50 501 q 426 714 271 714 q 698 614 594 714 q 801 349 801 514 q 692 92 801 197 q 426 -14 582 -14 m 326 147 q 344 110 326 147 q 426 74 363 74 q 526 146 490 74 q 561 349 561 218 q 526 553 561 479 q 426 626 490 626 q 326 554 361 626 q 290 351 290 482 q 326 147 290 219 z "},"õ":{"ha":851,"x_min":50,"x_max":801,"o":"m 250 814 l 196 814 q 238 966 196 903 q 339 1029 279 1029 q 439 997 381 1029 q 539 965 500 965 q 579 980 565 965 q 603 1033 593 994 l 657 1033 q 617 883 657 944 q 517 822 576 822 q 407 856 464 822 q 322 889 349 889 q 250 814 263 889 m 426 -14 q 154 86 258 -14 q 50 351 50 186 q 160 608 50 501 q 426 714 271 714 q 698 614 594 714 q 801 349 801 514 q 692 92 801 197 q 426 -14 582 -14 m 326 147 q 344 110 326 147 q 426 74 363 74 q 526 146 490 74 q 561 349 561 218 q 526 553 561 479 q 426 626 490 626 q 326 554 361 626 q 290 351 290 482 q 326 147 290 219 z "},"ö":{"ha":851,"x_min":50,"x_max":801,"o":"m 271 825 q 191 858 222 825 q 160 940 160 892 q 192 1019 160 988 q 271 1050 225 1050 q 352 1019 319 1050 q 385 940 385 989 q 353 856 385 888 q 271 825 322 825 m 581 825 q 500 858 531 825 q 469 940 469 892 q 501 1019 469 989 q 581 1050 533 1050 q 661 1019 629 1050 q 693 940 693 989 q 663 856 693 888 q 581 825 632 825 m 426 -14 q 154 86 258 -14 q 50 351 50 186 q 160 608 50 501 q 426 714 271 714 q 698 614 594 714 q 801 349 801 514 q 692 92 801 197 q 426 -14 582 -14 m 326 147 q 344 110 326 147 q 426 74 363 74 q 526 146 490 74 q 561 349 561 218 q 526 553 561 479 q 426 626 490 626 q 326 554 361 626 q 290 351 290 482 q 326 147 290 219 z "},"÷":{"ha":783,"x_min":81,"x_max":703,"o":"m 470 620 q 456 606 470 620 q 399 592 442 592 q 326 620 356 592 q 297 692 297 649 q 326 763 297 735 q 399 792 356 792 q 470 763 442 792 q 499 692 499 735 q 470 620 499 649 m 703 408 l 81 408 l 81 525 l 703 525 l 703 408 m 470 172 q 456 157 470 172 q 399 143 442 143 q 326 172 356 143 q 297 243 297 200 q 326 315 297 286 q 399 343 356 343 q 470 315 442 343 q 499 243 499 286 q 470 172 499 200 z "},"ø":{"ha":851,"x_min":50,"x_max":801,"o":"m 163 -19 l 54 -19 l 147 90 q 50 351 50 190 q 160 608 50 501 q 426 714 271 714 q 640 663 556 714 l 690 719 l 800 719 l 704 610 q 801 349 801 508 q 692 92 801 197 q 426 -14 582 -14 q 211 38 296 -14 l 163 -19 m 294 261 l 533 539 q 426 626 497 626 q 326 554 361 626 q 290 351 290 482 q 294 261 290 300 m 426 74 q 526 146 490 74 q 561 349 561 218 q 557 438 561 410 l 318 161 q 426 74 353 74 z "},"ù":{"ha":913,"x_min":21,"x_max":903,"o":"m 543 804 l 468 804 l 193 1003 l 193 1050 l 429 1050 l 543 804 m 354 -14 q 175 58 236 -14 q 114 268 114 129 l 114 433 q 104 505 114 485 q 65 538 94 525 l 21 557 l 21 604 l 292 714 l 336 686 l 336 311 q 365 184 336 222 q 458 146 393 146 q 563 196 515 146 l 563 433 q 553 505 563 485 q 514 538 543 525 l 469 557 l 469 604 l 742 714 l 785 686 l 785 208 q 797 163 785 175 q 849 142 808 151 l 893 132 l 903 81 l 651 -14 l 614 -14 l 569 101 q 354 -14 481 -14 z "},"ú":{"ha":913,"x_min":21,"x_max":903,"o":"m 425 804 l 350 804 l 464 1050 l 700 1050 l 700 1003 l 425 804 m 354 -14 q 175 58 236 -14 q 114 268 114 129 l 114 433 q 104 505 114 485 q 65 538 94 525 l 21 557 l 21 604 l 292 714 l 336 686 l 336 311 q 365 184 336 222 q 458 146 393 146 q 563 196 515 146 l 563 433 q 553 505 563 485 q 514 538 543 525 l 469 557 l 469 604 l 742 714 l 785 686 l 785 208 q 797 163 785 175 q 849 142 808 151 l 893 132 l 903 81 l 651 -14 l 614 -14 l 569 101 q 354 -14 481 -14 z "},"û":{"ha":913,"x_min":21,"x_max":903,"o":"m 297 804 l 240 804 l 422 1050 l 469 1050 l 651 804 l 594 804 l 446 878 l 297 804 m 354 -14 q 175 58 236 -14 q 114 268 114 129 l 114 433 q 104 505 114 485 q 65 538 94 525 l 21 557 l 21 604 l 292 714 l 336 686 l 336 311 q 365 184 336 222 q 458 146 393 146 q 563 196 515 146 l 563 433 q 553 505 563 485 q 514 538 543 525 l 469 557 l 469 604 l 742 714 l 785 686 l 785 208 q 797 163 785 175 q 849 142 808 151 l 893 132 l 903 81 l 651 -14 l 614 -14 l 569 101 q 354 -14 481 -14 z "},"ü":{"ha":913,"x_min":21,"x_max":903,"o":"m 290 825 q 210 858 242 825 q 179 940 179 892 q 212 1019 179 988 q 290 1050 244 1050 q 372 1019 339 1050 q 404 940 404 989 q 373 856 404 888 q 290 825 342 825 m 600 825 q 519 858 550 825 q 489 940 489 892 q 521 1019 489 989 q 600 1050 553 1050 q 681 1019 649 1050 q 713 940 713 989 q 682 856 713 888 q 600 825 651 825 m 354 -14 q 175 58 236 -14 q 114 268 114 129 l 114 433 q 104 505 114 485 q 65 538 94 525 l 21 557 l 21 604 l 292 714 l 336 686 l 336 311 q 365 184 336 222 q 458 146 393 146 q 563 196 515 146 l 563 433 q 553 505 563 485 q 514 538 543 525 l 469 557 l 469 604 l 742 714 l 785 686 l 785 208 q 797 163 785 175 q 849 142 808 151 l 893 132 l 903 81 l 651 -14 l 614 -14 l 569 101 q 354 -14 481 -14 z "},"ý":{"ha":781,"x_min":-24,"x_max":804,"o":"m 439 771 l 364 771 l 478 1017 l 714 1017 l 714 969 l 439 771 m 201 -347 l 38 -225 l 57 -182 q 333 -10 243 -133 l 75 553 q 48 599 60 586 q 6 633 36 613 l -24 654 l -24 700 l 406 700 l 406 654 l 369 639 q 324 593 324 619 q 336 549 324 575 l 463 250 l 586 549 q 599 593 599 575 q 553 639 599 618 l 517 654 l 517 700 l 804 700 l 804 654 l 761 625 q 697 556 715 597 l 488 74 q 346 -192 413 -96 q 201 -347 279 -289 z "},"þ":{"ha":894,"x_min":22,"x_max":844,"o":"m 481 -333 l 22 -333 l 22 -286 l 71 -260 q 116 -222 104 -242 q 128 -167 128 -203 l 128 761 q 118 833 128 813 q 78 867 108 854 l 33 885 l 33 932 l 306 1042 l 349 1014 l 349 606 q 560 714 454 714 q 764 620 683 714 q 844 382 844 526 q 736 91 844 196 q 439 -14 628 -14 q 349 -1 400 -14 l 349 -167 q 365 -219 349 -199 q 425 -260 382 -239 l 481 -286 l 481 -333 m 458 72 q 565 141 524 72 q 607 321 607 210 q 567 494 607 433 q 454 556 528 556 q 349 507 394 556 l 349 203 q 381 107 351 142 q 458 72 410 72 z "},"ÿ":{"ha":781,"x_min":-24,"x_max":804,"o":"m 304 792 q 224 825 256 792 q 193 907 193 858 q 226 985 193 954 q 304 1017 258 1017 q 385 986 353 1017 q 418 907 418 956 q 387 823 418 854 q 304 792 356 792 m 614 792 q 533 825 564 792 q 503 907 503 858 q 535 986 503 956 q 614 1017 567 1017 q 694 986 663 1017 q 726 907 726 956 q 696 823 726 854 q 614 792 665 792 m 201 -347 l 38 -225 l 57 -182 q 333 -10 243 -133 l 75 553 q 48 599 60 586 q 6 633 36 613 l -24 654 l -24 700 l 406 700 l 406 654 l 369 639 q 324 593 324 619 q 336 549 324 575 l 463 250 l 586 549 q 599 593 599 575 q 553 639 599 618 l 517 654 l 517 700 l 804 700 l 804 654 l 761 625 q 697 556 715 597 l 488 74 q 346 -192 413 -96 q 201 -347 279 -289 z "},"Ā":{"ha":1035,"x_min":3,"x_max":1032,"o":"m 724 1065 l 310 1065 l 310 1181 l 724 1181 l 724 1065 m 338 0 l 3 0 l 3 50 l 61 76 q 138 182 104 97 l 435 929 l 596 965 l 914 171 q 946 106 933 121 q 988 74 958 90 l 1032 50 l 1032 0 l 581 0 l 581 50 l 625 71 q 671 121 671 94 q 657 171 671 136 l 621 263 l 281 263 l 247 179 q 232 118 232 138 q 288 69 232 90 l 338 50 l 338 0 m 447 701 l 317 358 l 583 358 l 447 701 z "},"ā":{"ha":786,"x_min":40,"x_max":785,"o":"m 576 844 l 163 844 l 163 960 l 576 960 l 576 844 m 260 -14 q 100 38 160 -14 q 40 178 40 90 q 81 293 40 243 q 196 371 122 343 q 444 421 301 411 l 444 449 q 342 621 444 621 q 256 593 283 621 q 197 479 225 563 l 118 479 l 65 615 q 374 714 210 714 q 595 649 525 714 q 665 442 665 583 l 665 208 q 677 163 665 175 q 731 142 689 151 l 775 132 l 785 81 l 533 -14 l 496 -14 l 454 96 q 367 16 419 46 q 260 -14 314 -14 m 350 133 q 444 182 408 133 l 444 344 q 356 326 399 340 q 265 221 265 297 q 290 158 265 183 q 350 133 314 133 z "},"Ă":{"ha":1035,"x_min":3,"x_max":1032,"o":"m 667 1076 q 642 1050 667 1076 q 517 1025 618 1025 q 367 1076 415 1025 q 318 1236 318 1126 q 319 1271 318 1263 l 369 1271 q 413 1190 378 1214 q 517 1165 447 1165 q 621 1190 586 1165 q 664 1271 656 1214 l 714 1271 q 715 1236 715 1263 q 667 1076 715 1126 m 338 0 l 3 0 l 3 50 l 61 76 q 138 182 104 97 l 435 929 l 596 965 l 914 171 q 946 106 933 121 q 988 74 958 90 l 1032 50 l 1032 0 l 581 0 l 581 50 l 625 71 q 671 121 671 94 q 657 171 671 136 l 621 263 l 281 263 l 247 179 q 232 118 232 138 q 288 69 232 90 l 338 50 l 338 0 m 447 701 l 317 358 l 583 358 l 447 701 z "},"ă":{"ha":786,"x_min":40,"x_max":785,"o":"m 519 855 q 495 830 519 855 q 369 804 471 804 q 219 855 268 804 q 171 1015 171 906 q 172 1050 171 1042 l 222 1050 q 265 969 231 993 q 369 944 300 944 q 474 969 439 944 q 517 1050 508 993 l 567 1050 q 568 1015 568 1042 q 519 855 568 906 m 260 -14 q 100 38 160 -14 q 40 178 40 90 q 81 293 40 243 q 196 371 122 343 q 444 421 301 411 l 444 449 q 342 621 444 621 q 256 593 283 621 q 197 479 225 563 l 118 479 l 65 615 q 374 714 210 714 q 595 649 525 714 q 665 442 665 583 l 665 208 q 677 163 665 175 q 731 142 689 151 l 775 132 l 785 81 l 533 -14 l 496 -14 l 454 96 q 367 16 419 46 q 260 -14 314 -14 m 350 133 q 444 182 408 133 l 444 344 q 356 326 399 340 q 265 221 265 297 q 290 158 265 183 q 350 133 314 133 z "},"Ą":{"ha":1035,"x_min":3,"x_max":1032,"o":"m 338 0 l 3 0 l 3 50 l 61 76 q 138 182 104 97 l 435 929 l 596 965 l 914 171 q 946 106 933 121 q 988 74 958 90 l 1032 50 l 1032 0 l 944 0 q 844 -87 881 -39 q 808 -182 808 -135 q 917 -257 808 -257 q 964 -253 935 -257 l 967 -307 q 828 -340 900 -340 q 693 -300 747 -340 q 639 -201 639 -260 q 690 -93 639 -142 q 853 0 742 -44 l 581 0 l 581 50 l 625 71 q 671 121 671 94 q 657 171 671 136 l 621 263 l 281 263 l 247 179 q 232 118 232 138 q 288 69 232 90 l 338 50 l 338 0 m 447 701 l 317 358 l 583 358 l 447 701 z "},"ą":{"ha":786,"x_min":40,"x_max":785,"o":"m 260 -14 q 100 38 160 -14 q 40 178 40 90 q 81 293 40 243 q 196 371 122 343 q 444 421 301 411 l 444 449 q 342 621 444 621 q 256 593 283 621 q 197 479 225 563 l 118 479 l 65 615 q 374 714 210 714 q 595 649 525 714 q 665 442 665 583 l 665 208 q 677 163 665 175 q 731 142 689 151 l 775 132 l 785 81 l 585 6 q 451 -175 451 -75 q 560 -250 451 -250 q 607 -246 578 -250 l 610 -300 q 471 -333 543 -333 q 336 -293 390 -333 q 282 -194 282 -253 q 489 4 282 -79 l 454 96 q 367 16 419 46 q 260 -14 314 -14 m 350 133 q 444 182 408 133 l 444 344 q 356 326 399 340 q 265 221 265 297 q 290 158 265 183 q 350 133 314 133 z "},"Ć":{"ha":997,"x_min":54,"x_max":943,"o":"m 507 1025 l 432 1025 l 546 1271 l 782 1271 l 782 1224 l 507 1025 m 582 -14 q 197 115 340 -14 q 54 460 54 243 q 195 830 54 694 q 582 965 336 965 q 907 899 756 965 l 928 626 l 876 626 l 797 729 q 692 827 749 790 q 582 864 635 864 q 382 751 461 864 q 303 472 303 639 q 385 201 303 306 q 597 96 467 96 q 890 328 771 96 l 943 328 l 907 78 q 768 12 858 38 q 582 -14 678 -14 z "},"ć":{"ha":738,"x_min":50,"x_max":696,"o":"m 403 804 l 328 804 l 442 1050 l 678 1050 l 678 1003 l 403 804 m 403 -14 q 143 78 236 -14 q 50 336 50 169 q 156 608 50 503 q 422 714 261 714 q 685 636 564 714 l 660 411 l 600 411 q 536 544 568 492 q 484 610 506 593 q 433 626 463 626 q 332 553 374 626 q 290 368 290 479 q 344 186 290 251 q 492 121 397 121 q 649 171 581 121 l 696 110 q 403 -14 586 -14 z "},"Ċ":{"ha":997,"x_min":54,"x_max":943,"o":"m 611 1072 q 595 1056 611 1072 q 528 1040 579 1040 q 444 1074 476 1040 q 413 1157 413 1108 q 446 1240 413 1208 q 528 1272 479 1272 q 610 1240 576 1272 q 643 1157 643 1208 q 611 1072 643 1104 m 582 -14 q 197 115 340 -14 q 54 460 54 243 q 195 830 54 694 q 582 965 336 965 q 907 899 756 965 l 928 626 l 876 626 l 797 729 q 692 827 749 790 q 582 864 635 864 q 382 751 461 864 q 303 472 303 639 q 385 201 303 306 q 597 96 467 96 q 890 328 771 96 l 943 328 l 907 78 q 768 12 858 38 q 582 -14 678 -14 z "},"ċ":{"ha":738,"x_min":50,"x_max":696,"o":"m 507 851 q 491 835 507 851 q 424 819 475 819 q 340 853 372 819 q 308 936 308 888 q 342 1019 308 988 q 424 1051 375 1051 q 506 1019 472 1051 q 539 936 539 988 q 507 851 539 883 m 403 -14 q 143 78 236 -14 q 50 336 50 169 q 156 608 50 503 q 422 714 261 714 q 685 636 564 714 l 660 411 l 600 411 q 536 544 568 492 q 484 610 506 593 q 433 626 463 626 q 332 553 374 626 q 290 368 290 479 q 344 186 290 251 q 492 121 397 121 q 649 171 581 121 l 696 110 q 403 -14 586 -14 z "},"Č":{"ha":997,"x_min":54,"x_max":943,"o":"m 551 1025 l 504 1025 l 322 1271 l 379 1271 l 528 1196 l 676 1271 l 733 1271 l 551 1025 m 582 -14 q 197 115 340 -14 q 54 460 54 243 q 195 830 54 694 q 582 965 336 965 q 907 899 756 965 l 928 626 l 876 626 l 797 729 q 692 827 749 790 q 582 864 635 864 q 382 751 461 864 q 303 472 303 639 q 385 201 303 306 q 597 96 467 96 q 890 328 771 96 l 943 328 l 907 78 q 768 12 858 38 q 582 -14 678 -14 z "},"č":{"ha":738,"x_min":50,"x_max":696,"o":"m 447 804 l 400 804 l 218 1050 l 275 1050 l 424 975 l 572 1050 l 629 1050 l 447 804 m 403 -14 q 143 78 236 -14 q 50 336 50 169 q 156 608 50 503 q 422 714 261 714 q 685 636 564 714 l 660 411 l 600 411 q 536 544 568 492 q 484 610 506 593 q 433 626 463 626 q 332 553 374 626 q 290 368 290 479 q 344 186 290 251 q 492 121 397 121 q 649 171 581 121 l 696 110 q 403 -14 586 -14 z "},"Ď":{"ha":1088,"x_min":58,"x_max":1033,"o":"m 571 1025 l 524 1025 l 342 1271 l 399 1271 l 547 1196 l 696 1271 l 753 1271 l 571 1025 m 536 0 l 58 0 l 58 50 l 103 74 q 150 113 139 94 q 161 167 161 131 l 161 785 q 150 840 161 821 q 103 878 139 858 l 58 901 l 58 951 l 536 951 q 893 824 753 951 q 1033 472 1033 697 q 893 125 1033 250 q 536 0 753 0 m 396 857 l 396 94 l 472 94 q 698 197 611 94 q 785 472 785 299 q 698 753 785 649 q 472 857 611 857 l 396 857 z "},"ď":{"ha":894,"x_min":50,"x_max":982,"o":"m 336 -14 q 128 83 207 -14 q 50 318 50 179 q 159 608 50 503 q 456 714 268 714 q 546 700 494 714 l 546 772 q 535 836 546 818 q 496 867 525 854 l 451 886 l 451 933 l 724 1042 l 767 1015 l 767 208 q 778 163 767 175 q 831 142 790 150 l 876 132 l 885 81 l 635 -14 l 597 -14 l 553 101 q 336 -14 442 -14 m 863 765 l 810 765 l 810 1029 l 982 1029 l 982 982 l 863 765 m 440 144 q 546 193 497 144 l 546 496 q 514 593 543 560 q 436 626 485 626 q 329 558 371 626 q 288 379 288 489 q 326 206 288 268 q 440 144 365 144 z "},"Đ":{"ha":1088,"x_min":58,"x_max":1033,"o":"m 536 0 l 58 0 l 58 50 l 103 74 q 150 113 139 94 q 161 167 161 131 l 161 432 l 65 432 l 65 528 l 161 528 l 161 785 q 150 840 161 821 q 103 878 139 858 l 58 901 l 58 951 l 536 951 q 893 824 753 951 q 1033 472 1033 697 q 893 125 1033 250 q 536 0 753 0 m 396 432 l 396 94 l 472 94 q 698 197 611 94 q 785 472 785 299 q 698 753 785 649 q 472 857 611 857 l 396 857 l 396 528 l 610 528 l 610 432 l 396 432 z "},"đ":{"ha":894,"x_min":50,"x_max":885,"o":"m 336 -14 q 131 78 211 -14 q 50 314 50 169 q 158 605 50 497 q 456 713 267 713 q 546 699 496 713 l 546 750 l 381 750 l 381 826 l 542 826 q 496 874 540 860 l 451 886 l 451 933 l 724 1042 l 767 1015 l 767 826 l 881 826 l 881 750 l 767 750 l 767 208 q 778 163 767 175 q 831 142 790 150 l 876 132 l 885 81 l 635 -14 l 597 -14 l 553 101 q 336 -14 442 -14 m 440 144 q 546 193 500 144 l 546 489 q 514 589 543 551 q 436 626 485 626 q 329 555 371 626 q 288 374 288 483 q 327 203 288 263 q 440 144 367 144 z "},"Ē":{"ha":935,"x_min":58,"x_max":881,"o":"m 672 1065 l 258 1065 l 258 1181 l 672 1181 l 672 1065 m 847 0 l 58 0 l 58 50 l 103 74 q 150 113 139 94 q 161 167 161 131 l 161 785 q 150 840 161 821 q 103 878 139 858 l 58 901 l 58 951 l 842 951 l 856 703 l 804 703 l 760 764 q 690 838 719 819 q 614 857 661 857 l 396 857 l 396 529 l 550 529 q 606 541 588 529 q 643 588 625 553 l 667 633 l 717 633 l 717 303 l 667 303 l 644 360 q 607 419 628 404 q 550 435 586 435 l 396 435 l 396 178 q 413 112 396 129 q 482 94 431 94 l 618 94 q 706 113 676 94 q 779 194 735 131 l 831 269 l 881 269 l 847 0 z "},"ē":{"ha":775,"x_min":50,"x_max":728,"o":"m 613 844 l 199 844 l 199 960 l 613 960 l 613 844 m 404 -14 q 144 81 238 -14 q 50 344 50 175 q 151 610 50 506 q 407 714 253 714 q 642 628 556 714 q 728 394 728 543 l 728 361 l 290 361 l 290 354 q 348 178 290 239 q 511 118 406 118 q 668 169 583 118 l 717 110 q 404 -14 593 -14 m 293 447 l 507 453 q 481 581 507 536 q 410 626 456 626 q 329 584 357 626 q 293 447 301 542 z "},"Ė":{"ha":935,"x_min":58,"x_max":881,"o":"m 549 1072 q 533 1056 549 1072 q 465 1040 517 1040 q 382 1074 414 1040 q 350 1157 350 1108 q 383 1240 350 1208 q 465 1272 417 1272 q 547 1240 514 1272 q 581 1157 581 1208 q 549 1072 581 1104 m 847 0 l 58 0 l 58 50 l 103 74 q 150 113 139 94 q 161 167 161 131 l 161 785 q 150 840 161 821 q 103 878 139 858 l 58 901 l 58 951 l 842 951 l 856 703 l 804 703 l 760 764 q 690 838 719 819 q 614 857 661 857 l 396 857 l 396 529 l 550 529 q 606 541 588 529 q 643 588 625 553 l 667 633 l 717 633 l 717 303 l 667 303 l 644 360 q 607 419 628 404 q 550 435 586 435 l 396 435 l 396 178 q 413 112 396 129 q 482 94 431 94 l 618 94 q 706 113 676 94 q 779 194 735 131 l 831 269 l 881 269 l 847 0 z "},"ė":{"ha":775,"x_min":50,"x_max":728,"o":"m 489 851 q 473 835 489 851 q 406 819 457 819 q 322 853 354 819 q 290 936 290 888 q 324 1019 290 988 q 406 1051 357 1051 q 488 1019 454 1051 q 521 936 521 988 q 489 851 521 883 m 404 -14 q 144 81 238 -14 q 50 344 50 175 q 151 610 50 506 q 407 714 253 714 q 642 628 556 714 q 728 394 728 543 l 728 361 l 290 361 l 290 354 q 348 178 290 239 q 511 118 406 118 q 668 169 583 118 l 717 110 q 404 -14 593 -14 m 293 447 l 507 453 q 481 581 507 536 q 410 626 456 626 q 329 584 357 626 q 293 447 301 542 z "},"Ę":{"ha":935,"x_min":58,"x_max":881,"o":"m 643 -340 q 508 -300 563 -340 q 454 -201 454 -260 q 506 -93 454 -142 q 668 0 557 -44 l 58 0 l 58 50 l 103 74 q 150 113 139 94 q 161 167 161 131 l 161 785 q 150 840 161 821 q 103 878 139 858 l 58 901 l 58 951 l 842 951 l 856 703 l 804 703 l 760 764 q 690 838 719 819 q 614 857 661 857 l 396 857 l 396 529 l 550 529 q 606 541 588 529 q 643 588 625 553 l 667 633 l 717 633 l 717 303 l 667 303 l 644 360 q 607 419 628 404 q 550 435 586 435 l 396 435 l 396 178 q 413 112 396 129 q 482 94 431 94 l 618 94 q 706 113 676 94 q 779 194 735 131 l 831 269 l 881 269 l 847 0 l 760 0 q 660 -87 696 -39 q 624 -182 624 -135 q 732 -257 624 -257 q 779 -253 750 -257 l 782 -307 q 643 -340 715 -340 z "},"ę":{"ha":775,"x_min":50,"x_max":728,"o":"m 407 -340 q 272 -300 326 -340 q 218 -201 218 -260 q 399 -14 218 -94 q 143 82 236 -12 q 50 344 50 176 q 151 610 50 506 q 407 714 253 714 q 642 628 556 714 q 728 394 728 543 l 728 361 l 290 361 l 290 354 q 348 178 290 239 q 511 118 406 118 q 668 169 583 118 l 717 110 q 522 -1 633 26 q 388 -182 388 -83 q 496 -257 388 -257 q 543 -253 514 -257 l 546 -307 q 407 -340 479 -340 m 293 447 l 507 453 q 481 581 507 536 q 410 626 456 626 q 329 584 357 626 q 293 447 301 542 z "},"Ě":{"ha":935,"x_min":58,"x_max":881,"o":"m 489 1025 l 442 1025 l 260 1271 l 317 1271 l 465 1196 l 614 1271 l 671 1271 l 489 1025 m 847 0 l 58 0 l 58 50 l 103 74 q 150 113 139 94 q 161 167 161 131 l 161 785 q 150 840 161 821 q 103 878 139 858 l 58 901 l 58 951 l 842 951 l 856 703 l 804 703 l 760 764 q 690 838 719 819 q 614 857 661 857 l 396 857 l 396 529 l 550 529 q 606 541 588 529 q 643 588 625 553 l 667 633 l 717 633 l 717 303 l 667 303 l 644 360 q 607 419 628 404 q 550 435 586 435 l 396 435 l 396 178 q 413 112 396 129 q 482 94 431 94 l 618 94 q 706 113 676 94 q 779 194 735 131 l 831 269 l 881 269 l 847 0 z "},"ě":{"ha":775,"x_min":50,"x_max":728,"o":"m 429 804 l 382 804 l 200 1050 l 257 1050 l 406 975 l 554 1050 l 611 1050 l 429 804 m 404 -14 q 144 81 238 -14 q 50 344 50 175 q 151 610 50 506 q 407 714 253 714 q 642 628 556 714 q 728 394 728 543 l 728 361 l 290 361 l 290 354 q 348 178 290 239 q 511 118 406 118 q 668 169 583 118 l 717 110 q 404 -14 593 -14 m 293 447 l 507 453 q 481 581 507 536 q 410 626 456 626 q 329 584 357 626 q 293 447 301 542 z "},"Ğ":{"ha":1058,"x_min":54,"x_max":1028,"o":"m 696 1076 q 672 1050 696 1076 q 546 1025 647 1025 q 396 1076 444 1025 q 347 1236 347 1126 q 349 1271 347 1263 l 399 1271 q 442 1190 407 1214 q 546 1165 476 1165 q 650 1190 615 1165 q 693 1271 685 1214 l 743 1271 q 744 1236 744 1263 q 696 1076 744 1126 m 574 -14 q 190 113 325 -14 q 54 469 54 239 q 201 828 54 690 q 583 965 347 965 q 924 890 778 965 l 935 626 l 883 626 l 825 706 q 708 829 760 794 q 593 864 657 864 q 383 756 463 864 q 303 469 303 647 q 388 197 303 300 q 614 94 474 94 q 722 125 688 94 l 722 271 q 708 325 722 306 q 654 364 694 344 l 610 388 l 610 438 l 1028 438 l 1028 388 l 1000 372 q 957 293 957 351 l 957 88 q 574 -14 814 -14 z "},"ğ":{"ha":814,"x_min":40,"x_max":793,"o":"m 540 822 q 516 796 540 822 q 390 771 492 771 q 240 822 289 771 q 192 982 192 872 q 193 1017 192 1008 l 243 1017 q 286 935 251 960 q 390 911 321 911 q 494 935 460 911 q 538 1017 529 960 l 588 1017 q 589 982 589 1008 q 540 822 589 872 m 339 -347 q 40 -192 40 -347 q 168 -49 40 -122 q 53 78 53 -21 q 54 101 53 94 l 185 264 q 50 467 50 333 q 144 643 50 572 q 378 714 239 714 q 542 688 469 714 l 744 714 l 793 714 l 786 589 l 656 604 q 704 460 704 546 q 613 288 704 354 q 378 221 522 221 q 265 235 315 221 l 240 192 q 251 164 240 175 q 363 144 278 144 l 535 144 q 730 101 671 144 q 789 -42 789 58 q 663 -262 789 -176 q 339 -347 536 -347 m 381 306 q 450 348 425 306 q 475 467 475 390 q 450 586 475 543 q 381 629 425 629 q 308 584 336 629 q 281 467 281 539 q 308 349 281 393 q 381 306 335 306 m 422 -228 q 592 -199 524 -228 q 661 -129 661 -171 q 627 -76 661 -90 q 503 -62 593 -62 l 289 -62 q 280 -62 286 -62 q 265 -62 274 -62 q 246 -62 257 -62 q 221 -136 221 -107 q 422 -228 221 -228 z "},"Ġ":{"ha":1058,"x_min":54,"x_max":1028,"o":"m 629 1072 q 613 1056 629 1072 q 546 1040 597 1040 q 463 1074 494 1040 q 431 1157 431 1108 q 464 1240 431 1208 q 546 1272 497 1272 q 628 1240 594 1272 q 661 1157 661 1208 q 629 1072 661 1104 m 574 -14 q 190 113 325 -14 q 54 469 54 239 q 201 828 54 690 q 583 965 347 965 q 924 890 778 965 l 935 626 l 883 626 l 825 706 q 708 829 760 794 q 593 864 657 864 q 383 756 463 864 q 303 469 303 647 q 388 197 303 300 q 614 94 474 94 q 722 125 688 94 l 722 271 q 708 325 722 306 q 654 364 694 344 l 610 388 l 610 438 l 1028 438 l 1028 388 l 1000 372 q 957 293 957 351 l 957 88 q 574 -14 814 -14 z "},"ġ":{"ha":814,"x_min":40,"x_max":793,"o":"m 474 818 q 458 802 474 818 q 390 786 442 786 q 307 820 339 786 q 275 903 275 854 q 308 986 275 954 q 390 1018 342 1018 q 472 986 439 1018 q 506 903 506 954 q 474 818 506 850 m 339 -347 q 40 -192 40 -347 q 168 -49 40 -122 q 53 78 53 -21 q 54 101 53 94 l 185 264 q 50 467 50 333 q 144 643 50 572 q 378 714 239 714 q 542 688 469 714 l 744 714 l 793 714 l 786 589 l 656 604 q 704 460 704 546 q 613 288 704 354 q 378 221 522 221 q 265 235 315 221 l 240 192 q 251 164 240 175 q 363 144 278 144 l 535 144 q 730 101 671 144 q 789 -42 789 58 q 663 -262 789 -176 q 339 -347 536 -347 m 381 306 q 450 348 425 306 q 475 467 475 390 q 450 586 475 543 q 381 629 425 629 q 308 584 336 629 q 281 467 281 539 q 308 349 281 393 q 381 306 335 306 m 422 -228 q 592 -199 524 -228 q 661 -129 661 -171 q 627 -76 661 -90 q 503 -62 593 -62 l 289 -62 q 280 -62 286 -62 q 265 -62 274 -62 q 246 -62 257 -62 q 221 -136 221 -107 q 422 -228 221 -228 z "},"Ģ":{"ha":1058,"x_min":54,"x_max":1028,"o":"m 574 -14 q 190 113 325 -14 q 54 469 54 239 q 201 828 54 690 q 583 965 347 965 q 924 890 778 965 l 935 626 l 883 626 l 825 706 q 708 829 760 794 q 593 864 657 864 q 383 756 463 864 q 303 469 303 647 q 388 197 303 300 q 614 94 474 94 q 722 125 688 94 l 722 271 q 708 325 722 306 q 654 364 694 344 l 610 388 l 610 438 l 1028 438 l 1028 388 l 1000 372 q 957 293 957 351 l 957 88 q 574 -14 814 -14 m 457 -435 l 426 -399 q 506 -254 506 -312 q 447 -176 506 -204 l 449 -143 q 568 -75 551 -75 q 622 -108 600 -75 q 643 -187 643 -140 q 594 -317 643 -253 q 457 -435 546 -382 z "},"ģ":{"ha":814,"x_min":40,"x_max":793,"o":"m 390 771 q 336 803 358 771 q 314 883 314 836 q 363 1013 314 949 q 500 1131 411 1078 l 531 1094 q 451 950 451 1008 q 510 872 451 900 l 508 839 q 390 771 406 771 m 339 -347 q 40 -192 40 -347 q 168 -49 40 -122 q 53 78 53 -21 q 54 101 53 94 l 185 264 q 50 467 50 333 q 144 643 50 572 q 378 714 239 714 q 542 688 469 714 l 744 714 l 793 714 l 786 589 l 656 604 q 704 460 704 546 q 613 288 704 354 q 378 221 522 221 q 265 235 315 221 l 240 192 q 251 164 240 175 q 363 144 278 144 l 535 144 q 730 101 671 144 q 789 -42 789 58 q 663 -262 789 -176 q 339 -347 536 -347 m 381 306 q 450 348 425 306 q 475 467 475 390 q 450 586 475 543 q 381 629 425 629 q 308 584 336 629 q 281 467 281 539 q 308 349 281 393 q 381 306 335 306 m 422 -228 q 592 -199 524 -228 q 661 -129 661 -171 q 627 -76 661 -90 q 503 -62 593 -62 l 289 -62 q 280 -62 286 -62 q 265 -62 274 -62 q 246 -62 257 -62 q 221 -136 221 -107 q 422 -228 221 -228 z "},"Ħ":{"ha":1175,"x_min":58,"x_max":1117,"o":"m 500 0 l 58 0 l 58 50 l 103 74 q 150 113 139 94 q 161 167 161 131 l 161 639 l 65 639 l 65 733 l 161 733 l 161 785 q 150 840 161 821 q 103 878 139 858 l 58 901 l 58 951 l 500 951 l 500 901 l 456 878 q 408 840 419 858 q 396 785 396 821 l 396 733 l 779 733 l 779 785 q 767 840 779 821 q 719 878 756 858 l 675 901 l 675 951 l 1117 951 l 1117 901 l 1072 878 q 1024 840 1036 858 q 1013 785 1013 821 l 1013 733 l 1110 733 l 1110 639 l 1013 639 l 1013 167 q 1024 113 1013 132 q 1072 74 1036 94 l 1117 50 l 1117 0 l 675 0 l 675 50 l 719 74 q 767 113 756 94 q 779 167 779 132 l 779 419 l 396 419 l 396 167 q 408 113 396 132 q 456 74 419 94 l 500 50 l 500 0 m 396 639 l 396 519 l 779 519 l 779 639 l 396 639 z "},"ħ":{"ha":921,"x_min":28,"x_max":911,"o":"m 440 0 l 28 0 l 28 47 l 76 74 q 117 110 107 92 q 128 167 128 128 l 128 750 l 33 750 l 33 828 l 124 828 q 116 844 122 838 q 103 856 110 851 q 78 867 96 860 l 33 885 l 33 932 l 306 1042 l 349 1014 l 349 828 l 508 828 l 508 750 l 349 750 l 349 589 q 581 714 463 714 q 750 639 689 714 q 811 431 811 564 l 811 167 q 822 110 811 128 q 863 74 832 92 l 911 47 l 911 0 l 499 0 l 499 47 l 547 74 q 582 106 574 89 q 590 167 590 124 l 590 388 q 467 540 590 540 q 349 486 400 540 l 349 167 q 357 106 349 124 q 392 74 365 89 l 440 47 l 440 0 z "},"Ĩ":{"ha":558,"x_min":49,"x_max":510,"o":"m 103 1035 l 49 1035 q 90 1187 49 1124 q 192 1250 132 1250 q 292 1218 233 1250 q 392 1186 353 1186 q 432 1201 418 1186 q 456 1254 446 1215 l 510 1254 q 469 1104 510 1165 q 369 1043 429 1043 q 260 1076 317 1043 q 175 1110 201 1110 q 103 1035 115 1110 m 500 0 l 58 0 l 58 50 l 103 74 q 150 113 139 94 q 161 167 161 131 l 161 785 q 150 840 161 821 q 103 878 139 858 l 58 901 l 58 951 l 500 951 l 500 901 l 456 878 q 408 840 419 858 q 396 785 396 821 l 396 167 q 408 113 396 132 q 456 74 419 94 l 500 50 l 500 0 z "},"ĩ":{"ha":476,"x_min":-11,"x_max":450,"o":"m 43 792 l -11 792 q 31 944 -11 881 q 132 1007 72 1007 q 232 975 174 1007 q 332 943 293 943 q 372 958 358 943 q 396 1011 386 972 l 450 1011 q 410 861 450 922 q 310 800 369 800 q 200 833 257 800 q 115 867 142 867 q 43 792 56 867 m 449 0 l 28 0 l 28 47 l 76 74 q 117 110 107 92 q 128 167 128 128 l 128 433 q 117 507 128 486 q 78 539 107 528 l 33 557 l 33 604 l 306 714 l 349 688 l 349 167 q 359 110 349 128 q 400 74 369 92 l 449 47 l 449 0 z "},"Ī":{"ha":558,"x_min":58,"x_max":500,"o":"m 486 1065 l 72 1065 l 72 1181 l 486 1181 l 486 1065 m 500 0 l 58 0 l 58 50 l 103 74 q 150 113 139 94 q 161 167 161 131 l 161 785 q 150 840 161 821 q 103 878 139 858 l 58 901 l 58 951 l 500 951 l 500 901 l 456 878 q 408 840 419 858 q 396 785 396 821 l 396 167 q 408 113 396 132 q 456 74 419 94 l 500 50 l 500 0 z "},"ī":{"ha":476,"x_min":13,"x_max":449,"o":"m 426 822 l 13 822 l 13 938 l 426 938 l 426 822 m 449 0 l 28 0 l 28 47 l 76 74 q 117 110 107 92 q 128 167 128 128 l 128 433 q 117 507 128 486 q 78 539 107 528 l 33 557 l 33 604 l 306 714 l 349 688 l 349 167 q 359 110 349 128 q 400 74 369 92 l 449 47 l 449 0 z "},"Į":{"ha":558,"x_min":58,"x_max":500,"o":"m 296 -340 q 161 -300 215 -340 q 107 -201 107 -260 q 158 -93 107 -142 q 321 0 210 -44 l 58 0 l 58 50 l 103 74 q 150 113 139 94 q 161 167 161 131 l 161 785 q 150 840 161 821 q 103 878 139 858 l 58 901 l 58 951 l 500 951 l 500 901 l 456 878 q 408 840 419 858 q 396 785 396 821 l 396 167 q 408 113 396 132 q 456 74 419 94 l 500 50 l 500 0 l 413 0 q 313 -87 349 -39 q 276 -182 276 -135 q 385 -257 276 -257 q 432 -253 403 -257 l 435 -307 q 296 -340 368 -340 z "},"į":{"ha":476,"x_min":28,"x_max":469,"o":"m 219 797 q 126 835 163 797 q 90 928 90 874 q 127 1022 90 986 q 219 1058 164 1058 q 312 1023 275 1058 q 349 928 349 988 q 313 833 349 869 q 219 797 278 797 m 449 0 l 447 0 q 347 -87 383 -39 q 311 -182 311 -135 q 419 -257 311 -257 q 467 -253 438 -257 l 469 -307 q 331 -340 403 -340 q 196 -300 250 -340 q 142 -201 142 -260 q 193 -93 142 -142 q 356 0 244 -44 l 28 0 l 28 47 l 76 74 q 117 110 107 92 q 128 167 128 128 l 128 433 q 117 507 128 486 q 78 539 107 528 l 33 557 l 33 604 l 306 714 l 349 688 l 349 167 q 359 110 349 128 q 400 74 369 92 l 449 47 l 449 0 z "},"İ":{"ha":558,"x_min":58,"x_max":500,"o":"m 363 1072 q 347 1056 363 1072 q 279 1040 331 1040 q 196 1074 228 1040 q 164 1157 164 1108 q 197 1240 164 1208 q 279 1272 231 1272 q 361 1240 328 1272 q 394 1157 394 1208 q 363 1072 394 1104 m 500 0 l 58 0 l 58 50 l 103 74 q 150 113 139 94 q 161 167 161 131 l 161 785 q 150 840 161 821 q 103 878 139 858 l 58 901 l 58 951 l 500 951 l 500 901 l 456 878 q 408 840 419 858 q 396 785 396 821 l 396 167 q 408 113 396 132 q 456 74 419 94 l 500 50 l 500 0 z "},"ı":{"ha":476,"x_min":28,"x_max":449,"o":"m 449 0 l 28 0 l 28 47 l 76 74 q 117 110 107 92 q 128 167 128 128 l 128 433 q 117 507 128 486 q 78 539 107 528 l 33 557 l 33 604 l 306 714 l 349 688 l 349 167 q 359 110 349 128 q 400 74 369 92 l 449 47 l 449 0 z "},"Ķ":{"ha":1058,"x_min":58,"x_max":1056,"o":"m 500 0 l 58 0 l 58 50 l 103 74 q 149 112 138 93 q 161 167 161 131 l 161 785 q 149 841 161 822 q 103 878 138 860 l 58 901 l 58 951 l 500 951 l 500 901 l 456 878 q 408 840 419 858 q 396 785 396 821 l 396 526 l 465 526 q 582 601 532 526 l 697 775 q 740 850 740 840 q 692 886 740 868 l 651 901 l 651 951 l 1018 951 l 1018 901 l 961 879 q 890 843 911 860 q 840 788 868 826 l 665 539 q 767 421 719 499 l 931 143 q 963 99 947 114 q 1011 71 979 85 l 1056 50 l 1056 0 l 742 0 l 488 432 l 396 432 l 396 167 q 408 112 396 131 q 456 74 419 93 l 500 50 l 500 0 m 486 -435 l 456 -399 q 535 -254 535 -312 q 476 -176 535 -204 l 478 -143 q 597 -75 581 -75 q 651 -108 629 -75 q 672 -187 672 -140 q 624 -317 672 -253 q 486 -435 575 -382 z "},"ķ":{"ha":925,"x_min":28,"x_max":922,"o":"m 449 0 l 28 0 l 28 47 l 76 74 q 117 110 107 92 q 128 167 128 128 l 128 761 q 117 833 128 813 q 78 865 107 853 l 33 885 l 33 932 l 306 1042 l 349 1014 l 349 438 l 406 438 q 503 486 458 438 l 561 553 q 589 607 589 583 q 556 636 589 622 l 510 653 l 510 700 l 864 700 l 864 653 l 808 632 q 733 596 757 613 q 671 538 710 579 l 597 457 l 801 140 q 875 71 833 90 l 922 47 l 922 0 l 624 0 l 418 353 l 349 353 l 349 167 q 359 110 349 128 q 400 74 369 92 l 449 47 l 449 0 m 381 -435 l 350 -399 q 429 -254 429 -312 q 371 -176 429 -204 l 372 -143 q 492 -75 475 -75 q 545 -108 524 -75 q 567 -187 567 -140 q 518 -317 567 -253 q 381 -435 469 -382 z "},"Ĺ":{"ha":874,"x_min":58,"x_max":843,"o":"m 263 1025 l 188 1025 l 301 1271 l 538 1271 l 538 1224 l 263 1025 m 807 0 l 58 0 l 58 50 l 103 74 q 150 113 139 94 q 161 167 161 131 l 161 785 q 150 840 161 821 q 103 878 139 858 l 58 901 l 58 951 l 500 951 l 500 901 l 456 878 q 408 840 419 858 q 396 785 396 821 l 396 178 q 413 112 396 129 q 482 94 431 94 l 564 94 q 647 116 619 94 q 742 232 675 138 l 793 307 l 843 307 l 807 0 z "},"ĺ":{"ha":476,"x_min":28,"x_max":475,"o":"m 200 1083 l 125 1083 l 239 1329 l 475 1329 l 475 1282 l 200 1083 m 449 0 l 28 0 l 28 47 l 76 74 q 117 110 107 92 q 128 167 128 128 l 128 761 q 117 833 128 813 q 78 865 107 853 l 33 885 l 33 932 l 306 1042 l 349 1014 l 349 167 q 359 110 349 128 q 400 74 369 92 l 449 47 l 449 0 z "},"Ļ":{"ha":874,"x_min":58,"x_max":843,"o":"m 807 0 l 58 0 l 58 50 l 103 74 q 150 113 139 94 q 161 167 161 131 l 161 785 q 150 840 161 821 q 103 878 139 858 l 58 901 l 58 951 l 500 951 l 500 901 l 456 878 q 408 840 419 858 q 396 785 396 821 l 396 178 q 413 112 396 129 q 482 94 431 94 l 564 94 q 647 116 619 94 q 742 232 675 138 l 793 307 l 843 307 l 807 0 m 379 -435 l 349 -399 q 428 -254 428 -312 q 369 -176 428 -204 l 371 -143 q 490 -75 474 -75 q 544 -108 522 -75 q 565 -187 565 -140 q 517 -317 565 -253 q 379 -435 468 -382 z "},"ļ":{"ha":476,"x_min":28,"x_max":449,"o":"m 449 0 l 28 0 l 28 47 l 76 74 q 117 110 107 92 q 128 167 128 128 l 128 761 q 117 833 128 813 q 78 865 107 853 l 33 885 l 33 932 l 306 1042 l 349 1014 l 349 167 q 359 110 349 128 q 400 74 369 92 l 449 47 l 449 0 m 149 -435 l 118 -399 q 197 -254 197 -312 q 139 -176 197 -204 l 140 -143 q 260 -75 243 -75 q 313 -108 292 -75 q 335 -187 335 -140 q 286 -317 335 -253 q 149 -435 238 -382 z "},"Ľ":{"ha":874,"x_min":58,"x_max":843,"o":"m 807 0 l 58 0 l 58 50 l 103 74 q 150 113 139 94 q 161 167 161 131 l 161 785 q 150 840 161 821 q 103 878 139 858 l 58 901 l 58 951 l 500 951 l 500 901 l 456 878 q 408 840 419 858 q 396 785 396 821 l 396 178 q 413 112 396 129 q 482 94 431 94 l 564 94 q 647 116 619 94 q 742 232 675 138 l 793 307 l 843 307 l 807 0 m 625 688 l 572 688 l 572 951 l 744 951 l 744 904 l 625 688 z "},"ľ":{"ha":476,"x_min":28,"x_max":592,"o":"m 449 0 l 28 0 l 28 47 l 76 74 q 117 110 107 92 q 128 167 128 128 l 128 761 q 117 833 128 813 q 78 865 107 853 l 33 885 l 33 932 l 306 1042 l 349 1014 l 349 167 q 359 110 349 128 q 400 74 369 92 l 449 47 l 449 0 m 472 765 l 419 765 l 419 1029 l 592 1029 l 592 982 l 472 765 z "},"Ł":{"ha":874,"x_min":58,"x_max":843,"o":"m 807 0 l 58 0 l 58 50 l 103 74 q 150 113 139 94 q 161 167 161 131 l 161 294 l 65 235 l 65 343 l 161 404 l 161 785 q 150 840 161 821 q 103 878 139 858 l 58 901 l 58 951 l 500 951 l 500 901 l 456 878 q 408 840 419 858 q 396 785 396 821 l 396 553 l 592 675 l 592 565 l 396 443 l 396 178 q 413 112 396 129 q 482 94 431 94 l 564 94 q 647 116 619 94 q 742 232 675 138 l 793 307 l 843 307 l 807 0 z "},"ł":{"ha":476,"x_min":18,"x_max":460,"o":"m 449 0 l 28 0 l 28 47 l 76 74 q 117 110 107 92 q 128 167 128 128 l 128 382 l 18 313 l 18 413 l 128 482 l 128 761 q 117 833 128 813 q 78 865 107 853 l 33 885 l 33 932 l 306 1042 l 349 1014 l 349 619 l 460 688 l 460 592 l 349 521 l 349 167 q 359 110 349 128 q 400 74 369 92 l 449 47 l 449 0 z "},"Ń":{"ha":1111,"x_min":58,"x_max":1067,"o":"m 547 1025 l 472 1025 l 586 1271 l 822 1271 l 822 1224 l 547 1025 m 964 24 l 865 -21 l 272 697 l 272 167 q 288 111 272 131 q 347 72 303 92 l 400 49 l 400 0 l 58 0 l 58 49 l 104 74 q 150 110 139 92 q 161 167 161 129 l 161 785 q 147 842 161 824 q 101 879 133 861 l 61 901 l 61 951 l 369 951 l 853 361 l 853 783 q 838 839 853 819 q 778 878 822 858 l 725 901 l 725 951 l 1067 951 l 1067 901 l 1021 876 q 975 839 986 857 q 964 783 964 821 l 964 24 z "},"ń":{"ha":928,"x_min":28,"x_max":911,"o":"m 446 804 l 371 804 l 485 1050 l 721 1050 l 721 1003 l 446 804 m 440 0 l 28 0 l 28 47 l 76 74 q 117 110 107 92 q 128 167 128 128 l 128 433 q 118 506 128 485 q 78 539 108 526 l 33 557 l 33 604 l 288 714 l 331 688 l 331 561 q 453 674 388 633 q 581 714 518 714 q 750 638 689 714 q 811 426 811 561 l 811 167 q 822 110 811 128 q 863 74 832 92 l 911 47 l 911 0 l 499 0 l 499 47 l 547 74 q 582 106 574 89 q 590 167 590 124 l 590 383 q 467 540 590 540 q 349 482 404 540 l 349 167 q 357 106 349 124 q 392 74 365 89 l 440 47 l 440 0 z "},"Ņ":{"ha":1111,"x_min":58,"x_max":1067,"o":"m 964 24 l 865 -21 l 272 697 l 272 167 q 288 111 272 131 q 347 72 303 92 l 400 49 l 400 0 l 58 0 l 58 49 l 104 74 q 150 110 139 92 q 161 167 161 129 l 161 785 q 147 842 161 824 q 101 879 133 861 l 61 901 l 61 951 l 369 951 l 853 361 l 853 783 q 838 839 853 819 q 778 878 822 858 l 725 901 l 725 951 l 1067 951 l 1067 901 l 1021 876 q 975 839 986 857 q 964 783 964 821 l 964 24 m 479 -435 l 449 -399 q 528 -254 528 -312 q 469 -176 528 -204 l 471 -143 q 590 -75 574 -75 q 644 -108 622 -75 q 665 -187 665 -140 q 617 -317 665 -253 q 479 -435 568 -382 z "},"ņ":{"ha":928,"x_min":28,"x_max":911,"o":"m 440 0 l 28 0 l 28 47 l 76 74 q 117 110 107 92 q 128 167 128 128 l 128 433 q 118 506 128 485 q 78 539 108 526 l 33 557 l 33 604 l 288 714 l 331 688 l 331 561 q 453 674 388 633 q 581 714 518 714 q 750 638 689 714 q 811 426 811 561 l 811 167 q 822 110 811 128 q 863 74 832 92 l 911 47 l 911 0 l 499 0 l 499 47 l 547 74 q 582 106 574 89 q 590 167 590 124 l 590 383 q 467 540 590 540 q 349 482 404 540 l 349 167 q 357 106 349 124 q 392 74 365 89 l 440 47 l 440 0 m 378 -435 l 347 -399 q 426 -254 426 -312 q 368 -176 426 -204 l 369 -143 q 489 -75 472 -75 q 542 -108 521 -75 q 564 -187 564 -140 q 515 -317 564 -253 q 378 -435 467 -382 z "},"Ň":{"ha":1111,"x_min":58,"x_max":1067,"o":"m 592 1025 l 544 1025 l 363 1271 l 419 1271 l 568 1196 l 717 1271 l 774 1271 l 592 1025 m 964 24 l 865 -21 l 272 697 l 272 167 q 288 111 272 131 q 347 72 303 92 l 400 49 l 400 0 l 58 0 l 58 49 l 104 74 q 150 110 139 92 q 161 167 161 129 l 161 785 q 147 842 161 824 q 101 879 133 861 l 61 901 l 61 951 l 369 951 l 853 361 l 853 783 q 838 839 853 819 q 778 878 822 858 l 725 901 l 725 951 l 1067 951 l 1067 901 l 1021 876 q 975 839 986 857 q 964 783 964 821 l 964 24 z "},"ň":{"ha":928,"x_min":28,"x_max":911,"o":"m 490 804 l 443 804 l 261 1050 l 318 1050 l 467 975 l 615 1050 l 672 1050 l 490 804 m 440 0 l 28 0 l 28 47 l 76 74 q 117 110 107 92 q 128 167 128 128 l 128 433 q 118 506 128 485 q 78 539 108 526 l 33 557 l 33 604 l 288 714 l 331 688 l 331 561 q 453 674 388 633 q 581 714 518 714 q 750 638 689 714 q 811 426 811 561 l 811 167 q 822 110 811 128 q 863 74 832 92 l 911 47 l 911 0 l 499 0 l 499 47 l 547 74 q 582 106 574 89 q 590 167 590 124 l 590 383 q 467 540 590 540 q 349 482 404 540 l 349 167 q 357 106 349 124 q 392 74 365 89 l 440 47 l 440 0 z "},"Ŋ":{"ha":1111,"x_min":58,"x_max":1067,"o":"m 696 -347 l 658 -315 q 743 31 743 -181 l 272 697 l 272 167 q 288 111 272 131 q 347 72 303 92 l 400 49 l 400 0 l 58 0 l 58 49 l 104 74 q 150 110 139 92 q 161 167 161 129 l 161 785 q 147 842 161 824 q 101 879 133 861 l 61 901 l 61 951 l 369 951 l 853 264 l 853 783 q 838 839 853 819 q 778 878 822 858 l 725 901 l 725 951 l 1067 951 l 1067 901 l 1021 876 q 975 839 986 857 q 964 783 964 821 l 964 131 q 905 -167 964 -60 q 696 -347 846 -274 z "},"ŋ":{"ha":928,"x_min":28,"x_max":811,"o":"m 515 -347 l 478 -315 q 569 -132 549 -222 q 590 174 590 -42 l 590 383 q 467 540 590 540 q 349 482 404 540 l 349 167 q 357 106 349 124 q 392 74 365 89 l 440 47 l 440 0 l 28 0 l 28 47 l 76 74 q 117 110 107 92 q 128 167 128 128 l 128 433 q 118 506 128 485 q 78 539 108 526 l 33 557 l 33 604 l 288 714 l 331 688 l 331 561 q 453 674 388 633 q 581 714 518 714 q 750 638 689 714 q 811 426 811 561 l 811 131 q 747 -162 811 -58 q 515 -347 683 -265 z "},"Ō":{"ha":1083,"x_min":54,"x_max":1029,"o":"m 749 1065 l 335 1065 l 335 1181 l 749 1181 l 749 1065 m 542 -14 q 183 115 311 -14 q 54 476 54 244 q 195 824 54 683 q 542 964 336 964 q 901 835 772 964 q 1029 476 1029 707 q 890 126 1029 265 q 542 -14 751 -14 m 370 197 q 404 142 370 197 q 542 88 438 88 q 713 197 646 88 q 781 475 781 307 q 713 753 781 643 q 542 863 646 863 q 370 753 438 863 q 303 475 303 643 q 370 197 303 307 z "},"ō":{"ha":851,"x_min":50,"x_max":801,"o":"m 633 844 l 219 844 l 219 960 l 633 960 l 633 844 m 426 -14 q 154 86 258 -14 q 50 351 50 186 q 160 608 50 501 q 426 714 271 714 q 698 614 594 714 q 801 349 801 514 q 692 92 801 197 q 426 -14 582 -14 m 326 147 q 344 110 326 147 q 426 74 363 74 q 526 146 490 74 q 561 349 561 218 q 526 553 561 479 q 426 626 490 626 q 326 554 361 626 q 290 351 290 482 q 326 147 290 219 z "},"Ő":{"ha":1083,"x_min":54,"x_max":1029,"o":"m 396 1025 l 326 1025 l 453 1271 l 650 1271 l 650 1224 l 396 1025 m 692 1025 l 624 1025 l 749 1271 l 946 1271 l 946 1224 l 692 1025 m 542 -14 q 183 115 311 -14 q 54 476 54 244 q 195 824 54 683 q 542 964 336 964 q 901 835 772 964 q 1029 476 1029 707 q 890 126 1029 265 q 542 -14 751 -14 m 370 197 q 404 142 370 197 q 542 88 438 88 q 713 197 646 88 q 781 475 781 307 q 713 753 781 643 q 542 863 646 863 q 370 753 438 863 q 303 475 303 643 q 370 197 303 307 z "},"ő":{"ha":851,"x_min":50,"x_max":831,"o":"m 281 804 l 211 804 l 338 1050 l 535 1050 l 535 1003 l 281 804 m 576 804 l 508 804 l 633 1050 l 831 1050 l 831 1003 l 576 804 m 426 -14 q 154 86 258 -14 q 50 351 50 186 q 160 608 50 501 q 426 714 271 714 q 698 614 594 714 q 801 349 801 514 q 692 92 801 197 q 426 -14 582 -14 m 326 147 q 344 110 326 147 q 426 74 363 74 q 526 146 490 74 q 561 349 561 218 q 526 553 561 479 q 426 626 490 626 q 326 554 361 626 q 290 351 290 482 q 326 147 290 219 z "},"Œ":{"ha":1556,"x_min":54,"x_max":1501,"o":"m 542 -14 q 183 115 311 -14 q 54 475 54 243 q 195 824 54 682 q 542 965 336 965 q 782 900 674 965 l 782 951 l 1461 951 l 1475 701 l 1424 701 l 1379 764 q 1310 838 1340 818 q 1235 857 1281 857 l 1015 857 l 1015 528 l 1169 528 q 1226 540 1207 528 q 1263 586 1244 551 l 1286 632 l 1336 632 l 1336 301 l 1286 301 l 1264 358 q 1226 418 1247 403 q 1169 433 1206 433 l 1015 433 l 1015 178 q 1033 110 1015 128 q 1101 93 1050 93 l 1238 93 q 1324 111 1296 93 q 1399 193 1353 129 l 1451 269 l 1501 269 l 1467 0 l 782 0 l 782 50 q 542 -14 685 -14 m 370 197 q 404 142 370 197 q 542 88 438 88 q 713 196 646 88 q 781 471 781 304 q 713 753 781 642 q 542 864 646 864 q 370 753 438 864 q 303 474 303 643 q 370 197 303 306 z "},"œ":{"ha":1282,"x_min":50,"x_max":1235,"o":"m 426 -14 q 154 86 258 -14 q 50 351 50 186 q 160 608 50 501 q 426 714 271 714 q 681 624 579 714 q 914 714 778 714 q 1148 628 1061 714 q 1235 394 1235 543 q 1233 361 1235 369 l 796 361 l 796 354 q 853 178 796 239 q 1017 118 911 118 q 1175 169 1090 118 l 1224 110 q 911 -14 1100 -14 q 664 75 756 -14 q 426 -14 564 -14 m 326 147 q 344 110 326 147 q 426 74 363 74 q 526 146 490 74 q 561 349 561 218 q 526 553 561 479 q 426 626 490 626 q 326 554 361 626 q 290 351 290 482 q 326 147 290 219 m 800 447 l 1013 453 q 987 581 1013 536 q 917 626 961 626 q 836 584 864 626 q 800 447 808 542 z "},"Ŕ":{"ha":1010,"x_min":58,"x_max":1010,"o":"m 504 1025 l 429 1025 l 543 1271 l 779 1271 l 779 1224 l 504 1025 m 514 0 l 58 0 l 58 50 l 103 74 q 149 112 138 93 q 161 167 161 131 l 161 785 q 149 841 161 822 q 103 878 138 860 l 58 901 l 58 951 l 526 951 q 801 881 703 951 q 900 686 900 811 q 844 531 900 597 q 685 429 788 464 q 779 340 742 408 l 897 125 q 965 69 915 92 l 1010 50 l 1010 0 l 699 0 l 518 324 q 463 396 485 383 l 396 396 l 396 167 q 411 117 396 136 q 469 74 426 97 l 514 50 l 514 0 m 396 857 l 396 490 l 481 490 q 602 547 553 490 q 651 686 651 604 q 600 806 651 756 q 478 857 549 857 l 396 857 z "},"ŕ":{"ha":660,"x_min":28,"x_max":650,"o":"m 333 804 l 258 804 l 372 1050 l 608 1050 l 608 1003 l 333 804 m 481 0 l 28 0 l 28 47 l 76 74 q 117 110 107 92 q 128 167 128 129 l 128 433 q 117 507 128 486 q 78 539 107 528 l 33 557 l 33 604 l 288 714 l 331 688 l 331 561 q 415 669 361 625 q 519 714 469 714 q 650 661 594 714 l 628 460 l 575 460 q 514 526 539 508 q 456 544 489 544 q 349 482 415 544 l 349 167 q 365 115 349 135 q 425 74 381 96 l 481 47 l 481 0 z "},"Ŗ":{"ha":1010,"x_min":58,"x_max":1010,"o":"m 514 0 l 58 0 l 58 50 l 103 74 q 149 112 138 93 q 161 167 161 131 l 161 785 q 149 841 161 822 q 103 878 138 860 l 58 901 l 58 951 l 526 951 q 801 881 703 951 q 900 686 900 811 q 844 531 900 597 q 685 429 788 464 q 779 340 742 408 l 897 125 q 965 69 915 92 l 1010 50 l 1010 0 l 699 0 l 518 324 q 463 396 485 383 l 396 396 l 396 167 q 411 117 396 136 q 469 74 426 97 l 514 50 l 514 0 m 396 857 l 396 490 l 481 490 q 602 547 553 490 q 651 686 651 604 q 600 806 651 756 q 478 857 549 857 l 396 857 m 436 -435 l 406 -399 q 485 -254 485 -312 q 426 -176 485 -204 l 428 -143 q 547 -75 531 -75 q 601 -108 579 -75 q 622 -187 622 -140 q 574 -317 622 -253 q 436 -435 525 -382 z "},"ŗ":{"ha":660,"x_min":28,"x_max":650,"o":"m 481 0 l 28 0 l 28 47 l 76 74 q 117 110 107 92 q 128 167 128 129 l 128 433 q 117 507 128 486 q 78 539 107 528 l 33 557 l 33 604 l 288 714 l 331 688 l 331 561 q 415 669 361 625 q 519 714 469 714 q 650 661 594 714 l 628 460 l 575 460 q 514 526 539 508 q 456 544 489 544 q 349 482 415 544 l 349 167 q 365 115 349 135 q 425 74 381 96 l 481 47 l 481 0 m 157 -435 l 126 -399 q 206 -254 206 -312 q 147 -176 206 -204 l 149 -143 q 268 -75 251 -75 q 322 -108 300 -75 q 343 -187 343 -140 q 294 -317 343 -253 q 157 -435 246 -382 z "},"Ř":{"ha":1010,"x_min":58,"x_max":1010,"o":"m 549 1025 l 501 1025 l 319 1271 l 376 1271 l 525 1196 l 674 1271 l 731 1271 l 549 1025 m 514 0 l 58 0 l 58 50 l 103 74 q 149 112 138 93 q 161 167 161 131 l 161 785 q 149 841 161 822 q 103 878 138 860 l 58 901 l 58 951 l 526 951 q 801 881 703 951 q 900 686 900 811 q 844 531 900 597 q 685 429 788 464 q 779 340 742 408 l 897 125 q 965 69 915 92 l 1010 50 l 1010 0 l 699 0 l 518 324 q 463 396 485 383 l 396 396 l 396 167 q 411 117 396 136 q 469 74 426 97 l 514 50 l 514 0 m 396 857 l 396 490 l 481 490 q 602 547 553 490 q 651 686 651 604 q 600 806 651 756 q 478 857 549 857 l 396 857 z "},"ř":{"ha":660,"x_min":28,"x_max":650,"o":"m 378 804 l 331 804 l 149 1050 l 206 1050 l 354 975 l 503 1050 l 560 1050 l 378 804 m 481 0 l 28 0 l 28 47 l 76 74 q 117 110 107 92 q 128 167 128 129 l 128 433 q 117 507 128 486 q 78 539 107 528 l 33 557 l 33 604 l 288 714 l 331 688 l 331 561 q 415 669 361 625 q 519 714 469 714 q 650 661 594 714 l 628 460 l 575 460 q 514 526 539 508 q 456 544 489 544 q 349 482 415 544 l 349 167 q 365 115 349 135 q 425 74 381 96 l 481 47 l 481 0 z "},"Ś":{"ha":853,"x_min":89,"x_max":781,"o":"m 401 1025 l 326 1025 l 440 1271 l 676 1271 l 676 1224 l 401 1025 m 425 -14 q 240 10 331 -14 q 89 72 149 33 l 89 350 l 140 350 l 185 265 q 428 88 276 88 q 533 122 490 88 q 575 206 575 156 q 522 300 575 257 q 322 411 469 343 q 146 533 201 467 q 90 689 90 599 q 182 888 90 811 q 418 965 274 965 q 573 948 490 965 q 706 904 656 931 l 722 657 l 671 657 l 629 718 q 407 864 526 864 q 319 837 354 864 q 283 769 283 810 q 330 690 283 728 q 508 585 376 651 q 720 440 660 507 q 781 278 781 372 q 682 67 781 149 q 425 -14 583 -14 z "},"ś":{"ha":656,"x_min":44,"x_max":611,"o":"m 308 804 l 233 804 l 347 1050 l 583 1050 l 583 1003 l 308 804 m 310 -14 q 44 57 153 -14 l 67 249 l 117 249 l 158 186 q 235 99 199 125 q 322 74 271 74 q 389 93 364 74 q 414 150 414 113 q 379 208 414 179 q 243 279 344 236 q 57 499 57 358 q 131 656 57 597 q 328 714 206 714 q 581 665 476 714 l 561 488 l 508 488 q 442 575 486 522 q 333 626 397 626 q 269 610 292 626 q 246 568 246 594 q 280 506 246 532 q 425 431 314 481 q 569 335 528 385 q 611 218 611 286 q 526 51 611 115 q 310 -14 442 -14 z "},"Ş":{"ha":853,"x_min":89,"x_max":781,"o":"m 319 -361 l 296 -329 q 374 -206 374 -261 q 344 -147 374 -169 q 265 -124 314 -125 l 369 -12 q 89 72 194 1 l 89 350 l 140 350 l 185 265 q 428 88 276 88 q 533 122 490 88 q 575 206 575 156 q 522 300 575 257 q 322 411 469 343 q 146 533 201 467 q 90 689 90 599 q 182 888 90 811 q 418 965 274 965 q 573 948 490 965 q 706 904 656 931 l 722 657 l 671 657 l 629 718 q 407 864 526 864 q 319 837 354 864 q 283 769 283 810 q 330 690 283 728 q 508 585 376 651 q 720 440 660 507 q 781 278 781 372 q 688 73 781 153 q 447 -14 596 -7 l 415 -69 q 510 -97 474 -69 q 546 -169 546 -124 q 481 -278 546 -226 q 319 -361 415 -331 z "},"ş":{"ha":656,"x_min":44,"x_max":611,"o":"m 226 -361 l 203 -329 q 281 -206 281 -261 q 251 -147 281 -169 q 172 -124 221 -125 l 276 -12 q 44 57 140 -6 l 67 249 l 117 249 l 158 186 q 235 99 199 125 q 322 74 271 74 q 389 93 364 74 q 414 150 414 113 q 379 208 414 179 q 243 279 344 236 q 57 499 57 358 q 131 656 57 597 q 328 714 206 714 q 581 665 476 714 l 561 488 l 508 488 q 442 575 486 522 q 333 626 397 626 q 269 610 292 626 q 246 568 246 594 q 280 506 246 532 q 425 431 314 481 q 569 335 528 385 q 611 218 611 286 q 540 63 611 125 q 354 -11 468 0 l 322 -69 q 417 -97 381 -69 q 453 -169 453 -124 q 388 -278 453 -226 q 226 -361 322 -331 z "},"Š":{"ha":853,"x_min":89,"x_max":781,"o":"m 446 1025 l 399 1025 l 217 1271 l 274 1271 l 422 1196 l 571 1271 l 628 1271 l 446 1025 m 425 -14 q 240 10 331 -14 q 89 72 149 33 l 89 350 l 140 350 l 185 265 q 428 88 276 88 q 533 122 490 88 q 575 206 575 156 q 522 300 575 257 q 322 411 469 343 q 146 533 201 467 q 90 689 90 599 q 182 888 90 811 q 418 965 274 965 q 573 948 490 965 q 706 904 656 931 l 722 657 l 671 657 l 629 718 q 407 864 526 864 q 319 837 354 864 q 283 769 283 810 q 330 690 283 728 q 508 585 376 651 q 720 440 660 507 q 781 278 781 372 q 682 67 781 149 q 425 -14 583 -14 z "},"š":{"ha":656,"x_min":44,"x_max":611,"o":"m 353 804 l 306 804 l 124 1050 l 181 1050 l 329 975 l 478 1050 l 535 1050 l 353 804 m 310 -14 q 44 57 153 -14 l 67 249 l 117 249 l 158 186 q 235 99 199 125 q 322 74 271 74 q 389 93 364 74 q 414 150 414 113 q 379 208 414 179 q 243 279 344 236 q 57 499 57 358 q 131 656 57 597 q 328 714 206 714 q 581 665 476 714 l 561 488 l 508 488 q 442 575 486 522 q 333 626 397 626 q 269 610 292 626 q 246 568 246 594 q 280 506 246 532 q 425 431 314 481 q 569 335 528 385 q 611 218 611 286 q 526 51 611 115 q 310 -14 442 -14 z "},"Ţ":{"ha":951,"x_min":35,"x_max":917,"o":"m 369 -361 l 346 -329 q 424 -206 424 -261 q 394 -147 424 -169 q 315 -124 364 -125 l 431 0 l 242 0 l 242 50 l 286 74 q 343 117 328 97 q 358 167 358 136 l 358 857 l 293 857 q 213 834 240 857 q 136 731 185 811 l 85 644 l 35 644 l 51 951 l 900 951 l 917 644 l 867 644 l 815 731 q 739 834 767 811 q 657 857 711 857 l 593 857 l 593 167 q 608 115 593 135 q 665 74 622 96 l 710 50 l 710 0 l 504 0 l 465 -69 q 560 -97 524 -69 q 596 -169 596 -124 q 531 -278 596 -226 q 369 -361 465 -331 z "},"ţ":{"ha":544,"x_min":13,"x_max":528,"o":"m 210 -361 l 186 -329 q 264 -206 264 -261 q 234 -147 264 -169 q 156 -124 204 -125 l 261 -11 q 151 57 182 -1 q 119 249 119 115 l 119 593 l 13 593 l 13 679 l 142 704 l 292 901 l 340 874 l 340 700 l 517 700 l 517 593 l 340 593 l 340 290 q 360 149 340 189 q 431 108 381 108 q 508 124 467 108 l 528 51 q 338 -12 454 -1 l 306 -69 q 400 -97 364 -69 q 436 -169 436 -124 q 371 -278 436 -226 q 210 -361 306 -331 z "},"Ť":{"ha":951,"x_min":35,"x_max":917,"o":"m 496 1025 l 449 1025 l 267 1271 l 324 1271 l 472 1196 l 621 1271 l 678 1271 l 496 1025 m 710 0 l 242 0 l 242 50 l 286 74 q 343 117 328 97 q 358 167 358 136 l 358 857 l 293 857 q 213 834 240 857 q 136 731 185 811 l 85 644 l 35 644 l 51 951 l 900 951 l 917 644 l 867 644 l 815 731 q 739 834 767 811 q 657 857 711 857 l 593 857 l 593 167 q 608 115 593 135 q 665 74 622 96 l 710 50 l 710 0 z "},"ť":{"ha":544,"x_min":13,"x_max":579,"o":"m 460 779 l 407 779 l 407 1043 l 579 1043 l 579 996 l 460 779 m 300 -14 q 159 43 199 -14 q 119 249 119 100 l 119 593 l 13 593 l 13 679 l 142 704 l 292 901 l 340 874 l 340 700 l 517 700 l 517 593 l 340 593 l 340 290 q 360 149 340 189 q 431 108 381 108 q 508 124 467 108 l 528 51 q 426 4 489 22 q 300 -14 364 -14 z "},"Ŧ":{"ha":951,"x_min":35,"x_max":917,"o":"m 85 644 l 35 644 l 51 951 l 900 951 l 917 644 l 867 644 l 815 731 q 739 834 767 811 q 657 857 711 857 l 593 857 l 593 510 l 778 510 l 778 426 l 593 426 l 593 167 q 608 115 593 135 q 665 74 622 96 l 710 50 l 710 0 l 242 0 l 242 50 l 286 74 q 343 117 328 97 q 358 167 358 136 l 358 426 l 174 426 l 174 510 l 358 510 l 358 857 l 293 857 q 213 834 240 857 q 136 731 185 811 l 85 644 z "},"ŧ":{"ha":544,"x_min":13,"x_max":528,"o":"m 119 593 l 13 593 l 13 679 l 142 704 l 292 901 l 340 874 l 340 700 l 517 700 l 517 593 l 340 593 l 340 442 l 478 442 l 478 353 l 340 353 l 340 290 q 360 149 340 189 q 431 108 381 108 q 508 124 467 108 l 528 51 q 426 4 489 22 q 300 -14 364 -14 q 159 43 199 -14 q 119 249 119 100 l 119 353 l 24 353 l 24 442 l 119 442 l 119 593 z "},"Ũ":{"ha":1085,"x_min":51,"x_max":1040,"o":"m 428 1035 l 374 1035 q 415 1187 374 1124 q 517 1250 457 1250 q 617 1218 558 1250 q 717 1186 678 1186 q 757 1201 743 1186 q 781 1254 771 1215 l 835 1254 q 794 1104 835 1165 q 694 1043 754 1043 q 585 1076 642 1043 q 500 1110 526 1110 q 428 1035 440 1110 m 564 -14 q 211 124 304 -14 q 168 252 181 171 q 156 494 156 333 l 156 783 q 144 838 156 819 q 96 876 132 857 l 51 901 l 51 951 l 493 951 l 493 901 l 449 876 q 401 838 413 857 q 389 783 389 819 l 389 442 q 440 180 389 260 q 607 100 490 100 q 777 182 726 100 q 828 460 828 264 l 828 783 q 816 838 828 819 q 768 876 804 857 l 724 901 l 724 951 l 1040 951 l 1040 901 l 996 876 q 949 839 961 857 q 938 783 938 821 l 938 494 q 872 128 938 229 q 564 -14 782 -14 z "},"ũ":{"ha":913,"x_min":21,"x_max":903,"o":"m 269 814 l 215 814 q 257 966 215 903 q 358 1029 299 1029 q 458 997 400 1029 q 558 965 519 965 q 599 980 585 965 q 622 1033 613 994 l 676 1033 q 636 883 676 944 q 536 822 596 822 q 426 856 483 822 q 342 889 368 889 q 269 814 282 889 m 354 -14 q 175 58 236 -14 q 114 268 114 129 l 114 433 q 104 505 114 485 q 65 538 94 525 l 21 557 l 21 604 l 292 714 l 336 686 l 336 311 q 365 184 336 222 q 458 146 393 146 q 563 196 515 146 l 563 433 q 553 505 563 485 q 514 538 543 525 l 469 557 l 469 604 l 742 714 l 785 686 l 785 208 q 797 163 785 175 q 849 142 808 151 l 893 132 l 903 81 l 651 -14 l 614 -14 l 569 101 q 354 -14 481 -14 z "},"Ū":{"ha":1085,"x_min":51,"x_max":1040,"o":"m 811 1065 l 397 1065 l 397 1181 l 811 1181 l 811 1065 m 564 -14 q 211 124 304 -14 q 168 252 181 171 q 156 494 156 333 l 156 783 q 144 838 156 819 q 96 876 132 857 l 51 901 l 51 951 l 493 951 l 493 901 l 449 876 q 401 838 413 857 q 389 783 389 819 l 389 442 q 440 180 389 260 q 607 100 490 100 q 777 182 726 100 q 828 460 828 264 l 828 783 q 816 838 828 819 q 768 876 804 857 l 724 901 l 724 951 l 1040 951 l 1040 901 l 996 876 q 949 839 961 857 q 938 783 938 821 l 938 494 q 872 128 938 229 q 564 -14 782 -14 z "},"ū":{"ha":913,"x_min":21,"x_max":903,"o":"m 653 844 l 239 844 l 239 960 l 653 960 l 653 844 m 354 -14 q 175 58 236 -14 q 114 268 114 129 l 114 433 q 104 505 114 485 q 65 538 94 525 l 21 557 l 21 604 l 292 714 l 336 686 l 336 311 q 365 184 336 222 q 458 146 393 146 q 563 196 515 146 l 563 433 q 553 505 563 485 q 514 538 543 525 l 469 557 l 469 604 l 742 714 l 785 686 l 785 208 q 797 163 785 175 q 849 142 808 151 l 893 132 l 903 81 l 651 -14 l 614 -14 l 569 101 q 354 -14 481 -14 z "},"Ů":{"ha":1085,"x_min":51,"x_max":1040,"o":"m 604 1003 q 479 1041 528 1003 q 431 1140 431 1079 q 478 1240 431 1203 q 603 1278 525 1278 q 727 1240 679 1278 q 775 1140 775 1201 q 728 1040 775 1078 q 604 1003 682 1003 m 604 1060 q 653 1082 635 1060 q 672 1140 672 1104 q 652 1197 672 1174 q 603 1221 632 1221 q 553 1199 572 1221 q 535 1140 535 1176 q 555 1083 535 1107 q 604 1060 575 1060 m 564 -14 q 211 124 304 -14 q 168 252 181 171 q 156 494 156 333 l 156 783 q 144 838 156 819 q 96 876 132 857 l 51 901 l 51 951 l 493 951 l 493 901 l 449 876 q 401 838 413 857 q 389 783 389 819 l 389 442 q 440 180 389 260 q 607 100 490 100 q 777 182 726 100 q 828 460 828 264 l 828 783 q 816 838 828 819 q 768 876 804 857 l 724 901 l 724 951 l 1040 951 l 1040 901 l 996 876 q 949 839 961 857 q 938 783 938 821 l 938 494 q 872 128 938 229 q 564 -14 782 -14 z "},"ů":{"ha":913,"x_min":21,"x_max":903,"o":"m 446 782 q 321 820 369 782 q 272 919 272 858 q 319 1019 272 982 q 444 1057 367 1057 q 569 1019 521 1057 q 617 919 617 981 q 570 819 617 857 q 446 782 524 782 m 446 839 q 495 861 476 839 q 514 919 514 883 q 494 976 514 953 q 444 1000 474 1000 q 395 978 414 1000 q 376 919 376 956 q 397 863 376 886 q 446 839 417 839 m 354 -14 q 175 58 236 -14 q 114 268 114 129 l 114 433 q 104 505 114 485 q 65 538 94 525 l 21 557 l 21 604 l 292 714 l 336 686 l 336 311 q 365 184 336 222 q 458 146 393 146 q 563 196 515 146 l 563 433 q 553 505 563 485 q 514 538 543 525 l 469 557 l 469 604 l 742 714 l 785 686 l 785 208 q 797 163 785 175 q 849 142 808 151 l 893 132 l 903 81 l 651 -14 l 614 -14 l 569 101 q 354 -14 481 -14 z "},"Ű":{"ha":1085,"x_min":51,"x_max":1040,"o":"m 458 1025 l 389 1025 l 515 1271 l 713 1271 l 713 1224 l 458 1025 m 754 1025 l 686 1025 l 811 1271 l 1008 1271 l 1008 1224 l 754 1025 m 564 -14 q 211 124 304 -14 q 168 252 181 171 q 156 494 156 333 l 156 783 q 144 838 156 819 q 96 876 132 857 l 51 901 l 51 951 l 493 951 l 493 901 l 449 876 q 401 838 413 857 q 389 783 389 819 l 389 442 q 440 180 389 260 q 607 100 490 100 q 777 182 726 100 q 828 460 828 264 l 828 783 q 816 838 828 819 q 768 876 804 857 l 724 901 l 724 951 l 1040 951 l 1040 901 l 996 876 q 949 839 961 857 q 938 783 938 821 l 938 494 q 872 128 938 229 q 564 -14 782 -14 z "},"ű":{"ha":913,"x_min":21,"x_max":903,"o":"m 300 804 l 231 804 l 357 1050 l 554 1050 l 554 1003 l 300 804 m 596 804 l 528 804 l 653 1050 l 850 1050 l 850 1003 l 596 804 m 354 -14 q 175 58 236 -14 q 114 268 114 129 l 114 433 q 104 505 114 485 q 65 538 94 525 l 21 557 l 21 604 l 292 714 l 336 686 l 336 311 q 365 184 336 222 q 458 146 393 146 q 563 196 515 146 l 563 433 q 553 505 563 485 q 514 538 543 525 l 469 557 l 469 604 l 742 714 l 785 686 l 785 208 q 797 163 785 175 q 849 142 808 151 l 893 132 l 903 81 l 651 -14 l 614 -14 l 569 101 q 354 -14 481 -14 z "},"Ų":{"ha":1085,"x_min":51,"x_max":1040,"o":"m 549 -340 q 414 -300 468 -340 q 360 -201 360 -260 q 403 -101 360 -146 q 542 -14 447 -56 q 211 124 300 -8 q 168 252 181 171 q 156 494 156 333 l 156 783 q 144 838 156 819 q 96 876 132 857 l 51 901 l 51 951 l 493 951 l 493 901 l 449 876 q 401 838 413 857 q 389 783 389 819 l 389 442 q 440 180 389 260 q 607 100 490 100 q 777 182 726 100 q 828 460 828 264 l 828 783 q 816 838 828 819 q 768 876 804 857 l 724 901 l 724 951 l 1040 951 l 1040 901 l 996 876 q 949 839 961 857 q 938 783 938 821 l 938 494 q 872 128 938 229 q 654 -7 803 18 q 529 -182 529 -86 q 638 -257 529 -257 q 685 -253 656 -257 l 688 -307 q 549 -340 621 -340 z "},"ų":{"ha":913,"x_min":21,"x_max":903,"o":"m 354 -14 q 175 58 236 -14 q 114 268 114 129 l 114 433 q 104 505 114 485 q 65 538 94 525 l 21 557 l 21 604 l 292 714 l 336 686 l 336 311 q 365 184 336 222 q 458 146 393 146 q 563 196 515 146 l 563 433 q 553 505 563 485 q 514 538 543 525 l 469 557 l 469 604 l 742 714 l 785 686 l 785 208 q 797 163 785 175 q 849 142 808 151 l 893 132 l 903 81 l 722 13 q 622 -74 658 -26 q 586 -169 586 -122 q 694 -244 586 -244 q 742 -240 713 -244 l 744 -294 q 606 -328 678 -328 q 471 -287 525 -328 q 417 -189 417 -247 q 607 3 417 -79 l 569 101 q 354 -14 481 -14 z "},"Ŵ":{"ha":1451,"x_min":3,"x_max":1449,"o":"m 636 1024 l 579 1024 l 761 1269 l 808 1269 l 990 1024 l 933 1024 l 785 1097 l 636 1024 m 501 29 l 401 -14 l 121 781 q 90 843 106 824 q 47 878 75 863 l 3 903 l 3 951 l 447 951 l 447 903 l 403 881 q 369 858 379 868 q 360 832 360 849 q 371 781 360 817 l 515 344 l 728 925 l 833 951 l 1057 349 l 1200 771 q 1217 833 1217 818 q 1171 882 1217 864 l 1119 903 l 1119 951 l 1449 951 l 1449 903 l 1390 875 q 1315 769 1344 853 l 1051 29 l 961 -14 l 714 621 l 501 29 z "},"ŵ":{"ha":1153,"x_min":-25,"x_max":1182,"o":"m 478 804 l 421 804 l 603 1050 l 650 1050 l 832 804 l 775 804 l 626 878 l 478 804 m 418 38 l 293 -14 l 74 551 q 50 594 64 579 q 4 632 36 610 l -25 653 l -25 700 l 400 700 l 400 653 l 364 638 q 317 592 317 619 q 325 547 317 572 l 413 281 l 569 668 l 694 700 l 871 279 l 965 547 q 975 592 975 576 q 929 638 975 621 l 893 653 l 893 700 l 1182 700 l 1182 653 l 1139 625 q 1099 593 1110 607 q 1078 554 1088 579 l 883 38 l 763 -14 l 574 410 l 418 38 z "},"Ŷ":{"ha":954,"x_min":3,"x_max":951,"o":"m 388 1025 l 331 1025 l 513 1271 l 560 1271 l 742 1025 l 685 1025 l 536 1099 l 388 1025 m 717 0 l 247 0 l 247 50 l 292 74 q 350 117 335 97 q 365 167 365 136 l 365 354 l 121 781 q 77 852 89 836 q 47 878 65 868 l 3 901 l 3 951 l 451 951 l 451 901 l 407 881 q 364 839 364 860 q 385 789 364 826 l 551 497 l 694 771 q 717 835 717 814 q 667 882 717 864 l 615 901 l 615 951 l 951 951 l 951 901 l 892 875 q 831 800 867 864 l 600 379 l 600 167 q 615 115 600 135 q 672 74 629 96 l 717 50 l 717 0 z "},"ŷ":{"ha":781,"x_min":-24,"x_max":804,"o":"m 311 771 l 254 771 l 436 1017 l 483 1017 l 665 771 l 608 771 l 460 844 l 311 771 m 201 -347 l 38 -225 l 57 -182 q 333 -10 243 -133 l 75 553 q 48 599 60 586 q 6 633 36 613 l -24 654 l -24 700 l 406 700 l 406 654 l 369 639 q 324 593 324 619 q 336 549 324 575 l 463 250 l 586 549 q 599 593 599 575 q 553 639 599 618 l 517 654 l 517 700 l 804 700 l 804 654 l 761 625 q 697 556 715 597 l 488 74 q 346 -192 413 -96 q 201 -347 279 -289 z "},"Ÿ":{"ha":954,"x_min":3,"x_max":951,"o":"m 381 1046 q 301 1079 332 1046 q 269 1161 269 1113 q 302 1240 269 1208 q 381 1271 335 1271 q 462 1240 429 1271 q 494 1161 494 1210 q 463 1077 494 1108 q 381 1046 432 1046 m 690 1046 q 610 1079 640 1046 q 579 1161 579 1113 q 611 1240 579 1210 q 690 1271 643 1271 q 771 1240 739 1271 q 803 1161 803 1210 q 772 1077 803 1108 q 690 1046 742 1046 m 717 0 l 247 0 l 247 50 l 292 74 q 350 117 335 97 q 365 167 365 136 l 365 354 l 121 781 q 77 852 89 836 q 47 878 65 868 l 3 901 l 3 951 l 451 951 l 451 901 l 407 881 q 364 839 364 860 q 385 789 364 826 l 551 497 l 694 771 q 717 835 717 814 q 667 882 717 864 l 615 901 l 615 951 l 951 951 l 951 901 l 892 875 q 831 800 867 864 l 600 379 l 600 167 q 615 115 600 135 q 672 74 629 96 l 717 50 l 717 0 z "},"Ź":{"ha":897,"x_min":40,"x_max":857,"o":"m 438 1025 l 363 1025 l 476 1271 l 713 1271 l 713 1224 l 438 1025 m 821 0 l 49 0 l 40 94 l 546 857 l 325 857 q 243 834 271 857 q 167 731 215 811 l 115 644 l 67 644 l 82 951 l 813 951 l 822 857 l 311 94 l 578 94 q 661 116 633 94 q 754 232 689 138 l 807 307 l 857 307 l 821 0 z "},"ź":{"ha":722,"x_min":40,"x_max":682,"o":"m 351 804 l 276 804 l 390 1050 l 626 1050 l 626 1003 l 351 804 m 651 0 l 54 0 l 40 90 l 408 610 l 319 610 q 160 522 218 610 l 110 444 l 56 444 l 81 700 l 654 700 l 668 611 l 303 90 l 419 90 q 588 204 514 90 l 632 274 l 682 274 l 651 0 z "},"Ż":{"ha":897,"x_min":40,"x_max":857,"o":"m 542 1072 q 526 1056 542 1072 q 458 1040 510 1040 q 375 1074 407 1040 q 343 1157 343 1108 q 376 1240 343 1208 q 458 1272 410 1272 q 540 1240 507 1272 q 574 1157 574 1208 q 542 1072 574 1104 m 821 0 l 49 0 l 40 94 l 546 857 l 325 857 q 243 834 271 857 q 167 731 215 811 l 115 644 l 67 644 l 82 951 l 813 951 l 822 857 l 311 94 l 578 94 q 661 116 633 94 q 754 232 689 138 l 807 307 l 857 307 l 821 0 z "},"ż":{"ha":722,"x_min":40,"x_max":682,"o":"m 456 851 q 440 835 456 851 q 372 819 424 819 q 289 853 321 819 q 257 936 257 888 q 290 1019 257 988 q 372 1051 324 1051 q 454 1019 421 1051 q 488 936 488 988 q 456 851 488 883 m 651 0 l 54 0 l 40 90 l 408 610 l 319 610 q 160 522 218 610 l 110 444 l 56 444 l 81 700 l 654 700 l 668 611 l 303 90 l 419 90 q 588 204 514 90 l 632 274 l 682 274 l 651 0 z "},"Ž":{"ha":897,"x_min":40,"x_max":857,"o":"m 482 1025 l 435 1025 l 253 1271 l 310 1271 l 458 1196 l 607 1271 l 664 1271 l 482 1025 m 821 0 l 49 0 l 40 94 l 546 857 l 325 857 q 243 834 271 857 q 167 731 215 811 l 115 644 l 67 644 l 82 951 l 813 951 l 822 857 l 311 94 l 578 94 q 661 116 633 94 q 754 232 689 138 l 807 307 l 857 307 l 821 0 z "},"ž":{"ha":722,"x_min":40,"x_max":682,"o":"m 396 804 l 349 804 l 167 1050 l 224 1050 l 372 975 l 521 1050 l 578 1050 l 396 804 m 651 0 l 54 0 l 40 90 l 408 610 l 319 610 q 160 522 218 610 l 110 444 l 56 444 l 81 700 l 654 700 l 668 611 l 303 90 l 419 90 q 588 204 514 90 l 632 274 l 682 274 l 651 0 z "},"ƒ":{"ha":874,"x_min":4,"x_max":869,"o":"m 189 -347 q 4 -301 103 -347 l 44 -114 l 88 -114 q 189 -251 135 -251 q 249 -200 226 -251 q 289 -24 271 -149 l 350 396 l 222 396 l 236 481 l 367 504 l 388 679 q 481 892 404 819 q 685 965 557 965 q 869 919 768 965 l 829 732 l 786 732 q 685 869 736 869 q 624 817 647 869 q 585 642 600 764 l 567 501 l 750 501 l 738 396 l 553 396 l 485 -61 q 189 -347 443 -347 z "},"Ș":{"ha":853,"x_min":89,"x_max":781,"o":"m 425 -14 q 240 10 331 -14 q 89 72 149 33 l 89 350 l 140 350 l 185 265 q 428 88 276 88 q 533 122 490 88 q 575 206 575 156 q 522 300 575 257 q 322 411 469 343 q 146 533 201 467 q 90 689 90 599 q 182 888 90 811 q 418 965 274 965 q 573 948 490 965 q 706 904 656 931 l 722 657 l 671 657 l 629 718 q 407 864 526 864 q 319 837 354 864 q 283 769 283 810 q 330 690 283 728 q 508 585 376 651 q 720 440 660 507 q 781 278 781 372 q 682 67 781 149 q 425 -14 583 -14 m 333 -435 l 303 -399 q 382 -254 382 -312 q 324 -176 382 -204 l 325 -143 q 444 -75 428 -75 q 498 -108 476 -75 q 519 -187 519 -140 q 471 -317 519 -253 q 333 -435 422 -382 z "},"ș":{"ha":656,"x_min":44,"x_max":611,"o":"m 310 -14 q 44 57 153 -14 l 67 249 l 117 249 l 158 186 q 235 99 199 125 q 322 74 271 74 q 389 93 364 74 q 414 150 414 113 q 379 208 414 179 q 243 279 344 236 q 57 499 57 358 q 131 656 57 597 q 328 714 206 714 q 581 665 476 714 l 561 488 l 508 488 q 442 575 486 522 q 333 626 397 626 q 269 610 292 626 q 246 568 246 594 q 280 506 246 532 q 425 431 314 481 q 569 335 528 385 q 611 218 611 286 q 526 51 611 115 q 310 -14 442 -14 m 240 -435 l 210 -399 q 289 -254 289 -312 q 231 -176 289 -204 l 232 -143 q 351 -75 335 -75 q 405 -108 383 -75 q 426 -187 426 -140 q 378 -317 426 -253 q 240 -435 329 -382 z "},"Ț":{"ha":951,"x_min":35,"x_max":917,"o":"m 710 0 l 242 0 l 242 50 l 286 74 q 343 117 328 97 q 358 167 358 136 l 358 857 l 293 857 q 213 834 240 857 q 136 731 185 811 l 85 644 l 35 644 l 51 951 l 900 951 l 917 644 l 867 644 l 815 731 q 739 834 767 811 q 657 857 711 857 l 593 857 l 593 167 q 608 115 593 135 q 665 74 622 96 l 710 50 l 710 0 m 383 -435 l 353 -399 q 432 -254 432 -312 q 374 -176 432 -204 l 375 -143 q 494 -75 478 -75 q 548 -108 526 -75 q 569 -187 569 -140 q 521 -317 569 -253 q 383 -435 472 -382 z "},"ț":{"ha":544,"x_min":13,"x_max":528,"o":"m 300 -14 q 159 43 199 -14 q 119 249 119 100 l 119 593 l 13 593 l 13 679 l 142 704 l 292 901 l 340 874 l 340 700 l 517 700 l 517 593 l 340 593 l 340 290 q 360 149 340 189 q 431 108 381 108 q 508 124 467 108 l 528 51 q 426 4 489 22 q 300 -14 364 -14 m 224 -435 l 193 -399 q 272 -254 272 -312 q 214 -176 272 -204 l 215 -143 q 335 -75 318 -75 q 388 -108 367 -75 q 410 -187 410 -140 q 361 -317 410 -253 q 224 -435 313 -382 z "},"ʻ":{"ha":674,"x_min":258,"x_max":475,"o":"m 335 771 q 281 803 303 771 q 258 883 258 836 q 307 1013 258 949 q 444 1131 356 1078 l 475 1094 q 396 950 396 1008 q 454 872 396 900 l 453 839 q 335 771 350 771 z "},"ˆ":{"ha":674,"x_min":131,"x_max":543,"o":"m 189 804 l 131 804 l 313 1050 l 361 1050 l 543 804 l 485 804 l 338 878 l 189 804 z "},"ˇ":{"ha":674,"x_min":131,"x_max":543,"o":"m 361 804 l 313 804 l 131 1050 l 189 1050 l 338 975 l 485 1050 l 543 1050 l 361 804 z "},"˘":{"ha":674,"x_min":139,"x_max":535,"o":"m 487 855 q 463 830 487 855 q 338 804 439 804 q 188 855 236 804 q 139 1015 139 906 q 140 1050 139 1042 l 190 1050 q 233 969 199 993 q 338 944 268 944 q 440 969 406 944 q 483 1050 475 993 l 533 1050 q 535 1015 535 1042 q 487 855 535 906 z "},"˙":{"ha":674,"x_min":221,"x_max":453,"o":"m 421 851 q 405 835 421 851 q 338 819 389 819 q 253 853 286 819 q 221 936 221 888 q 255 1019 221 988 q 338 1051 289 1051 q 419 1019 386 1051 q 453 936 453 988 q 421 851 453 883 z "},"˚":{"ha":674,"x_min":163,"x_max":508,"o":"m 338 782 q 212 820 261 782 q 163 919 163 858 q 210 1019 163 982 q 336 1057 258 1057 q 460 1019 413 1057 q 508 919 508 981 q 462 819 508 857 q 338 782 415 782 m 287 863 q 297 851 287 863 q 338 839 307 839 q 386 861 368 839 q 404 919 404 883 q 385 976 404 953 q 336 1000 365 1000 q 285 978 304 1000 q 267 919 267 956 q 287 863 267 886 z "},"˛":{"ha":674,"x_min":31,"x_max":360,"o":"m 219 -340 q 85 -300 139 -340 q 31 -201 31 -260 q 83 -93 31 -142 q 246 0 135 -44 l 338 0 q 201 -182 201 -81 q 308 -257 201 -257 q 356 -253 328 -257 l 360 -307 q 219 -340 293 -340 z "},"˜":{"ha":674,"x_min":107,"x_max":567,"o":"m 160 814 l 107 814 q 148 967 107 904 q 249 1029 189 1029 q 349 997 281 1029 q 449 965 413 965 q 490 980 475 965 q 514 1033 504 994 l 567 1033 q 526 883 567 943 q 426 822 486 822 q 318 856 381 822 q 233 889 257 889 q 160 814 172 889 z "},"˝":{"ha":674,"x_min":128,"x_max":747,"o":"m 197 804 l 128 804 l 254 1050 l 451 1050 l 451 1003 l 197 804 m 493 804 l 425 804 l 550 1050 l 747 1050 l 747 1003 l 493 804 z "},"̀":{"ha":0,"x_min":-253,"x_max":97,"o":"m 97 804 l 22 804 l -253 1003 l -253 1050 l -17 1050 l 97 804 z "},"́":{"ha":0,"x_min":-96,"x_max":254,"o":"m -21 804 l -96 804 l 18 1050 l 254 1050 l 254 1003 l -21 804 z "},"̂":{"ha":0,"x_min":-206,"x_max":206,"o":"m -149 804 l -206 804 l -24 1050 l 24 1050 l 206 804 l 149 804 l 0 878 l -149 804 z "},"̃":{"ha":0,"x_min":-231,"x_max":231,"o":"m -176 814 l -231 814 q -189 966 -231 903 q -87 1029 -147 1029 q 13 997 -46 1029 q 113 965 74 965 q 153 980 139 965 q 176 1033 167 994 l 231 1033 q 190 883 231 944 q 90 822 150 822 q -19 856 38 822 q -104 889 -78 889 q -176 814 -164 889 z "},"̄":{"ha":0,"x_min":-207,"x_max":207,"o":"m 207 844 l -207 844 l -207 960 l 207 960 l 207 844 z "},"̆":{"ha":0,"x_min":-199,"x_max":199,"o":"m 150 855 q 126 830 150 855 q 0 804 101 804 q -150 855 -101 804 q -199 1015 -199 906 q -197 1050 -199 1042 l -147 1050 q -104 969 -139 993 q 0 944 -69 944 q 104 969 69 944 q 147 1050 139 993 l 197 1050 q 199 1015 199 1042 q 150 855 199 906 z "},"̇":{"ha":0,"x_min":-115,"x_max":115,"o":"m 83 851 q 67 835 83 851 q 0 819 51 819 q -83 853 -51 819 q -115 936 -115 888 q -82 1019 -115 988 q 0 1051 -49 1051 q 82 1019 49 1051 q 115 936 115 988 q 83 851 115 883 z "},"̈":{"ha":0,"x_min":-267,"x_max":267,"o":"m -156 825 q -235 858 -204 825 q -267 940 -267 892 q -234 1019 -267 988 q -156 1050 -201 1050 q -74 1019 -107 1050 q -42 940 -42 989 q -73 856 -42 888 q -156 825 -104 825 m 154 825 q 74 858 104 825 q 43 940 43 892 q 75 1019 43 989 q 154 1050 107 1050 q 235 1019 203 1050 q 267 940 267 989 q 236 856 267 888 q 154 825 206 825 z "},"̊":{"ha":0,"x_min":-174,"x_max":171,"o":"m 0 782 q -125 820 -76 782 q -174 919 -174 858 q -126 1019 -174 982 q -1 1057 -79 1057 q 123 1019 75 1057 q 171 919 171 981 q 124 819 171 857 q 0 782 78 782 m 0 839 q 49 861 31 839 q 68 919 68 883 q 48 976 68 953 q -1 1000 28 1000 q -51 978 -32 1000 q -69 919 -69 956 q -49 863 -69 886 q 0 839 -29 839 z "},"̋":{"ha":0,"x_min":-215,"x_max":404,"o":"m -146 804 l -215 804 l -89 1050 l 108 1050 l 108 1003 l -146 804 m 150 804 l 82 804 l 207 1050 l 404 1050 l 404 1003 l 150 804 z "},"̌":{"ha":0,"x_min":-206,"x_max":206,"o":"m 24 804 l -24 804 l -206 1050 l -149 1050 l 0 975 l 149 1050 l 206 1050 l 24 804 z "},"̒":{"ha":278,"x_min":31,"x_max":247,"o":"m 106 771 q 52 803 74 771 q 31 883 31 836 q 79 1014 31 949 q 217 1131 128 1079 l 247 1094 q 168 950 168 1011 q 225 872 168 900 l 224 839 q 106 771 124 771 z "},"̓":{"ha":0,"x_min":-78,"x_max":139,"o":"m -3 771 q -56 803 -35 771 q -78 883 -78 836 q -29 1014 -78 949 q 108 1131 19 1079 l 139 1094 q 60 950 60 1011 q 117 872 60 900 l 115 839 q -3 771 15 771 z "},"̦":{"ha":0,"x_min":-119,"x_max":97,"o":"m -89 -435 l -119 -399 q -40 -254 -40 -312 q -99 -176 -40 -204 l -97 -143 q 22 -75 6 -75 q 76 -108 54 -75 q 97 -187 97 -140 q 49 -317 97 -253 q -89 -435 0 -382 z "},"̧":{"ha":0,"x_min":-157,"x_max":124,"o":"m -103 -361 l -126 -329 q -49 -206 -49 -261 q -78 -147 -49 -169 q -157 -124 -108 -125 l -11 32 l 50 32 l -7 -69 q 88 -97 51 -69 q 124 -169 124 -124 q 58 -278 124 -226 q -103 -361 -7 -331 z "},"̨":{"ha":0,"x_min":-306,"x_max":22,"o":"m -117 -340 q -251 -300 -197 -340 q -306 -201 -306 -260 q -254 -93 -306 -142 q -92 0 -203 -44 l 0 0 q -100 -87 -64 -39 q -136 -182 -136 -135 q -28 -257 -136 -257 q 19 -253 -10 -257 l 22 -307 q -117 -340 -44 -340 z "},"Δ":{"ha":1011,"x_min":53,"x_max":958,"o":"m 958 0 l 53 0 l 53 46 l 419 932 l 586 965 l 958 47 l 958 0 m 426 710 l 171 97 l 682 97 l 426 710 z "},"Ω":{"ha":1185,"x_min":81,"x_max":1104,"o":"m 511 0 l 108 0 l 81 257 l 125 257 l 185 186 q 224 155 206 161 q 296 149 242 149 l 424 149 q 191 331 285 213 q 97 561 97 449 q 235 853 97 740 q 593 965 374 965 q 950 853 811 965 q 1089 561 1089 740 q 995 331 1089 449 q 763 149 901 213 l 889 149 q 962 155 944 149 q 1001 186 979 161 l 1060 257 l 1104 257 l 1078 0 l 675 0 l 651 172 q 792 330 740 231 q 844 553 844 429 q 776 778 844 693 q 593 864 707 864 q 410 778 479 864 q 340 553 340 693 q 393 330 340 429 q 535 172 446 231 l 511 0 z "},"μ":{"ha":899,"x_min":101,"x_max":889,"o":"m 308 -260 l 101 -260 l 101 700 l 322 700 l 322 311 q 351 184 322 222 q 444 146 379 146 q 550 196 500 146 l 550 700 l 771 700 l 771 208 q 783 162 771 175 q 835 140 796 149 l 879 132 l 889 81 l 639 -14 l 601 -14 l 557 101 q 340 -14 467 -14 q 232 6 278 -14 l 308 -215 l 308 -260 z "},"π":{"ha":913,"x_min":54,"x_max":858,"o":"m 357 0 l 176 0 l 151 46 l 258 511 l 172 511 l 103 442 l 54 454 l 117 682 q 201 700 146 700 l 694 700 q 775 736 753 700 l 808 788 l 858 779 l 801 511 l 642 511 l 679 261 q 710 194 686 214 q 793 171 735 175 l 847 167 l 854 114 l 701 0 q 582 31 624 0 q 540 118 540 63 l 540 511 l 357 511 l 357 0 z "},"Ẁ":{"ha":1451,"x_min":3,"x_max":1449,"o":"m 882 1024 l 807 1024 l 532 1222 l 532 1269 l 768 1269 l 882 1024 m 501 29 l 401 -14 l 121 781 q 90 843 106 824 q 47 878 75 863 l 3 903 l 3 951 l 447 951 l 447 903 l 403 881 q 369 858 379 868 q 360 832 360 849 q 371 781 360 817 l 515 344 l 728 925 l 833 951 l 1057 349 l 1200 771 q 1217 833 1217 818 q 1171 882 1217 864 l 1119 903 l 1119 951 l 1449 951 l 1449 903 l 1390 875 q 1315 769 1344 853 l 1051 29 l 961 -14 l 714 621 l 501 29 z "},"ẁ":{"ha":1153,"x_min":-25,"x_max":1182,"o":"m 724 804 l 649 804 l 374 1003 l 374 1050 l 610 1050 l 724 804 m 418 38 l 293 -14 l 74 551 q 50 594 64 579 q 4 632 36 610 l -25 653 l -25 700 l 400 700 l 400 653 l 364 638 q 317 592 317 619 q 325 547 317 572 l 413 281 l 569 668 l 694 700 l 871 279 l 965 547 q 975 592 975 576 q 929 638 975 621 l 893 653 l 893 700 l 1182 700 l 1182 653 l 1139 625 q 1099 593 1110 607 q 1078 554 1088 579 l 883 38 l 763 -14 l 574 410 l 418 38 z "},"Ẃ":{"ha":1451,"x_min":3,"x_max":1449,"o":"m 764 1024 l 689 1024 l 803 1269 l 1039 1269 l 1039 1222 l 764 1024 m 501 29 l 401 -14 l 121 781 q 90 843 106 824 q 47 878 75 863 l 3 903 l 3 951 l 447 951 l 447 903 l 403 881 q 369 858 379 868 q 360 832 360 849 q 371 781 360 817 l 515 344 l 728 925 l 833 951 l 1057 349 l 1200 771 q 1217 833 1217 818 q 1171 882 1217 864 l 1119 903 l 1119 951 l 1449 951 l 1449 903 l 1390 875 q 1315 769 1344 853 l 1051 29 l 961 -14 l 714 621 l 501 29 z "},"ẃ":{"ha":1153,"x_min":-25,"x_max":1182,"o":"m 606 804 l 531 804 l 644 1050 l 881 1050 l 881 1003 l 606 804 m 418 38 l 293 -14 l 74 551 q 50 594 64 579 q 4 632 36 610 l -25 653 l -25 700 l 400 700 l 400 653 l 364 638 q 317 592 317 619 q 325 547 317 572 l 413 281 l 569 668 l 694 700 l 871 279 l 965 547 q 975 592 975 576 q 929 638 975 621 l 893 653 l 893 700 l 1182 700 l 1182 653 l 1139 625 q 1099 593 1110 607 q 1078 554 1088 579 l 883 38 l 763 -14 l 574 410 l 418 38 z "},"Ẅ":{"ha":1451,"x_min":3,"x_max":1449,"o":"m 629 1044 q 549 1078 581 1044 q 518 1160 518 1111 q 551 1238 518 1207 q 629 1269 583 1269 q 710 1239 678 1269 q 743 1160 743 1208 q 712 1076 743 1107 q 629 1044 681 1044 m 939 1044 q 858 1078 889 1044 q 828 1160 828 1111 q 860 1239 828 1208 q 939 1269 892 1269 q 1019 1239 988 1269 q 1051 1160 1051 1208 q 1021 1076 1051 1107 q 939 1044 990 1044 m 501 29 l 401 -14 l 121 781 q 90 843 106 824 q 47 878 75 863 l 3 903 l 3 951 l 447 951 l 447 903 l 403 881 q 369 858 379 868 q 360 832 360 849 q 371 781 360 817 l 515 344 l 728 925 l 833 951 l 1057 349 l 1200 771 q 1217 833 1217 818 q 1171 882 1217 864 l 1119 903 l 1119 951 l 1449 951 l 1449 903 l 1390 875 q 1315 769 1344 853 l 1051 29 l 961 -14 l 714 621 l 501 29 z "},"ẅ":{"ha":1153,"x_min":-25,"x_max":1182,"o":"m 471 825 q 391 858 422 825 q 360 940 360 892 q 392 1019 360 988 q 471 1050 425 1050 q 552 1019 519 1050 q 585 940 585 989 q 553 856 585 888 q 471 825 522 825 m 781 825 q 700 858 731 825 q 669 940 669 892 q 701 1019 669 989 q 781 1050 733 1050 q 861 1019 829 1050 q 893 940 893 989 q 863 856 893 888 q 781 825 832 825 m 418 38 l 293 -14 l 74 551 q 50 594 64 579 q 4 632 36 610 l -25 653 l -25 700 l 400 700 l 400 653 l 364 638 q 317 592 317 619 q 325 547 317 572 l 413 281 l 569 668 l 694 700 l 871 279 l 965 547 q 975 592 975 576 q 929 638 975 621 l 893 653 l 893 700 l 1182 700 l 1182 653 l 1139 625 q 1099 593 1110 607 q 1078 554 1088 579 l 883 38 l 763 -14 l 574 410 l 418 38 z "},"ẞ":{"ha":1022,"x_min":58,"x_max":1000,"o":"m 713 -14 q 475 22 574 -14 l 483 221 l 529 221 l 568 157 q 631 100 592 119 q 711 81 669 81 q 778 100 753 81 q 803 157 803 119 q 776 217 803 193 q 674 279 749 240 q 556 372 586 324 q 526 499 526 421 q 651 700 651 554 q 609 815 651 774 q 478 857 567 857 l 396 857 l 396 0 l 58 0 l 58 50 l 103 74 q 149 112 138 93 q 161 167 161 131 l 161 785 q 149 841 161 822 q 103 878 138 860 l 58 901 l 58 951 l 526 951 q 900 714 900 951 q 845 587 900 647 q 722 517 790 526 q 847 421 742 468 q 961 342 922 386 q 1000 225 1000 297 q 921 53 1000 121 q 713 -14 842 -14 z "},"Ẽ":{"ha":935,"x_min":58,"x_max":881,"o":"m 289 1035 l 235 1035 q 276 1187 235 1124 q 378 1250 318 1250 q 478 1218 419 1250 q 578 1186 539 1186 q 618 1201 604 1186 q 642 1254 632 1215 l 696 1254 q 656 1104 696 1165 q 556 1043 615 1043 q 446 1076 503 1043 q 361 1110 388 1110 q 289 1035 301 1110 m 847 0 l 58 0 l 58 50 l 103 74 q 150 113 139 94 q 161 167 161 131 l 161 785 q 150 840 161 821 q 103 878 139 858 l 58 901 l 58 951 l 842 951 l 856 703 l 804 703 l 760 764 q 690 838 719 819 q 614 857 661 857 l 396 857 l 396 529 l 550 529 q 606 541 588 529 q 643 588 625 553 l 667 633 l 717 633 l 717 303 l 667 303 l 644 360 q 607 419 628 404 q 550 435 586 435 l 396 435 l 396 178 q 413 112 396 129 q 482 94 431 94 l 618 94 q 706 113 676 94 q 779 194 735 131 l 831 269 l 881 269 l 847 0 z "},"ẽ":{"ha":775,"x_min":50,"x_max":728,"o":"m 229 814 l 175 814 q 217 966 175 903 q 318 1029 258 1029 q 418 997 360 1029 q 518 965 479 965 q 558 980 544 965 q 582 1033 572 994 l 636 1033 q 596 883 636 944 q 496 822 556 822 q 386 856 443 822 q 301 889 328 889 q 229 814 242 889 m 404 -14 q 144 81 238 -14 q 50 344 50 175 q 151 610 50 506 q 407 714 253 714 q 642 628 556 714 q 728 394 728 543 l 728 361 l 290 361 l 290 354 q 348 178 290 239 q 511 118 406 118 q 668 169 583 118 l 717 110 q 404 -14 593 -14 m 293 447 l 507 453 q 481 581 507 536 q 410 626 456 626 q 329 584 357 626 q 293 447 301 542 z "},"Ỳ":{"ha":954,"x_min":3,"x_max":951,"o":"m 633 1025 l 558 1025 l 283 1224 l 283 1271 l 519 1271 l 633 1025 m 717 0 l 247 0 l 247 50 l 292 74 q 350 117 335 97 q 365 167 365 136 l 365 354 l 121 781 q 77 852 89 836 q 47 878 65 868 l 3 901 l 3 951 l 451 951 l 451 901 l 407 881 q 364 839 364 860 q 385 789 364 826 l 551 497 l 694 771 q 717 835 717 814 q 667 882 717 864 l 615 901 l 615 951 l 951 951 l 951 901 l 892 875 q 831 800 867 864 l 600 379 l 600 167 q 615 115 600 135 q 672 74 629 96 l 717 50 l 717 0 z "},"ỳ":{"ha":781,"x_min":-24,"x_max":804,"o":"m 557 771 l 482 771 l 207 969 l 207 1017 l 443 1017 l 557 771 m 201 -347 l 38 -225 l 57 -182 q 333 -10 243 -133 l 75 553 q 48 599 60 586 q 6 633 36 613 l -24 654 l -24 700 l 406 700 l 406 654 l 369 639 q 324 593 324 619 q 336 549 324 575 l 463 250 l 586 549 q 599 593 599 575 q 553 639 599 618 l 517 654 l 517 700 l 804 700 l 804 654 l 761 625 q 697 556 715 597 l 488 74 q 346 -192 413 -96 q 201 -347 279 -289 z "},"Ỹ":{"ha":954,"x_min":3,"x_max":951,"o":"m 360 1035 l 306 1035 q 347 1187 306 1124 q 449 1250 389 1250 q 549 1218 490 1250 q 649 1186 610 1186 q 689 1201 675 1186 q 713 1254 703 1215 l 767 1254 q 726 1104 767 1165 q 626 1043 686 1043 q 517 1076 574 1043 q 432 1110 458 1110 q 360 1035 372 1110 m 717 0 l 247 0 l 247 50 l 292 74 q 350 117 335 97 q 365 167 365 136 l 365 354 l 121 781 q 77 852 89 836 q 47 878 65 868 l 3 901 l 3 951 l 451 951 l 451 901 l 407 881 q 364 839 364 860 q 385 789 364 826 l 551 497 l 694 771 q 717 835 717 814 q 667 882 717 864 l 615 901 l 615 951 l 951 951 l 951 901 l 892 875 q 831 800 867 864 l 600 379 l 600 167 q 615 115 600 135 q 672 74 629 96 l 717 50 l 717 0 z "},"ỹ":{"ha":781,"x_min":-24,"x_max":804,"o":"m 283 781 l 229 781 q 271 933 229 869 q 372 996 313 996 q 472 964 414 996 q 572 932 533 932 q 613 947 599 932 q 636 1000 626 961 l 690 1000 q 650 850 690 911 q 550 789 610 789 q 440 822 497 789 q 356 856 382 856 q 283 781 296 856 m 201 -347 l 38 -225 l 57 -182 q 333 -10 243 -133 l 75 553 q 48 599 60 586 q 6 633 36 613 l -24 654 l -24 700 l 406 700 l 406 654 l 369 639 q 324 593 324 619 q 336 549 324 575 l 463 250 l 586 549 q 599 593 599 575 q 553 639 599 618 l 517 654 l 517 700 l 804 700 l 804 654 l 761 625 q 697 556 715 597 l 488 74 q 346 -192 413 -96 q 201 -347 279 -289 z "},"–":{"ha":696,"x_min":81,"x_max":615,"o":"m 615 361 l 81 361 l 81 481 l 615 481 l 615 361 z "},"—":{"ha":1204,"x_min":81,"x_max":1124,"o":"m 1124 361 l 81 361 l 81 481 l 1124 481 l 1124 361 z "},"‘":{"ha":394,"x_min":61,"x_max":350,"o":"m 157 611 q 91 656 121 611 q 61 757 61 701 q 311 1078 61 938 l 350 1032 q 271 936 294 978 q 247 847 247 894 q 325 746 247 781 l 325 704 q 157 611 186 611 z "},"’":{"ha":396,"x_min":44,"x_max":335,"o":"m 83 606 l 44 651 q 124 746 100 704 q 147 836 147 788 q 69 938 147 903 l 69 979 q 238 1072 208 1072 q 305 1027 275 1072 q 335 926 335 982 q 83 606 335 747 z "},"‚":{"ha":394,"x_min":44,"x_max":335,"o":"m 83 -269 l 44 -224 q 124 -129 100 -171 q 147 -39 147 -87 q 69 63 147 28 l 69 104 q 238 197 208 197 q 305 152 275 197 q 335 51 335 107 q 83 -269 335 -128 z "},"“":{"ha":729,"x_min":61,"x_max":685,"o":"m 492 613 q 424 658 454 613 q 394 758 394 703 q 646 1079 394 939 l 685 1033 q 606 939 629 981 q 582 849 582 897 q 658 747 582 781 l 658 706 q 492 613 521 613 m 157 613 q 91 658 121 613 q 61 758 61 703 q 311 1079 61 939 l 350 1033 q 271 938 294 979 q 247 849 247 896 q 325 747 247 782 l 325 706 q 157 613 186 613 z "},"”":{"ha":729,"x_min":44,"x_max":668,"o":"m 418 607 l 379 653 q 458 747 435 706 q 481 838 481 789 q 404 939 481 906 l 404 981 q 571 1074 544 1074 q 638 1028 608 1074 q 668 928 668 983 q 418 607 668 747 m 83 607 l 44 653 q 124 747 100 706 q 147 838 147 789 q 69 939 147 904 l 69 981 q 238 1074 208 1074 q 305 1028 275 1074 q 335 928 335 983 q 83 607 335 749 z "},"„":{"ha":728,"x_min":44,"x_max":668,"o":"m 418 -269 l 379 -224 q 458 -129 435 -171 q 481 -39 481 -87 q 404 63 481 29 l 404 104 q 571 197 544 197 q 638 152 608 197 q 668 51 668 107 q 418 -269 668 -129 m 83 -269 l 44 -224 q 124 -129 100 -171 q 147 -39 147 -87 q 69 63 147 28 l 69 104 q 238 197 208 197 q 305 152 275 197 q 335 51 335 107 q 83 -269 335 -128 z "},"†":{"ha":758,"x_min":81,"x_max":678,"o":"m 401 -289 l 357 -289 l 265 319 l 265 360 l 329 606 l 124 551 l 81 551 l 81 742 l 124 742 l 324 692 l 278 911 l 278 951 l 481 951 l 481 911 l 435 692 l 635 742 l 678 742 l 678 551 l 635 551 l 429 606 l 493 360 l 493 319 l 401 -289 z "},"‡":{"ha":758,"x_min":81,"x_max":678,"o":"m 481 -287 l 278 -287 l 278 -247 l 324 -44 l 124 -94 l 81 -94 l 81 94 l 124 94 l 329 42 l 265 313 l 265 351 l 329 622 l 124 568 l 81 568 l 81 758 l 124 758 l 324 708 l 278 911 l 278 951 l 481 951 l 481 911 l 435 708 l 635 758 l 678 758 l 678 568 l 635 568 l 429 622 l 493 351 l 493 313 l 429 42 l 635 94 l 678 94 l 678 -94 l 635 -94 l 435 -44 l 481 -247 l 481 -287 z "},"•":{"ha":635,"x_min":103,"x_max":532,"o":"m 318 264 q 163 324 222 264 q 103 478 103 383 q 163 632 103 572 q 318 692 222 692 q 472 632 413 692 q 532 478 532 572 q 472 324 532 383 q 318 264 413 264 z "},"…":{"ha":1304,"x_min":75,"x_max":1229,"o":"m 1191 24 q 1172 5 1191 24 q 1096 -14 1153 -14 q 1001 25 1039 -14 q 963 119 963 64 q 1001 214 963 175 q 1096 253 1039 253 q 1191 215 1153 253 q 1229 119 1229 176 q 1191 24 1229 63 m 208 -14 q 114 25 153 -14 q 75 119 75 64 q 114 214 75 175 q 208 253 153 253 q 303 215 265 253 q 342 119 342 176 q 303 24 342 63 q 208 -14 265 -14 m 747 25 q 728 6 747 25 q 653 -14 708 -14 q 558 25 597 -14 q 519 119 519 64 q 558 214 519 175 q 653 253 597 253 q 747 214 708 253 q 786 119 786 175 q 747 25 786 64 z "},"‰":{"ha":1819,"x_min":81,"x_max":1739,"o":"m 499 522 q 464 485 499 522 q 325 447 429 447 q 151 522 221 447 q 81 706 81 597 q 151 890 81 815 q 325 965 221 965 q 499 890 429 965 q 568 706 568 815 q 499 522 568 597 m 435 0 l 311 0 l 850 951 l 974 951 l 435 0 m 258 572 q 270 547 258 572 q 325 521 283 521 q 392 572 367 521 q 418 706 418 624 q 392 839 418 788 q 325 890 367 890 q 258 839 283 890 q 232 706 232 788 q 258 572 232 624 m 1133 59 q 1099 22 1133 59 q 960 -15 1064 -15 q 785 59 856 -15 q 715 243 715 133 q 785 427 715 353 q 960 501 856 501 q 1133 427 1064 501 q 1203 243 1203 353 q 1133 59 1203 133 m 1669 59 q 1635 22 1669 59 q 1496 -15 1600 -15 q 1322 59 1392 -15 q 1251 243 1251 133 q 1322 427 1251 353 q 1496 501 1392 501 q 1669 427 1600 501 q 1739 243 1739 353 q 1669 59 1739 133 m 960 58 q 1026 110 1000 58 q 1053 243 1053 163 q 1026 376 1053 325 q 960 428 1000 428 q 892 376 918 428 q 867 243 867 325 q 892 110 867 161 q 960 58 918 58 m 1496 58 q 1563 110 1536 58 q 1589 243 1589 163 q 1563 376 1589 325 q 1496 428 1536 428 q 1428 376 1454 428 q 1403 243 1403 325 q 1428 110 1403 161 q 1496 58 1454 58 z "},"‹":{"ha":467,"x_min":61,"x_max":385,"o":"m 385 75 l 336 49 l 61 326 l 61 361 l 336 639 l 385 611 l 279 343 l 385 75 z "},"›":{"ha":467,"x_min":82,"x_max":406,"o":"m 406 326 l 132 49 l 82 75 l 189 343 l 82 611 l 132 639 l 406 361 l 406 326 z "},"⁄":{"ha":657,"x_min":-3,"x_max":660,"o":"m 121 0 l -3 0 l 536 951 l 660 951 l 121 0 z "},"⁰":{"ha":579,"x_min":64,"x_max":517,"o":"m 455 487 q 424 449 455 487 q 290 411 393 411 q 126 487 188 411 q 64 689 64 563 q 126 890 64 815 q 290 965 188 965 q 455 890 393 965 q 517 689 517 815 q 455 487 517 563 m 290 469 q 375 689 375 469 q 353 850 375 793 q 290 907 331 907 q 227 850 250 907 q 204 689 204 793 q 227 527 204 585 q 290 469 250 469 z "},"⁴":{"ha":567,"x_min":36,"x_max":504,"o":"m 431 411 l 296 411 l 296 539 l 44 539 l 36 571 l 301 951 l 431 951 l 431 600 l 504 600 l 504 539 l 431 539 l 431 411 m 296 844 l 129 600 l 296 600 l 296 844 z "},"⁸":{"ha":532,"x_min":64,"x_max":469,"o":"m 265 411 q 119 448 175 411 q 64 546 64 485 q 94 621 64 586 q 179 676 125 656 q 75 814 75 744 q 128 924 75 882 q 265 965 182 965 q 397 928 346 965 q 447 833 447 892 q 339 715 447 750 q 469 561 469 650 q 411 453 469 496 q 265 411 353 411 m 292 744 q 332 840 332 789 q 313 890 332 871 q 263 908 294 908 q 212 891 231 908 q 193 846 193 874 q 215 799 193 821 q 292 744 236 776 m 263 468 q 319 486 297 468 q 340 535 340 504 q 313 589 340 563 q 218 650 285 615 q 176 546 176 594 q 199 488 176 508 q 263 468 222 468 z "},"€":{"ha":890,"x_min":36,"x_max":836,"o":"m 544 -14 q 288 70 392 -14 q 136 318 183 154 l 36 318 l 36 415 l 125 415 q 122 469 122 451 q 128 536 122 496 l 36 536 l 36 633 l 143 633 q 298 880 193 794 q 546 965 403 965 q 815 908 672 965 l 831 696 l 786 696 q 706 793 757 733 q 572 861 647 861 q 374 633 432 861 l 607 633 l 607 536 l 360 536 q 357 482 357 494 q 361 415 357 461 l 607 415 l 607 318 l 375 318 q 572 92 436 92 q 679 129 635 92 q 789 281 724 164 l 836 281 l 815 69 q 544 -14 713 -14 z "},"₹":{"ha":742,"x_min":43,"x_max":699,"o":"m 686 0 l 376 0 l 185 310 q 150 359 164 343 q 114 383 136 375 l 43 383 l 43 478 l 133 478 q 237 517 192 478 q 296 619 282 557 l 43 619 l 43 714 l 297 714 q 236 815 283 774 q 131 857 189 857 l 43 857 l 43 951 l 699 951 l 699 857 l 463 857 q 549 714 535 799 l 699 714 l 699 619 l 547 619 q 338 415 515 475 q 444 326 403 394 l 574 125 q 642 69 596 90 l 686 50 l 686 0 z "},"₺":{"ha":874,"x_min":36,"x_max":850,"o":"m 378 0 l 39 0 l 39 50 l 83 74 q 131 112 119 93 q 143 167 143 131 l 143 242 l 36 182 l 36 286 l 143 344 l 143 481 l 36 422 l 36 525 l 143 585 l 143 785 q 131 840 143 821 q 83 878 119 858 l 39 901 l 39 951 l 481 951 l 481 901 l 436 878 q 390 841 401 860 q 378 785 378 822 l 378 717 l 572 828 l 572 724 l 378 613 l 378 476 l 572 588 l 572 483 l 378 374 l 378 96 q 584 197 511 103 q 657 468 657 292 l 701 468 l 850 324 q 694 77 813 154 q 378 0 575 0 z "},"₽":{"ha":874,"x_min":25,"x_max":847,"o":"m 494 0 l 38 0 l 38 50 l 83 74 q 131 112 119 93 q 143 167 143 131 l 143 185 l 25 185 l 25 279 l 143 279 l 143 400 l 25 400 l 25 494 l 143 494 l 143 785 q 131 841 143 822 q 83 878 119 860 l 38 901 l 38 951 l 461 951 q 748 880 649 951 q 847 671 847 808 q 747 470 847 540 q 461 400 646 400 l 378 400 l 378 279 l 631 279 l 631 185 l 378 185 l 378 167 q 392 115 378 135 q 450 74 407 96 l 494 50 l 494 0 m 378 857 l 378 494 l 421 494 q 551 541 503 494 q 599 669 599 588 q 551 808 599 758 q 421 857 503 857 l 378 857 z "},"ℓ":{"ha":646,"x_min":35,"x_max":586,"o":"m 351 -14 q 190 53 239 -14 q 132 290 142 119 q 54 268 76 271 l 35 321 q 129 364 58 331 l 129 751 q 199 964 129 886 q 389 1042 269 1042 q 534 988 482 1042 q 586 833 586 933 q 515 597 586 714 q 318 389 444 479 l 318 303 q 337 129 318 174 q 406 85 356 85 q 556 124 479 85 l 578 71 q 351 -14 467 -14 m 318 751 l 318 497 q 456 850 456 636 q 388 968 456 968 q 332 925 346 968 q 318 751 318 882 z "},"™":{"ha":1197,"x_min":54,"x_max":1144,"o":"m 822 499 l 774 499 l 644 829 l 614 583 q 613 567 613 572 q 635 536 613 546 l 664 522 l 664 499 l 501 499 l 501 522 l 524 535 q 558 581 554 553 l 593 871 q 594 888 594 881 q 590 903 594 899 q 569 917 585 908 l 550 926 l 550 951 l 722 951 l 829 665 l 940 951 l 1101 951 l 1101 926 l 1082 917 q 1062 903 1067 908 q 1057 888 1057 899 q 1058 871 1057 882 l 1099 579 q 1105 553 1100 561 q 1125 535 1110 546 l 1144 522 l 1144 499 l 935 499 l 935 522 l 958 535 q 983 564 983 549 q 982 579 983 568 l 950 831 l 822 499 m 390 499 l 168 499 l 168 522 l 189 535 q 216 556 211 549 q 221 581 221 563 l 221 900 l 161 900 q 103 838 139 900 l 76 796 l 54 796 l 60 951 l 503 951 l 510 796 l 483 796 l 461 838 q 399 900 426 900 l 339 900 l 339 581 q 344 554 339 563 q 369 535 350 546 l 390 522 l 390 499 z "},"Ω":{"ha":1185,"x_min":81,"x_max":1104,"o":"m 511 0 l 108 0 l 81 257 l 125 257 l 185 186 q 224 155 206 161 q 296 149 242 149 l 424 149 q 191 331 285 213 q 97 561 97 449 q 235 853 97 740 q 593 965 374 965 q 950 853 811 965 q 1089 561 1089 740 q 995 331 1089 449 q 763 149 901 213 l 889 149 q 962 155 944 149 q 1001 186 979 161 l 1060 257 l 1104 257 l 1078 0 l 675 0 l 651 172 q 792 330 740 231 q 844 553 844 429 q 776 778 844 693 q 593 864 707 864 q 410 778 479 864 q 340 553 340 693 q 393 330 340 429 q 535 172 446 231 l 511 0 z "},"℮":{"ha":1039,"x_min":50,"x_max":989,"o":"m 549 -14 q 193 131 336 -14 q 50 482 50 275 q 185 822 50 679 q 524 964 321 964 q 859 826 729 964 q 989 482 989 689 l 297 482 l 297 149 q 553 60 411 60 q 739 103 653 60 q 883 214 825 146 l 936 167 q 549 -14 785 -14 m 297 818 l 297 571 l 751 571 l 751 815 q 522 896 650 896 q 297 818 401 896 z "},"⅛":{"ha":1196,"x_min":64,"x_max":1115,"o":"m 392 417 l 64 417 l 64 447 l 113 469 q 160 526 160 490 l 160 781 q 110 835 160 826 l 64 842 l 64 875 l 274 965 l 294 949 l 294 526 q 343 469 294 492 l 392 447 l 392 417 m 371 0 l 247 0 l 786 951 l 910 951 l 371 0 m 911 -6 q 765 31 821 -6 q 710 129 710 68 q 740 204 710 169 q 825 260 771 239 q 721 397 721 328 q 774 507 721 465 q 911 549 828 549 q 1042 512 992 549 q 1093 417 1093 475 q 985 299 1093 333 q 1115 144 1115 233 q 1057 37 1115 79 q 911 -6 999 -6 m 938 328 q 978 424 978 372 q 959 473 978 454 q 908 492 940 492 q 858 474 878 492 q 839 429 839 457 q 860 382 839 404 q 938 328 882 360 m 908 51 q 965 69 943 51 q 986 118 986 88 q 958 172 986 146 q 864 233 931 199 q 822 129 822 178 q 845 72 822 92 q 908 51 868 51 z "},"∂":{"ha":856,"x_min":38,"x_max":801,"o":"m 365 -14 q 133 73 228 -14 q 38 285 38 160 q 147 524 38 428 q 418 619 257 619 q 546 600 478 619 q 451 844 540 757 q 201 936 361 932 l 211 1008 q 289 1013 250 1013 q 656 862 511 1013 q 801 481 801 711 q 683 120 801 254 q 365 -14 565 -14 m 383 88 q 498 187 450 88 q 556 442 546 286 q 527 507 554 482 q 460 532 500 532 q 332 453 383 532 q 281 261 281 375 q 308 133 281 178 q 383 88 335 88 z "},"∅":{"ha":914,"x_min":81,"x_max":833,"o":"m 192 0 l 82 0 l 183 118 q 81 376 81 228 q 191 642 81 532 q 458 751 301 751 q 665 690 574 751 l 721 754 l 833 754 l 732 635 q 833 376 833 525 q 724 110 833 221 q 458 0 614 0 q 247 65 340 0 l 192 0 m 244 190 l 607 621 q 458 665 543 665 q 260 583 338 665 q 183 376 183 500 q 244 190 183 267 m 458 86 q 654 170 576 86 q 732 376 732 254 q 671 563 732 483 l 304 132 q 458 86 375 86 z "},"∆":{"ha":1011,"x_min":53,"x_max":958,"o":"m 958 0 l 53 0 l 53 46 l 419 932 l 586 965 l 958 47 l 958 0 m 426 710 l 171 97 l 682 97 l 426 710 z "},"∏":{"ha":1146,"x_min":58,"x_max":1088,"o":"m 518 -197 l 76 -197 l 76 -147 l 121 -124 q 169 -84 157 -103 q 181 -31 181 -65 l 181 810 q 167 882 181 868 q 90 896 153 896 l 58 896 l 58 996 l 1088 996 l 1088 896 l 1056 896 q 981 882 994 896 q 967 810 967 868 l 967 -31 q 978 -84 967 -65 q 1026 -124 990 -103 l 1071 -147 l 1071 -197 l 629 -197 l 629 -147 l 674 -124 q 721 -84 710 -103 q 732 -31 732 -65 l 732 896 l 414 896 l 414 -31 q 426 -84 414 -65 q 474 -124 438 -103 l 518 -147 l 518 -197 z "},"∑":{"ha":944,"x_min":81,"x_max":864,"o":"m 824 -178 l 81 -178 l 81 -83 l 407 360 l 81 899 l 81 993 l 831 993 l 843 743 l 792 743 l 747 806 q 678 879 708 860 q 603 899 649 899 l 354 899 l 604 478 l 261 17 l 626 17 q 723 36 690 17 q 794 115 756 56 l 814 146 l 864 146 l 824 -178 z "},"−":{"ha":783,"x_min":81,"x_max":703,"o":"m 703 417 l 81 417 l 81 532 l 703 532 l 703 417 z "},"√":{"ha":915,"x_min":13,"x_max":889,"o":"m 507 0 l 417 0 l 143 474 l 13 474 l 13 519 l 256 674 l 301 674 l 508 307 l 783 1069 l 889 1069 l 507 0 z "},"∞":{"ha":1079,"x_min":67,"x_max":1013,"o":"m 296 190 q 130 269 193 190 q 67 476 67 349 q 130 669 67 592 q 289 746 193 746 q 420 694 356 746 q 526 556 485 642 q 656 700 592 654 q 793 746 719 746 q 951 670 890 746 q 1013 475 1013 594 q 952 269 1013 349 q 797 190 892 190 q 658 238 728 190 q 544 364 588 286 q 296 190 415 190 m 271 332 q 481 488 367 332 q 283 603 388 603 q 185 567 224 603 q 146 474 146 531 q 181 371 146 410 q 271 332 215 332 m 800 332 q 898 370 863 332 q 933 474 933 408 q 899 567 933 531 q 810 603 865 603 q 713 563 761 603 q 592 422 664 522 q 800 332 714 332 z "},"∫":{"ha":736,"x_min":17,"x_max":719,"o":"m 185 -347 q 17 -314 97 -347 l 39 -81 l 92 -81 q 152 -217 133 -187 q 194 -247 171 -247 q 244 -199 229 -247 q 258 -31 258 -150 l 258 749 q 551 1042 258 1042 q 719 1008 644 1042 l 697 775 l 644 775 q 585 913 603 883 q 542 943 567 943 q 493 895 507 943 q 479 726 479 847 l 479 -54 q 404 -273 479 -199 q 185 -347 329 -347 z "},"≈":{"ha":800,"x_min":81,"x_max":719,"o":"m 533 489 q 397 532 482 489 q 268 574 314 574 q 146 506 210 574 l 81 576 q 267 681 176 681 q 403 639 325 681 q 531 596 488 596 q 653 664 589 596 l 718 593 q 533 489 622 489 m 535 250 q 400 293 485 250 q 274 335 318 335 q 147 268 210 335 l 82 338 q 268 443 179 443 q 404 401 322 443 q 532 358 485 358 q 654 425 592 358 l 719 356 q 535 250 624 250 z "},"≠":{"ha":751,"x_min":81,"x_max":671,"o":"m 217 146 l 107 146 l 203 288 l 81 288 l 81 404 l 281 404 l 365 529 l 81 529 l 81 646 l 443 646 l 535 782 l 647 782 l 556 646 l 671 646 l 671 529 l 476 529 l 392 404 l 671 404 l 671 288 l 313 288 l 217 146 z "},"≤":{"ha":774,"x_min":81,"x_max":693,"o":"m 693 396 l 693 288 l 81 490 l 81 574 l 693 792 l 693 682 l 264 533 l 693 396 m 693 142 l 81 142 l 81 243 l 693 243 l 693 142 z "},"≥":{"ha":774,"x_min":81,"x_max":693,"o":"m 693 490 l 81 288 l 81 396 l 510 533 l 81 682 l 81 792 l 693 574 l 693 490 m 693 142 l 81 142 l 81 243 l 693 243 l 693 142 z "},"◊":{"ha":825,"x_min":81,"x_max":744,"o":"m 464 0 l 361 0 l 81 475 l 361 951 l 464 951 l 744 475 l 464 0 m 211 475 l 411 126 l 614 475 l 411 825 l 211 475 z "},"ﬀ":{"ha":1044,"x_min":3,"x_max":1118,"o":"m 456 0 l 35 0 l 35 47 l 83 74 q 124 110 114 92 q 135 167 135 129 l 135 594 l 3 594 l 3 679 l 128 703 q 122 785 122 758 q 210 976 122 911 q 467 1042 297 1042 q 713 992 589 1042 q 903 1042 783 1042 q 1118 996 1015 1042 l 1099 818 l 1050 818 q 970 927 1000 900 q 907 954 940 954 q 839 817 839 954 q 842 700 839 750 l 1008 700 l 1008 594 l 846 594 l 846 167 q 862 115 846 135 q 921 74 878 96 l 978 47 l 978 0 l 525 0 l 525 47 l 574 74 q 615 110 604 92 q 625 167 625 129 l 625 594 l 356 594 l 356 167 q 366 110 356 129 q 407 74 376 92 l 456 47 l 456 0 m 351 700 l 618 700 q 613 785 613 769 q 625 865 613 822 q 471 954 549 954 q 378 917 407 954 q 349 801 349 881 q 351 700 349 758 z "},"ﬁ":{"ha":974,"x_min":3,"x_max":946,"o":"m 456 0 l 35 0 l 35 47 l 83 74 q 124 110 114 92 q 135 167 135 129 l 135 594 l 3 594 l 3 679 l 128 703 q 122 785 122 772 q 207 980 122 918 q 465 1042 292 1042 q 768 1021 606 1042 l 729 817 l 675 817 q 563 923 611 892 q 456 954 514 954 q 375 922 401 954 q 349 817 349 890 q 351 700 349 750 l 803 700 l 846 674 l 846 167 q 856 110 846 128 q 897 74 867 92 l 946 47 l 946 0 l 525 0 l 525 47 l 574 74 q 615 110 604 92 q 625 167 625 128 l 625 594 l 356 594 l 356 167 q 366 110 356 129 q 407 74 376 92 l 456 47 l 456 0 z "},"ﬂ":{"ha":974,"x_min":3,"x_max":946,"o":"m 456 0 l 35 0 l 35 47 l 83 74 q 124 110 114 92 q 135 167 135 129 l 135 594 l 3 594 l 3 678 l 128 703 q 122 769 122 746 q 210 973 122 904 q 467 1042 297 1042 q 699 996 581 1042 l 803 1039 l 846 1011 l 846 167 q 856 110 846 128 q 897 74 867 92 l 946 47 l 946 0 l 525 0 l 525 47 l 574 74 q 615 110 604 92 q 625 167 625 128 l 625 861 q 471 954 546 954 q 378 917 407 954 q 349 801 349 881 q 351 699 349 757 l 517 699 l 517 594 l 356 594 l 356 167 q 366 110 356 129 q 407 74 376 92 l 456 47 l 456 0 z "},"ﬃ":{"ha":1464,"x_min":3,"x_max":1436,"o":"m 456 0 l 35 0 l 35 47 l 83 74 q 124 110 114 92 q 135 167 135 129 l 135 594 l 3 594 l 3 679 l 128 703 q 122 769 122 751 q 210 973 122 904 q 467 1042 297 1042 q 722 989 594 1042 q 957 1042 808 1042 q 1226 982 1093 1042 l 1206 803 l 1157 803 q 1065 912 1121 869 q 961 954 1010 954 q 868 917 897 954 q 839 801 839 881 q 842 700 839 758 l 1293 700 l 1336 674 l 1336 167 q 1347 110 1336 128 q 1388 74 1357 92 l 1436 47 l 1436 0 l 1015 0 l 1015 47 l 1064 74 q 1105 110 1094 92 q 1115 167 1115 128 l 1115 594 l 846 594 l 846 167 q 856 110 846 129 q 897 74 867 92 l 946 47 l 946 0 l 525 0 l 525 47 l 574 74 q 615 110 604 92 q 625 167 625 129 l 625 594 l 356 594 l 356 167 q 366 110 356 129 q 407 74 376 92 l 456 47 l 456 0 m 351 700 l 618 700 q 613 769 613 760 q 626 864 613 824 q 471 954 547 954 q 378 917 407 954 q 349 801 349 881 q 351 700 349 758 z "},"ﬄ":{"ha":1464,"x_min":3,"x_max":1436,"o":"m 456 0 l 35 0 l 35 47 l 83 74 q 124 110 114 92 q 135 167 135 129 l 135 594 l 3 594 l 3 679 l 128 703 q 122 769 122 740 q 210 973 122 904 q 467 1042 297 1042 q 722 989 594 1042 q 957 1042 808 1042 q 1190 996 1071 1042 l 1293 1039 l 1336 1011 l 1336 167 q 1347 110 1336 128 q 1388 74 1357 92 l 1436 47 l 1436 0 l 1015 0 l 1015 47 l 1064 74 q 1105 110 1094 92 q 1115 167 1115 128 l 1115 861 q 961 954 1036 954 q 868 917 897 954 q 839 801 839 881 q 842 700 839 758 l 1008 700 l 1008 594 l 846 594 l 846 167 q 856 110 846 129 q 897 74 867 92 l 946 47 l 946 0 l 525 0 l 525 47 l 574 74 q 615 110 604 92 q 625 167 625 129 l 625 594 l 356 594 l 356 167 q 366 110 356 129 q 407 74 376 92 l 456 47 l 456 0 m 351 700 l 618 700 q 613 769 613 760 q 626 864 613 824 q 471 954 547 954 q 378 917 407 954 q 349 801 349 881 q 351 700 349 758 z "}}}
